SplineFontDB: 3.0
FontName: Oswald
FullName: empty
FamilyName: Oswald
Weight: empty
Copyright: 2010-13 (c) Vernon Adams
Version: 4
ItalicAngle: 0
UnderlinePosition: -230
UnderlineWidth: 120
Ascent: 1658
Descent: 390
UFOAscent: 1658
UFODescent: -390
LayerCount: 2
Layer: 0 0 "Back"  1
Layer: 1 0 "Fore"  0
FSType: 0
OS2Version: 0
OS2_WeightWidthSlopeOnly: 0
OS2_UseTypoMetrics: 0
CreationTime: 1372385310
ModificationTime: 1372385422
PfmFamily: 0
TTFWeight: 784
TTFWidth: 5
LineGap: 0
VLineGap: 0
OS2TypoAscent: 1658
OS2TypoAOffset: 0
OS2TypoDescent: -390
OS2TypoDOffset: 0
OS2TypoLinegap: 0
OS2WinAscent: 1658
OS2WinAOffset: 0
OS2WinDescent: 390
OS2WinDOffset: 0
HheadAscent: 1658
HheadAOffset: 0
HheadDescent: -390
HheadDOffset: 0
OS2Vendor: 'newt'
Lookup: 258 0 0 "'kern' Horizontal Kerning in Cyrillic lookup 0"  {"'kern' Horizontal Kerning in Cyrillic lookup 0 subtable"  } ['kern' ('cyrl' <'dflt' > ) ]
Lookup: 258 0 0 "'kern' Horizontal Kerning in Latin lookup 0"  {"'kern' Horizontal Kerning in Latin lookup 0 subtable"  } ['kern' ('latn' <'dflt' > ) ]
Lookup: 258 0 0 "'kern' Horizontal Kerning lookup 2"  {"'kern' Horizontal Kerning lookup 2 per glyph data 0"  "'kern' Horizontal Kerning lookup 2 kerning class 1"  } ['kern' ('DFLT' <'dflt' > ) ]
Lookup: 260 0 0 "markMarkPositioninglookup2"  {"markMarkPositioninglookup2 subtable"  } ['mark' ('latn' <'dflt' > 'grek' <'dflt' > 'cyrl' <'dflt' > 'DFLT' <'dflt' > ) ]
DEI: 91125
KernClass2: 44 58 "'kern' Horizontal Kerning lookup 2 kerning class 1" 
 89 A Aacute Abreve Acircumflex Adieresis Agrave Amacron Aogonek Aring Atilde uni0200 uni0202
 9 B uni1E02
 16 D Dcaron uni1E0A
 94 E Eacute Ebreve Ecaron Ecircumflex Edieresis Edotaccent Egrave Emacron Eogonek uni0204 uni0206
 9 F uni1E1E
 52 G Gbreve Gcircumflex Gcommaaccent Gdotaccent uni01F4
 14 K Kcommaaccent
 28 L Lacute Lcaron Lcommaaccent
 9 P uni1E56
 44 R Racute Rcaron Rcommaaccent uni0210 uni0212
 37 T Tcaron Tcommaaccent uni021A uni1E6A
 1 V

StartChar: A
Encoding: 65 65 0
Width: 1164
VWidth: 0
Flags: HW
HStem: 1164 20G<582.609 587.423>
AnchorPoint: "ogonek" 831 0 basechar 0
LayerCount: 2
UndoRedoHistory
Layer: 1
Undoes
EndUndoes
Redoes
EndRedoes
EndUndoRedoHistory
Fore
SplineSet
511 565 m 1
 585 1184 l 1
 660 565 l 1
 511 565 l 1
46 0 m 1
 429 0 l 1
 479 331 l 1
 694 331 l 1
 746 0 l 1
 1117 0 l 1
 819 1658 l 1
 347 1658 l 1
 46 0 l 1
EndSplineSet
EndChar

StartChar: AE
Encoding: 198 198 1
Width: 1493
VWidth: 0
Flags: HW
LayerCount: 2
UndoRedoHistory
Layer: 1
Undoes
EndUndoes
Redoes
EndRedoes
EndUndoRedoHistory
Fore
SplineSet
615 573 m 1
 792 1050 l 1
 792 573 l 1
 615 573 l 1
-5 0 m 1
 406 0 l 1
 536 325 l 1
 792 325 l 1
 792 0 l 1
 1461 0 l 1
 1461 271 l 1
 1133 271 l 1
 1133 715 l 1
 1364 715 l 1
 1364 997 l 1
 1133 997 l 1
 1133 1354 l 1
 1461 1354 l 1
 1461 1627 l 1
 724 1627 l 1
 -5 0 l 1
EndSplineSet
EndChar

StartChar: B
Encoding: 66 66 11
Width: 1244
VWidth: 0
Flags: HW
HStem: 0 283<581 724.914> 744 259<580 719.653> 1391 267<569 711.274>
VStem: 766 354<1049.26 1334.1> 783 391<345.189 689.183>
LayerCount: 2
UndoRedoHistory
Layer: 1
Undoes
EndUndoes
Redoes
EndRedoes
EndUndoRedoHistory
Fore
SplineSet
526 1003 m 1
 526 1391 l 1
 593 1391 l 2
 701 1391 766 1309 766 1207 c 0
 766 1084 737 1003 580 1003 c 2
 526 1003 l 1
526 283 m 1
 526 744 l 1
 583 744 l 2
 733 744 783 684 783 505 c 0
 783 361 732 283 581 283 c 2
 526 283 l 1
120 0 m 1
 651 0 l 2
 976 0 1180 138 1174 498 c 0
 1170 732 1066 873 877 890 c 1
 1023 920 1116 1019 1120 1218 c 1
 1130 1612 847 1658 569 1658 c 2
 120 1658 l 1
 120 0 l 1
EndSplineSet
EndChar

StartChar: C
Encoding: 67 67 12
Width: 1181
VWidth: 0
Flags: HW
HStem: -26 281<538.874 686.544> 1403 281<538.459 686.462>
VStem: 100 413<272.568 529 1128 1386.45> 709 399<270.156 463 1205 1385.36>
AnchorPoint: "cedilla" 480 0 basechar 0
LayerCount: 2
UndoRedoHistory
Layer: 1
Undoes
EndUndoes
Redoes
EndRedoes
EndUndoRedoHistory
Fore
SplineSet
613 -26 m 0
 998 -26 1108 187 1108 463 c 2
 1108 611 l 1
 709 611 l 1
 709 421 l 2
 709 350 707 255 613 255 c 0
 521 255 513 348 513 421 c 2
 513 1237 l 2
 513 1309 519 1403 613 1403 c 0
 707 1403 709 1309 709 1238 c 2
 709 1056 l 1
 1108 1056 l 1
 1108 1205 l 2
 1108 1481 997 1684 613 1684 c 0
 227 1684 100 1475 100 1128 c 2
 100 529 l 2
 100 184 227 -26 613 -26 c 0
EndSplineSet
EndChar

StartChar: D
Encoding: 68 68 18
Width: 1234
VWidth: 0
Flags: HW
HStem: 0 280<558 694.808> 1378 280<557 694.101>
VStem: 717 417<300.936 531 1129 1358.07>
LayerCount: 2
UndoRedoHistory
Layer: 1
Undoes
EndUndoes
Redoes
EndRedoes
EndUndoRedoHistory
Fore
SplineSet
120 0 m 1
 558 0 l 2
 1010 0 1134 151 1134 531 c 2
 1134 1129 l 2
 1134 1508 1010 1658 557 1658 c 2
 120 1658 l 1
 120 0 l 1
526 280 m 1
 526 1378 l 1
 564 1378 l 2
 703 1378 717 1334 717 1220 c 2
 717 442 l 2
 717 327 703 280 564 280 c 2
 526 280 l 1
EndSplineSet
EndChar

StartChar: Dcroat
Encoding: 264 272 20
Width: 1244
VWidth: 0
Flags: HW
HStem: 0 280<569 705.548> 1378 280<568 705.101>
VStem: 737 408<300.936 531 1129 1358.07>
LayerCount: 2
UndoRedoHistory
Layer: 1
Undoes
EndUndoes
Redoes
EndRedoes
EndUndoRedoHistory
Fore
SplineSet
131 0 m 1
 569 0 l 2
 1020 0 1145 151 1145 531 c 2
 1145 1129 l 2
 1145 1508 1021 1658 568 1658 c 2
 131 1658 l 1
 131 936 l 1
 24 936 l 1
 24 757 l 1
 131 757 l 1
 131 0 l 1
525 280 m 1
 525 757 l 1
 619 757 l 1
 619 936 l 1
 525 936 l 1
 525 1378 l 1
 584 1378 l 2
 723 1378 737 1334 737 1220 c 2
 737 442 l 2
 737 327 724 280 584 280 c 2
 525 280 l 1
EndSplineSet
EndChar

StartChar: E
Encoding: 69 69 21
Width: 941
VWidth: 0
Flags: HW
AnchorPoint: "ogonek" 511 0 basechar 0
LayerCount: 2
UndoRedoHistory
Layer: 1
Undoes
EndUndoes
Redoes
EndRedoes
EndUndoRedoHistory
Fore
SplineSet
120 0 m 1
 900 0 l 1
 900 271 l 1
 526 271 l 1
 526 734 l 1
 802 734 l 1
 802 1016 l 1
 526 1016 l 1
 526 1386 l 1
 896 1386 l 1
 896 1658 l 1
 120 1658 l 1
 120 0 l 1
EndSplineSet
EndChar

StartChar: Eng
Encoding: 269 330 30
Width: 1186
VWidth: 0
Flags: HW
HStem: -442 235<489 691.109>
VStem: 741 315<-159.52 0>
LayerCount: 2
UndoRedoHistory
Layer: 1
Undoes
EndUndoes
Redoes
EndRedoes
EndUndoRedoHistory
Fore
SplineSet
489 -442 m 1
 662 -442 l 2
 980 -442 1056 -290 1056 0 c 2
 1056 1658 l 1
 721 1658 l 1
 721 948 l 1
 418 1658 l 1
 130 1658 l 1
 130 0 l 1
 478 0 l 1
 478 780 l 1
 741 177 l 1
 741 -45 l 2
 741 -167 666 -210 489 -207 c 1
 489 -442 l 1
EndSplineSet
EndChar

StartChar: Eth
Encoding: 208 208 32
Width: 1179
VWidth: 0
Flags: HW
HStem: 0 280<537 673.808> 1378 280<536 673.101>
VStem: 696 417<300.936 531 1129 1345.67>
LayerCount: 2
UndoRedoHistory
Layer: 1
Undoes
EndUndoes
Redoes
EndRedoes
EndUndoRedoHistory
Fore
SplineSet
99 0 m 1
 537 0 l 2
 989 0 1113 151 1113 531 c 2
 1113 1129 l 2
 1113 1508 989 1658 536 1658 c 2
 99 1658 l 1
 99 945 l 1
 11 945 l 1
 11 748 l 1
 99 748 l 1
 99 0 l 1
505 280 m 1
 505 748 l 1
 577 748 l 1
 577 945 l 1
 505 945 l 1
 505 1378 l 1
 542 1378 l 2
 681 1378 696 1334 696 1220 c 2
 696 442 l 2
 696 327 682 280 543 280 c 2
 505 280 l 1
EndSplineSet
EndChar

StartChar: Euro
Encoding: 271 8364 33
Width: 1184
VWidth: 0
Flags: HW
HStem: -26 281<563.874 711.544> 1403 281<563.459 711.462>
VStem: 125 413<272.568 529 1128 1386.45> 734 399<270.156 463 1205 1385.36>
LayerCount: 2
UndoRedoHistory
Layer: 1
Undoes
EndUndoes
Redoes
EndRedoes
EndUndoRedoHistory
Fore
SplineSet
638 -26 m 0
 1023 -26 1133 187 1133 463 c 2
 1133 510 l 1
 734 510 l 1
 734 421 l 2
 734 350 732 255 638 255 c 0
 546 255 538 348 538 421 c 2
 538 655 l 1
 753 655 l 1
 753 770 l 1
 538 770 l 1
 538 868 l 1
 753 868 l 1
 753 982 l 1
 538 982 l 1
 538 1237 l 2
 538 1309 544 1403 638 1403 c 0
 732 1403 734 1309 734 1238 c 2
 734 1099 l 1
 1133 1099 l 1
 1133 1205 l 2
 1133 1481 1022 1684 638 1684 c 0
 252 1684 125 1475 125 1128 c 2
 125 982 l 1
 26 982 l 1
 26 868 l 1
 125 868 l 1
 125 770 l 1
 26 770 l 1
 26 655 l 1
 125 655 l 1
 125 529 l 2
 125 184 252 -26 638 -26 c 0
EndSplineSet
EndChar

StartChar: F
Encoding: 70 70 34
Width: 915
VWidth: 0
Flags: HW
LayerCount: 2
UndoRedoHistory
Layer: 1
Undoes
EndUndoes
Redoes
EndRedoes
EndUndoRedoHistory
Fore
SplineSet
120 0 m 1
 526 0 l 1
 526 725 l 1
 828 725 l 1
 828 1007 l 1
 526 1007 l 1
 526 1386 l 1
 861 1386 l 1
 861 1658 l 1
 120 1658 l 1
 120 0 l 1
EndSplineSet
EndChar

StartChar: G
Encoding: 71 71 35
Width: 1219
VWidth: 0
Flags: HW
HStem: -26 282<546.524 715.679> 1403 281<541.546 689.99>
VStem: 100 417<292.485 550 1108 1383.38>
LayerCount: 2
UndoRedoHistory
Layer: 1
Undoes
EndUndoes
Redoes
EndRedoes
EndUndoRedoHistory
Fore
SplineSet
564 -26 m 0
 705 -26 781 37 823 121 c 1
 843 0 l 1
 1114 0 l 1
 1114 873 l 1
 616 873 l 1
 616 640 l 1
 749 640 l 1
 749 424 l 2
 749 351 723 256 630 256 c 0
 537 256 517 350 517 423 c 2
 517 1236 l 2
 517 1308 525 1403 619 1403 c 0
 713 1403 715 1310 715 1238 c 2
 715 1079 l 1
 1114 1079 l 1
 1114 1198 l 2
 1114 1475 998 1684 614 1684 c 0
 228 1684 100 1456 100 1108 c 2
 100 550 l 2
 100 214 211 -26 564 -26 c 0
EndSplineSet
EndChar

StartChar: H
Encoding: 72 72 40
Width: 1278
VWidth: 0
Flags: HW
LayerCount: 2
UndoRedoHistory
Layer: 1
Undoes
EndUndoes
Redoes
EndRedoes
EndUndoRedoHistory
Fore
SplineSet
130 0 m 1
 535 0 l 1
 535 711 l 1
 742 711 l 1
 742 0 l 1
 1148 0 l 1
 1148 1658 l 1
 742 1658 l 1
 742 1002 l 1
 535 1002 l 1
 535 1658 l 1
 130 1658 l 1
 130 0 l 1
EndSplineSet
EndChar

StartChar: Hbar
Encoding: 276 294 41
Width: 1094
VWidth: 0
Flags: HW
LayerCount: 2
UndoRedoHistory
Layer: 1
Undoes
EndUndoes
Redoes
EndRedoes
EndUndoRedoHistory
Fore
SplineSet
468 1002 m 1
 468 1257 l 1
 656 1257 l 1
 656 1002 l 1
 468 1002 l 1
63 0 m 1
 468 0 l 1
 468 711 l 1
 656 711 l 1
 656 0 l 1
 1062 0 l 1
 1062 1257 l 1
 1137 1257 l 1
 1137 1370 l 1
 1062 1370 l 1
 1062 1658 l 1
 656 1658 l 1
 656 1370 l 1
 468 1370 l 1
 468 1658 l 1
 63 1658 l 1
 63 1370 l 1
 -43 1370 l 1
 -43 1257 l 1
 63 1257 l 1
 63 0 l 1
EndSplineSet
EndChar

StartChar: I
Encoding: 73 73 43
Width: 647
VWidth: 0
Flags: HW
VStem: 121 405
AnchorPoint: "ogonek" 220 0 basechar 0
LayerCount: 2
UndoRedoHistory
Layer: 1
Undoes
EndUndoes
Redoes
EndRedoes
EndUndoRedoHistory
Fore
SplineSet
121 0 m 1
 526 0 l 1
 526 1658 l 1
 121 1658 l 1
 121 0 l 1
EndSplineSet
EndChar

StartChar: J
Encoding: 74 74 53
Width: 743
VWidth: 0
Flags: HW
HStem: -43 281<30 193.428>
AnchorPoint: "circumflexcomb" 338 1658 basechar 0
LayerCount: 2
UndoRedoHistory
Layer: 1
Undoes
EndUndoes
Redoes
EndRedoes
EndUndoRedoHistory
Fore
SplineSet
30 -43 m 1
 228 -43 l 2
 533 -43 616 96 622 363 c 1
 623 1658 l 1
 217 1658 l 1
 217 381 l 2
 217 259 165 235 30 238 c 1
 30 -43 l 1
EndSplineSet
EndChar

StartChar: K
Encoding: 75 75 55
Width: 1205
VWidth: 0
Flags: HW
LayerCount: 2
UndoRedoHistory
Layer: 1
Undoes
EndUndoes
Redoes
EndRedoes
EndUndoRedoHistory
Fore
SplineSet
120 0 m 1
 526 0 l 1
 526 692 l 1
 547 718 l 1
 763 0 l 1
 1180 0 l 1
 875 905 l 1
 1176 1658 l 1
 777 1658 l 1
 526 1012 l 1
 526 1658 l 1
 120 1658 l 1
 120 0 l 1
EndSplineSet
EndChar

StartChar: L
Encoding: 76 76 57
Width: 934
VWidth: 0
Flags: HW
LayerCount: 2
UndoRedoHistory
Layer: 1
Undoes
EndUndoes
Redoes
EndRedoes
EndUndoRedoHistory
Fore
SplineSet
120 0 m 1
 895 0 l 1
 895 271 l 1
 526 271 l 1
 526 1658 l 1
 120 1658 l 1
 120 0 l 1
EndSplineSet
EndChar

StartChar: Lslash
Encoding: 289 321 62
Width: 954
VWidth: 0
Flags: HW
LayerCount: 2
UndoRedoHistory
Layer: 1
Undoes
EndUndoes
Redoes
EndRedoes
EndUndoRedoHistory
Fore
SplineSet
141 0 m 1
 916 0 l 1
 916 271 l 1
 547 271 l 1
 547 907 l 1
 745 998 l 1
 745 1205 l 1
 547 1114 l 1
 547 1658 l 1
 141 1658 l 1
 141 930 l 1
 24 876 l 1
 24 669 l 1
 141 722 l 1
 141 0 l 1
EndSplineSet
EndChar

StartChar: M
Encoding: 77 77 63
Width: 1468
VWidth: 0
Flags: HW
VStem: 114 287<0 576.095> 141 287<777.663 1085> 1039 287<777.663 1075> 1071 282<0 481.6>
LayerCount: 2
UndoRedoHistory
Layer: 1
Undoes
EndUndoes
Redoes
EndRedoes
EndUndoRedoHistory
Fore
SplineSet
114 0 m 1
 401 0 l 1
 428 1085 l 1
 611 0 l 1
 870 0 l 1
 1039 1075 l 1
 1071 0 l 1
 1353 0 l 1
 1326 1658 l 1
 902 1658 l 1
 734 805 l 1
 583 1658 l 1
 141 1658 l 1
 114 0 l 1
EndSplineSet
EndChar

StartChar: N
Encoding: 78 78 64
Width: 1167
VWidth: 0
Flags: HW
LayerCount: 2
UndoRedoHistory
Layer: 1
Undoes
EndUndoes
Redoes
EndRedoes
EndUndoRedoHistory
Fore
SplineSet
120 0 m 1
 468 0 l 1
 468 780 l 1
 769 0 l 1
 1046 0 l 1
 1046 1658 l 1
 711 1658 l 1
 711 948 l 1
 408 1658 l 1
 120 1658 l 1
 120 0 l 1
EndSplineSet
EndChar

StartChar: O
Encoding: 79 79 69
Width: 1227
VWidth: 0
Flags: HW
HStem: -26 281<538.564 685.856> 1403 281<538.564 685.856>
VStem: 100 417<278.675 523 1135 1379.76> 710 417<278.675 523 1135 1379.76>
AnchorPoint: "ogonek" 581 0 basechar 0
LayerCount: 2
UndoRedoHistory
Layer: 1
Undoes
EndUndoes
Redoes
EndRedoes
EndUndoRedoHistory
Fore
SplineSet
612 -26 m 0
 997 -26 1127 177 1127 523 c 2
 1127 1135 l 2
 1127 1482 997 1684 612 1684 c 0
 227 1684 100 1482 100 1135 c 2
 100 523 l 2
 100 177 227 -26 612 -26 c 0
612 255 m 0
 518 255 517 350 517 420 c 2
 517 1239 l 2
 517 1310 518 1403 612 1403 c 0
 705 1403 710 1310 710 1239 c 2
 710 420 l 2
 710 350 705 255 612 255 c 0
EndSplineSet
EndChar

StartChar: OE
Encoding: 293 338 70
Width: 1490
VWidth: 0
Flags: HW
VStem: 100 405<309.632 588 1049 1334.86>
LayerCount: 2
UndoRedoHistory
Layer: 1
Undoes
EndUndoes
Redoes
EndRedoes
EndUndoRedoHistory
Fore
SplineSet
609 276 m 1
 511 275 505 408 505 489 c 2
 505 1146 l 2
 505 1226 511 1364 608 1364 c 2
 706 1364 l 1
 706 276 l 1
 609 276 l 1
608 0 m 2
 1438 0 l 1
 1438 271 l 1
 1111 271 l 1
 1111 715 l 1
 1343 715 l 1
 1343 997 l 1
 1111 997 l 1
 1111 1379 l 1
 1438 1379 l 1
 1438 1650 l 1
 608 1650 l 1
 221 1649 100 1380 100 1049 c 2
 100 588 l 2
 100 239 229 0 608 0 c 2
EndSplineSet
EndChar

StartChar: Oslash
Encoding: 216 216 78
Width: 1189
VWidth: 0
Flags: HW
HStem: -26 281<538.564 685.856> 1403 281<538.564 685.856>
VStem: 100 417<278.675 523 1135 1379.76> 710 417<278.675 523 1135 1379.76>
LayerCount: 2
UndoRedoHistory
Layer: 1
Undoes
EndUndoes
Redoes
EndRedoes
EndUndoRedoHistory
Fore
SplineSet
221 -195 m 1
 1021 1779 l 1
 941 1813 l 1
 142 -160 l 1
 221 -195 l 1
EndSplineSet
Refer: 69 79 N 1 0 0 1 0 0 2
EndChar

StartChar: P
Encoding: 80 80 80
Width: 1223
VWidth: 0
Flags: HW
VStem: 785 380<995.054 1343.31>
LayerCount: 2
UndoRedoHistory
Layer: 1
Undoes
EndUndoes
Redoes
EndRedoes
EndUndoRedoHistory
Fore
SplineSet
526 966 m 1
 526 1374 l 1
 651 1374 l 2
 775 1374 785 1272 785 1180 c 0
 785 1044 773 966 655 966 c 2
 526 966 l 1
120 0 m 1
 526 0 l 1
 526 685 l 1
 663 685 l 2
 932 685 1165 753 1165 1171 c 0
 1165 1484 1017 1658 720 1658 c 2
 120 1658 l 1
 120 0 l 1
EndSplineSet
EndChar

StartChar: Pi
Encoding: 297 928 81
Width: 1283
VWidth: 0
Flags: HW
LayerCount: 2
UndoRedoHistory
Layer: 1
Undoes
EndUndoes
Redoes
EndRedoes
EndUndoRedoHistory
Fore
SplineSet
99 0 m 1
 453 0 l 1
 453 1367 l 1
 830 1367 l 1
 830 0 l 1
 1184 0 l 1
 1184 1658 l 1
 99 1658 l 1
 99 0 l 1
EndSplineSet
EndChar

StartChar: Q
Encoding: 81 81 82
Width: 1227
VWidth: 0
Flags: HW
HStem: -26 281<542.804 677.128> 1403 281<538.564 685.856>
VStem: 100 417<278.675 523 1135 1379.76> 710 417<274.363 523 1135 1379.76>
LayerCount: 2
UndoRedoHistory
Layer: 1
Undoes
EndUndoes
Redoes
EndRedoes
EndUndoRedoHistory
Fore
SplineSet
612 255 m 0
 518 255 517 350 517 420 c 2
 517 1239 l 2
 517 1310 518 1403 612 1403 c 0
 705 1403 710 1310 710 1239 c 2
 710 420 l 2
 710 350 705 255 612 255 c 0
998 -323 m 1
 1086 -96 l 1
 1029 -68 968 -14 916 40 c 1
 1069 125 1127 292 1127 523 c 2
 1127 1135 l 2
 1127 1482 997 1684 612 1684 c 0
 227 1684 100 1482 100 1135 c 2
 100 523 l 2
 100 177 227 -26 612 -26 c 0
 623 -26 634 -25 645 -25 c 1
 734 -162 911 -289 998 -323 c 1
EndSplineSet
EndChar

StartChar: R
Encoding: 82 82 83
Width: 1277
VWidth: 0
Flags: HW
HStem: 1390 268<615 762.166>
VStem: 809 375<1009.59 1343.64>
LayerCount: 2
UndoRedoHistory
Layer: 1
Undoes
EndUndoes
Redoes
EndRedoes
EndUndoRedoHistory
Fore
SplineSet
526 956 m 1
 526 1390 l 1
 652 1390 l 2
 770 1390 809 1305 809 1177 c 0
 809 1051 775 956 632 956 c 2
 526 956 l 1
120 0 m 1
 526 0 l 1
 526 733 l 1
 610 733 l 1
 782 0 l 1
 1207 0 l 1
 981 794 l 1
 1148 881 1184 1014 1184 1221 c 0
 1184 1579 948 1658 615 1658 c 2
 120 1658 l 1
 120 0 l 1
EndSplineSet
EndChar

StartChar: S
Encoding: 83 83 87
Width: 1077
VWidth: 0
Flags: HW
HStem: -26 306<474.608 605.699> 1391 293<505.146 615.276>
VStem: 89 397<1125.59 1376.78> 89 344<330.461 512> 618 402<287.655 539.819>
AnchorPoint: "cedilla" 470 0 basechar 0
LayerCount: 2
UndoRedoHistory
Layer: 1
Undoes
EndUndoes
Redoes
EndRedoes
EndUndoRedoHistory
Fore
SplineSet
575 -26 m 0
 849 -26 1020 165 1020 397 c 0
 1020 632 903 774 757 905 c 1
 661 990 l 2
 580 1062 486 1134 486 1275 c 0
 486 1315 505 1390 561 1391 c 1
 633 1391 635 1308 635 1165 c 1
 987 1200 l 1
 986 1365 957 1684 576 1684 c 1
 276 1683 89 1525 89 1235 c 0
 89 1008 201 894 330 783 c 1
 435 694 l 2
 551 595 618 515 618 378 c 0
 618 343 614 280 550 280 c 0
 485 280 434 331 433 557 c 1
 89 512 l 1
 99 118 254 -26 575 -26 c 0
EndSplineSet
EndChar

StartChar: T
Encoding: 84 84 93
Width: 943
VWidth: 0
Flags: HW
AnchorPoint: "cedilla" 380 0 basechar 0
LayerCount: 2
UndoRedoHistory
Layer: 1
Undoes
EndUndoes
Redoes
EndRedoes
EndUndoRedoHistory
Fore
SplineSet
269 0 m 1
 675 0 l 1
 675 1358 l 1
 916 1358 l 1
 916 1658 l 1
 27 1658 l 1
 27 1358 l 1
 269 1358 l 1
 269 0 l 1
EndSplineSet
EndChar

StartChar: Tbar
Encoding: 306 358 94
Width: 943
VWidth: 0
Flags: HW
LayerCount: 2
UndoRedoHistory
Layer: 1
Undoes
EndUndoes
Redoes
EndRedoes
EndUndoRedoHistory
Fore
SplineSet
97 743 m 1
 858 743 l 1
 858 933 l 1
 97 933 l 1
 97 743 l 1
EndSplineSet
Refer: 93 84 N 1 0 0 1 0 0 2
EndChar

StartChar: Thorn
Encoding: 222 222 97
Width: 1186
VWidth: 0
Flags: HW
VStem: 791 366<805.764 1103.78>
LayerCount: 2
UndoRedoHistory
Layer: 1
Undoes
EndUndoes
Redoes
EndRedoes
EndUndoRedoHistory
Fore
SplineSet
505 761 m 1
 505 1151 l 1
 619 1151 l 2
 746 1151 791 1087 791 959 c 0
 791 819 745 761 614 761 c 2
 505 761 l 1
99 0 m 1
 505 0 l 1
 505 479 l 1
 628 480 l 2
 987 483 1157 566 1157 981 c 0
 1157 1323 985 1436 640 1436 c 2
 505 1436 l 1
 505 1658 l 1
 99 1658 l 1
 99 0 l 1
EndSplineSet
EndChar

StartChar: U
Encoding: 85 85 98
Width: 1230
VWidth: 0
Flags: HW
HStem: -26 289<541.015 688.711>
AnchorPoint: "ogonek" 581 0 basechar 0
LayerCount: 2
UndoRedoHistory
Layer: 1
Undoes
EndUndoes
Redoes
EndRedoes
EndUndoRedoHistory
Fore
SplineSet
615 -26 m 0
 1001 -26 1120 153 1120 501 c 2
 1120 1658 l 1
 715 1658 l 1
 715 433 l 2
 715 361 709 263 615 263 c 0
 521 263 514 361 514 433 c 2
 514 1658 l 1
 110 1658 l 1
 110 501 l 2
 110 153 228 -26 615 -26 c 0
EndSplineSet
EndChar

StartChar: V
Encoding: 86 86 109
Width: 1090
VWidth: 0
Flags: HW
LayerCount: 2
UndoRedoHistory
Layer: 1
Undoes
EndUndoes
Redoes
EndRedoes
EndUndoRedoHistory
Fore
SplineSet
324 0 m 1
 764 0 l 1
 1048 1658 l 1
 681 1658 l 1
 540 561 l 1
 386 1658 l 1
 45 1658 l 1
 324 0 l 1
EndSplineSet
EndChar

StartChar: W
Encoding: 87 87 110
Width: 1410
VWidth: 0
Flags: HW
VStem: 568 266<1536.35 1658>
LayerCount: 2
UndoRedoHistory
Layer: 1
Undoes
EndUndoes
Redoes
EndRedoes
EndUndoRedoHistory
Fore
SplineSet
229 0 m 1
 595 0 l 1
 700 936 l 1
 815 0 l 1
 1179 0 l 1
 1358 1658 l 1
 1017 1658 l 1
 939 767 l 1
 834 1658 l 1
 568 1658 l 1
 472 758 l 1
 396 1658 l 1
 52 1658 l 1
 229 0 l 1
EndSplineSet
EndChar

StartChar: X
Encoding: 88 88 115
Width: 1074
VWidth: 0
Flags: HW
LayerCount: 2
UndoRedoHistory
Layer: 1
Undoes
EndUndoes
Redoes
EndRedoes
EndUndoRedoHistory
Fore
SplineSet
10 0 m 1
 339 0 l 1
 502 458 l 1
 684 0 l 1
 1064 0 l 1
 756 782 l 1
 1029 1658 l 1
 696 1658 l 1
 573 1249 l 1
 412 1658 l 1
 26 1658 l 1
 326 902 l 1
 10 0 l 1
EndSplineSet
EndChar

StartChar: Y
Encoding: 89 89 116
AltUni2: 0004ae.ffffffff.0
Width: 1018
VWidth: 0
Flags: HW
LayerCount: 2
UndoRedoHistory
Layer: 1
Undoes
EndUndoes
Redoes
EndRedoes
EndUndoRedoHistory
Fore
SplineSet
317 0 m 1
 706 0 l 1
 706 705 l 1
 1004 1658 l 1
 637 1658 l 1
 528 1214 l 1
 397 1658 l 1
 14 1658 l 1
 317 705 l 1
 317 0 l 1
EndSplineSet
EndChar

StartChar: Z
Encoding: 90 90 121
Width: 894
VWidth: 0
Flags: HW
LayerCount: 2
UndoRedoHistory
Layer: 1
Undoes
EndUndoes
Redoes
EndRedoes
EndUndoRedoHistory
Fore
SplineSet
56 0 m 1
 835 0 l 1
 835 271 l 1
 447 271 l 1
 830 1422 l 1
 830 1658 l 1
 69 1658 l 1
 69 1386 l 1
 436 1386 l 1
 56 237 l 1
 56 0 l 1
EndSplineSet
EndChar

StartChar: a
Encoding: 97 97 125
Width: 1006
VWidth: 0
Flags: HW
HStem: -22 238<260.5 488.715>
VStem: 69 326<231.523 451.284>
AnchorPoint: "ogonek" 632 0 basechar 0
LayerCount: 2
UndoRedoHistory
Layer: 1
Undoes
EndUndoes
Redoes
EndRedoes
EndUndoRedoHistory
Fore
SplineSet
484 216 m 0
 437 216 395 260 395 335 c 0
 395 408 452 532 563 584 c 1
 563 262 l 1
 541 232 512 216 484 216 c 0
357 -22 m 1
 477 -22 551 65 580 165 c 1
 581 161 607 0 607 0 c 1
 932 0 l 1
 926 53 911 139 911 298 c 2
 911 855 l 2
 911 1053 784 1206 543 1206 c 0
 273 1206 124 1085 103 817 c 0
 103 816 100 781 100 780 c 2
 438 766 l 1
 449 861 l 1
 452 899 461 934 507 934 c 0
 550 934 563 898 563 860 c 2
 563 732 l 1
 396 663 69 592 69 271 c 0
 69 133 164 -18 357 -22 c 1
EndSplineSet
EndChar

StartChar: acute
Encoding: 180 180 129
Width: 648
VWidth: 0
Flags: HW
HStem: 1243 415
LayerCount: 2
UndoRedoHistory
Layer: 1
Undoes
EndUndoes
Redoes
EndRedoes
EndUndoRedoHistory
Fore
SplineSet
108 1243 m 1
 346 1243 l 1
 613 1658 l 1
 236 1658 l 1
 108 1243 l 1
EndSplineSet
EndChar

StartChar: acutecomb
Encoding: 326 769 130
Width: 624
VWidth: 0
Flags: HW
HStem: 1243 415
LayerCount: 2
UndoRedoHistory
Layer: 1
Undoes
EndUndoes
Redoes
EndRedoes
EndUndoRedoHistory
Fore
SplineSet
101 1243 m 1
 339 1243 l 1
 606 1658 l 1
 229 1658 l 1
 101 1243 l 1
EndSplineSet
EndChar

StartChar: ae
Encoding: 230 230 132
Width: 1374
VWidth: 0
Flags: HW
HStem: -27 243<291.5 523.213 884.34 1068.28> 1016 227<892.506 1004.74>
VStem: 52 314<226.127 454.792> 530 343<231.252 353 843 927.723> 1015 299<803.418 1010.78>
LayerCount: 2
UndoRedoHistory
Layer: 1
Undoes
EndUndoes
Redoes
EndRedoes
EndUndoRedoHistory
Fore
SplineSet
873 761 m 1
 873 899 l 2
 873 971 913 1016 954 1016 c 0
 987 1016 1015 985 1015 918 c 0
 1015 863 999 827 973 803 c 1
 950 780 913 767 873 761 c 1
447 216 m 0
 383 216 366 286 366 318 c 0
 366 354 383 460 475 520 c 0
 491 530 510 539 531 547 c 1
 533 322 l 2
 533 232 495 216 447 216 c 0
379 -27 m 0
 494 -27 631 27 681 139 c 1
 710 25 859 -27 956 -27 c 0
 1175 -26 1298 93 1298 305 c 2
 1298 414 l 1
 965 414 l 1
 965 346 l 2
 965 277 971 230 923 230 c 0
 879 230 874 271 874 353 c 2
 874 602 l 1
 907 608 945 615 978 623 c 0
 1151 666 1314 745 1314 944 c 0
 1314 1078 1200 1243 959 1243 c 0
 831 1243 720 1174 688 1083 c 1
 665 1173 569 1244 439 1244 c 0
 171 1244 50 1077 55 789 c 1
 409 789 l 1
 409 914 440 930 472 930 c 0
 504 930 530 915 530 843 c 2
 530 698 l 1
 486 690 428 681 376 668 c 0
 216 629 52 544 52 282 c 0
 52 73 204 -26 379 -27 c 0
EndSplineSet
EndChar

StartChar: afii10018
Encoding: 328 1041 134
Width: 1169
VWidth: 0
Flags: HW
VStem: 725 374<306.145 627.524>
LayerCount: 2
UndoRedoHistory
Layer: 1
Undoes
EndUndoes
Redoes
EndRedoes
EndUndoRedoHistory
Fore
SplineSet
535 263 m 1
 535 676 l 1
 573 676 l 2
 697 676 721 580 725 487 c 0
 730 348 696 263 577 263 c 2
 535 263 l 1
130 0 m 1
 575 0 l 2
 847 0 1099 57 1099 478 c 0
 1099 795 922 955 621 955 c 2
 535 955 l 1
 535 1347 l 1
 985 1347 l 1
 985 1658 l 1
 130 1658 l 1
 130 0 l 1
EndSplineSet
EndChar

StartChar: afii10019
Encoding: 329 1042 135
Width: 1246
VWidth: 0
Flags: HW
HStem: 0 283<591 733.931> 744 259<590 729.292> 1391 267<578 720.706>
VStem: 776 354<1049.26 1334.1> 792 392<345.189 689.183>
LayerCount: 2
UndoRedoHistory
Layer: 1
Undoes
EndUndoes
Redoes
EndRedoes
EndUndoRedoHistory
Fore
SplineSet
535 1003 m 1
 535 1391 l 1
 603 1391 l 2
 711 1391 776 1309 776 1207 c 0
 776 1084 746 1003 590 1003 c 2
 535 1003 l 1
535 283 m 1
 535 744 l 1
 593 744 l 2
 743 744 792 684 792 505 c 0
 792 361 742 283 591 283 c 2
 535 283 l 1
130 0 m 1
 660 0 l 2
 985 0 1190 138 1184 498 c 0
 1180 732 1075 873 887 890 c 1
 1033 920 1125 1019 1130 1218 c 0
 1140 1612 857 1658 578 1658 c 2
 130 1658 l 1
 130 0 l 1
EndSplineSet
EndChar

StartChar: afii10020
Encoding: 330 1043 136
Width: 994
VWidth: 0
Flags: HW
LayerCount: 2
UndoRedoHistory
Layer: 1
Undoes
EndUndoes
Redoes
EndRedoes
EndUndoRedoHistory
Fore
SplineSet
130 0 m 1
 535 0 l 1
 535 1358 l 1
 935 1358 l 1
 935 1658 l 1
 130 1658 l 1
 130 0 l 1
EndSplineSet
EndChar

StartChar: afii10021
Encoding: 331 1044 137
Width: 1459
VWidth: 0
Flags: HW
HStem: -20 20G<334.933 1145.07>
VStem: 40 276<-375 -106.2> 1164 260<-375 -106.2>
LayerCount: 2
UndoRedoHistory
Layer: 1
Undoes
EndUndoes
Redoes
EndRedoes
EndUndoRedoHistory
Fore
SplineSet
462 289 m 1
 563 377 678 477 715 1022 c 1
 736 1373 l 1
 855 1373 l 1
 855 289 l 1
 462 289 l 1
40 -375 m 1
 316 -375 l 1
 336 0 l 1
 1144 0 l 1
 1164 -375 l 1
 1424 -375 l 1
 1424 289 l 1
 1228 289 l 1
 1228 1658 l 1
 436 1658 l 1
 386 1053 l 2
 345 549 247 326 80 289 c 1
 40 289 l 1
 40 -375 l 1
EndSplineSet
EndChar

StartChar: afii10024
Encoding: 334 1046 140
Width: 1698
VWidth: 0
Flags: HW
LayerCount: 2
UndoRedoHistory
Layer: 1
Undoes
EndUndoes
Redoes
EndRedoes
EndUndoRedoHistory
Fore
SplineSet
13 0 m 1
 370 0 l 1
 671 798 l 1
 691 798 l 1
 691 0 l 1
 1007 0 l 1
 1007 798 l 1
 1026 798 l 1
 1328 0 l 1
 1685 0 l 1
 1347 830 l 1
 1685 1658 l 1
 1309 1658 l 1
 1026 890 l 1
 1007 890 l 1
 1007 1658 l 1
 691 1658 l 1
 691 890 l 1
 671 890 l 1
 389 1658 l 1
 13 1658 l 1
 351 830 l 1
 13 0 l 1
EndSplineSet
EndChar

StartChar: afii10025
Encoding: 335 1047 141
Width: 1103
VWidth: 0
Flags: HW
HStem: -34 319<493.265 638.422> 720 238<484 610.652> 1386 301<483.53 625.549>
VStem: 76 379<317.028 514 1202 1358.54> 657 372<300.745 677.631 1011.25 1363.05>
LayerCount: 2
UndoRedoHistory
Layer: 1
Undoes
EndUndoes
Redoes
EndRedoes
EndUndoRedoHistory
Fore
SplineSet
562 -34 m 0
 904 -34 1029 186 1029 493 c 0
 1029 733 941 824 836 866 c 1
 941 892 1029 1038 1029 1230 c 0
 1029 1535 847 1687 554 1687 c 0
 269 1687 76 1521 76 1212 c 2
 76 1099 l 1
 455 1099 l 1
 455 1099 455 1201 455 1202 c 0
 455 1312 477 1386 551 1386 c 0
 626 1386 657 1325 657 1202 c 0
 657 1039 629 959 484 958 c 1
 484 958 392 958 391 958 c 1
 391 720 l 1
 392 720 490 720 491 720 c 0
 630 719 657 643 657 481 c 0
 657 342 641 285 568 285 c 0
 492 285 468 337 468 507 c 0
 468 508 468 572 468 573 c 1
 89 573 l 1
 89 514 l 2
 89 190 191 -34 562 -34 c 0
EndSplineSet
EndChar

StartChar: afii10026
Encoding: 336 1048 142
Width: 1234
VWidth: 0
Flags: HW
LayerCount: 2
UndoRedoHistory
Layer: 1
Undoes
EndUndoes
Redoes
EndRedoes
EndUndoRedoHistory
Fore
SplineSet
130 0 m 1
 366 0 l 1
 785 909 l 1
 785 0 l 1
 1105 0 l 1
 1105 1658 l 1
 847 1658 l 1
 443 765 l 1
 443 1658 l 1
 130 1658 l 1
 130 0 l 1
EndSplineSet
EndChar

StartChar: afii10028
Encoding: 338 1050 144
Width: 1211
VWidth: 0
Flags: HW
LayerCount: 2
UndoRedoHistory
Layer: 1
Undoes
EndUndoes
Redoes
EndRedoes
EndUndoRedoHistory
Fore
SplineSet
130 0 m 1
 535 0 l 1
 535 699 l 1
 557 699 l 1
 772 0 l 1
 1190 0 l 1
 893 883 l 1
 1187 1658 l 1
 787 1658 l 1
 557 1023 l 1
 535 1023 l 1
 535 1658 l 1
 130 1658 l 1
 130 0 l 1
EndSplineSet
EndChar

StartChar: afii10029
Encoding: 339 1051 145
Width: 1388
VWidth: 0
Flags: HW
HStem: 0 282<18 175.54>
LayerCount: 2
UndoRedoHistory
Layer: 1
Undoes
EndUndoes
Redoes
EndRedoes
EndUndoRedoHistory
Fore
SplineSet
18 0 m 1
 635 -30 624 143 673 868 c 2
 705 1347 l 1
 853 1347 l 1
 853 0 l 1
 1258 0 l 1
 1258 1658 l 1
 336 1658 l 1
 283 959 l 2
 235 328 268 282 18 282 c 1
 18 0 l 1
EndSplineSet
EndChar

StartChar: afii10030
Encoding: 340 1052 146
Width: 1468
VWidth: 0
Flags: HW
VStem: 114 287<0 573.971> 141 287<777.663 1081> 1040 286<777.663 1071> 1071 282<0 495.286>
LayerCount: 2
UndoRedoHistory
Layer: 1
Undoes
EndUndoes
Redoes
EndRedoes
EndUndoRedoHistory
Fore
SplineSet
114 0 m 1
 401 0 l 1
 428 1081 l 1
 640 0 l 1
 841 0 l 1
 1040 1071 l 1
 1071 0 l 1
 1353 0 l 1
 1326 1658 l 1
 902 1658 l 1
 734 807 l 1
 582 1658 l 1
 141 1658 l 1
 114 0 l 1
EndSplineSet
EndChar

StartChar: afii10033
Encoding: 343 1055 149
Width: 1258
VWidth: 0
Flags: HW
LayerCount: 2
UndoRedoHistory
Layer: 1
Undoes
EndUndoes
Redoes
EndRedoes
EndUndoRedoHistory
Fore
SplineSet
120 0 m 1
 518 0 l 1
 518 1368 l 1
 740 1368 l 1
 740 0 l 1
 1138 0 l 1
 1138 1658 l 1
 120 1658 l 1
 120 0 l 1
EndSplineSet
EndChar

StartChar: afii10034
Encoding: 344 1056 150
Width: 1216
VWidth: 0
Flags: HW
VStem: 785 380<995.054 1343.31>
LayerCount: 2
UndoRedoHistory
Layer: 1
Undoes
EndUndoes
Redoes
EndRedoes
EndUndoRedoHistory
Fore
SplineSet
526 966 m 1
 526 1374 l 1
 651 1374 l 2
 775 1374 785 1272 785 1180 c 0
 785 1044 773 966 655 966 c 2
 526 966 l 1
120 0 m 1
 526 0 l 1
 526 685 l 1
 663 685 l 2
 932 685 1165 753 1165 1171 c 0
 1165 1484 1017 1658 720 1658 c 2
 120 1658 l 1
 120 0 l 1
EndSplineSet
EndChar

StartChar: afii10037
Encoding: 347 1059 153
Width: 1194
VWidth: 0
Flags: HW
HStem: -349 260<109 359.759>
LayerCount: 2
UndoRedoHistory
Layer: 1
Undoes
EndUndoes
Redoes
EndRedoes
EndUndoRedoHistory
Fore
SplineSet
109 -349 m 1
 550 -351 724 -291 813 95 c 2
 1171 1658 l 1
 790 1658 l 1
 672 988 l 1
 628 564 l 1
 566 986 l 1
 422 1658 l 1
 47 1658 l 1
 432 163 l 2
 483 -38 327 -90 109 -89 c 1
 109 -349 l 1
EndSplineSet
EndChar

StartChar: afii10038
Encoding: 348 1060 154
Width: 1611
VWidth: 0
Flags: HW
HStem: 179 252<498.039 649 962 1110.03> 1256 239<501.26 649 988 1099.98>
VStem: 95 355<481.76 575 1100 1202.76> 1162 354<480.814 574 1099 1202.16>
LayerCount: 2
UndoRedoHistory
Layer: 1
Undoes
EndUndoes
Redoes
EndRedoes
EndUndoRedoHistory
Fore
SplineSet
996 432 m 0
 985 432 973 433 962 434 c 1
 962 1256 l 1
 971 1256 982 1256 991 1256 c 0
 1110 1250 1162 1164 1162 1105 c 2
 1162 568 l 2
 1162 505 1107 432 996 432 c 0
618 431 m 0
 500 431 450 510 450 569 c 2
 450 1106 l 2
 450 1166 501 1252 615 1256 c 0
 625 1257 638 1256 649 1255 c 1
 649 433 l 1
 639 432 628 431 618 431 c 0
649 -55 m 1
 962 -55 l 1
 962 181 l 1
 1003 179 l 1
 1299 155 1516 347 1516 574 c 2
 1516 1099 l 2
 1516 1326 1299 1518 988 1495 c 1
 962 1494 l 1
 962 1741 l 1
 649 1741 l 1
 649 1493 l 1
 608 1495 l 1
 313 1518 95 1326 95 1100 c 2
 95 575 l 2
 95 348 311 155 624 179 c 1
 649 180 l 1
 649 -55 l 1
EndSplineSet
EndChar

StartChar: afii10040
Encoding: 350 1062 156
Width: 1442
VWidth: 0
Flags: HW
LayerCount: 2
UndoRedoHistory
Layer: 1
Undoes
EndUndoes
Redoes
EndRedoes
EndUndoRedoHistory
Fore
SplineSet
1115 -375 m 1
 1409 -375 l 1
 1409 271 l 1
 1163 271 l 1
 1163 1658 l 1
 758 1658 l 1
 758 271 l 1
 535 271 l 1
 535 1658 l 1
 130 1658 l 1
 130 0 l 1
 1059 0 l 1
 1115 -375 l 1
EndSplineSet
EndChar

StartChar: afii10041
Encoding: 351 1063 157
Width: 1282
VWidth: 0
Flags: HW
HStem: 648 246<521.762 747>
LayerCount: 2
UndoRedoHistory
Layer: 1
Undoes
EndUndoes
Redoes
EndRedoes
EndUndoRedoHistory
Fore
SplineSet
747 0 m 1
 1152 0 l 1
 1152 1658 l 1
 747 1658 l 1
 747 898 l 1
 723 895 701 894 678 894 c 0
 495 894 491 966 491 1054 c 2
 491 1658 l 1
 86 1658 l 1
 86 1053 l 2
 86 793 322 648 572 648 c 0
 612 648 678 651 747 658 c 1
 747 0 l 1
EndSplineSet
EndChar

StartChar: afii10042
Encoding: 352 1064 158
Width: 1735
VWidth: 0
Flags: HW
LayerCount: 2
UndoRedoHistory
Layer: 1
Undoes
EndUndoes
Redoes
EndRedoes
EndUndoRedoHistory
Fore
SplineSet
130 0 m 1
 1606 0 l 1
 1606 1658 l 1
 1228 1658 l 1
 1228 289 l 1
 1059 289 l 1
 1059 1658 l 1
 681 1658 l 1
 681 289 l 1
 508 289 l 1
 508 1658 l 1
 130 1658 l 1
 130 0 l 1
EndSplineSet
EndChar

StartChar: afii10043
Encoding: 353 1065 159
Width: 1952
VWidth: 0
Flags: HW
LayerCount: 2
UndoRedoHistory
Layer: 1
Undoes
EndUndoes
Redoes
EndRedoes
EndUndoRedoHistory
Fore
SplineSet
1558 -375 m 1
 1852 -375 l 1
 1852 271 l 1
 1607 271 l 1
 1607 1658 l 1
 1228 1658 l 1
 1228 271 l 1
 1059 271 l 1
 1059 1658 l 1
 681 1658 l 1
 681 271 l 1
 508 271 l 1
 508 1658 l 1
 130 1658 l 1
 130 0 l 1
 1509 0 l 1
 1558 -375 l 1
EndSplineSet
EndChar

StartChar: afii10044
Encoding: 354 1066 160
Width: 1333
VWidth: 0
Flags: HW
VStem: 886 374<306.145 627.524>
LayerCount: 2
UndoRedoHistory
Layer: 1
Undoes
EndUndoes
Redoes
EndRedoes
EndUndoRedoHistory
Fore
SplineSet
679 263 m 1
 679 676 l 1
 734 676 l 2
 858 676 882 580 886 487 c 0
 891 348 857 263 738 263 c 2
 679 263 l 1
273 0 m 1
 736 0 l 2
 1008 0 1260 57 1260 478 c 0
 1260 795 1083 955 782 955 c 2
 679 955 l 1
 679 1658 l 1
 -34 1658 l 1
 -34 1386 l 1
 273 1386 l 1
 273 0 l 1
EndSplineSet
EndChar

StartChar: afii10045
Encoding: 355 1067 161
Width: 1763
VWidth: 0
Flags: HW
VStem: 726 374<306.145 627.524>
LayerCount: 2
UndoRedoHistory
Layer: 1
Undoes
EndUndoes
Redoes
EndRedoes
EndUndoRedoHistory
Fore
SplineSet
1228 0 m 1
 1634 0 l 1
 1634 1658 l 1
 1228 1658 l 1
 1228 0 l 1
535 263 m 1
 535 676 l 1
 575 676 l 2
 698 676 722 580 726 487 c 0
 732 348 697 263 579 263 c 2
 535 263 l 1
130 0 m 1
 576 0 l 2
 849 0 1100 57 1100 478 c 0
 1100 795 923 955 623 955 c 2
 535 955 l 1
 535 1658 l 1
 130 1658 l 1
 130 0 l 1
EndSplineSet
EndChar

StartChar: afii10046
Encoding: 356 1068 162
Width: 1175
VWidth: 0
Flags: HW
VStem: 723 375<306.145 627.524>
LayerCount: 2
UndoRedoHistory
Layer: 1
Undoes
EndUndoes
Redoes
EndRedoes
EndUndoRedoHistory
Fore
SplineSet
535 263 m 1
 535 676 l 1
 572 676 l 2
 696 676 720 580 723 487 c 1
 729 348 694 263 576 263 c 2
 535 263 l 1
130 0 m 1
 573 0 l 2
 846 0 1098 57 1098 478 c 0
 1098 795 920 955 620 955 c 2
 535 955 l 1
 535 1658 l 1
 130 1658 l 1
 130 0 l 1
EndSplineSet
EndChar

StartChar: afii10047
Encoding: 357 1069 163
Width: 1210
VWidth: 0
Flags: HW
HStem: -26 281<523.538 671.541> 1403 281<523.456 671.126>
VStem: 102 399<272.641 453 1195 1387.84> 697 413<271.546 530 1129 1385.43>
LayerCount: 2
UndoRedoHistory
Layer: 1
Undoes
EndUndoes
Redoes
EndRedoes
EndUndoRedoHistory
Fore
SplineSet
597 -26 m 0
 983 -26 1110 183 1110 530 c 2
 1110 1129 l 2
 1110 1474 983 1684 597 1684 c 0
 212 1684 102 1471 102 1195 c 2
 102 1111 l 1
 501 1111 l 1
 501 1237 l 2
 501 1308 503 1403 597 1403 c 0
 689 1403 697 1310 697 1237 c 2
 697 915 l 1
 426 915 l 1
 426 723 l 1
 697 723 l 1
 697 421 l 2
 697 349 691 255 597 255 c 0
 503 255 501 349 501 420 c 2
 501 542 l 1
 102 542 l 1
 102 453 l 2
 102 177 213 -26 597 -26 c 0
EndSplineSet
EndChar

StartChar: afii10048
Encoding: 358 1070 164
Width: 1753
VWidth: 0
Flags: HW
HStem: -26 281<1112.07 1250.43> 1403 281<1112.07 1250.43>
VStem: 710 382<273.922 548 1110 1384.52> 1271 382<273.922 548 1110 1384.08>
LayerCount: 2
UndoRedoHistory
Layer: 1
Undoes
EndUndoes
Redoes
EndRedoes
EndUndoRedoHistory
Fore
SplineSet
1181 255 m 0
 1093 255 1092 350 1092 420 c 2
 1092 1239 l 2
 1092 1310 1093 1403 1181 1403 c 0
 1270 1403 1271 1310 1271 1239 c 2
 1271 420 l 2
 1271 350 1270 255 1181 255 c 0
1181 -26 m 0
 1545 -26 1653 202 1653 548 c 2
 1653 1110 l 2
 1653 1456 1545 1684 1181 1684 c 0
 818 1684 710 1457 710 1110 c 2
 710 985 l 1
 535 985 l 1
 535 1658 l 1
 130 1658 l 1
 130 0 l 1
 535 0 l 1
 535 688 l 1
 710 688 l 1
 710 548 l 2
 710 202 818 -26 1181 -26 c 0
EndSplineSet
EndChar

StartChar: afii10049
Encoding: 359 1071 165
Width: 1277
VWidth: 0
Flags: HW
HStem: 1382 276<569.475 694>
VStem: 119 376<997.492 1311.71>
LayerCount: 2
UndoRedoHistory
Layer: 1
Undoes
EndUndoes
Redoes
EndRedoes
EndUndoRedoHistory
Fore
SplineSet
698 932 m 2
 540 932 495 1037 495 1148 c 0
 495 1299 562 1382 694 1382 c 2
 741 1382 l 1
 741 932 l 1
 698 932 l 2
18 0 m 1
 454 0 l 1
 683 646 l 1
 696 646 l 1
 741 646 l 1
 741 0 l 1
 1147 0 l 1
 1147 1658 l 1
 692 1658 l 2
 351 1658 119 1570 119 1152 c 0
 119 967 203 813 323 735 c 1
 18 0 l 1
EndSplineSet
EndChar

StartChar: afii10051
Encoding: 360 1026 166
Width: 1338
VWidth: 0
Flags: HW
HStem: 0 222<709 846.295> 790 225<702.877 1001>
VStem: 893 366<262.279 398 683 760.557>
LayerCount: 2
UndoRedoHistory
Layer: 1
Undoes
EndUndoes
Redoes
EndRedoes
EndUndoRedoHistory
Fore
SplineSet
709 0 m 1
 798 0 l 2
 1153 0 1259 103 1259 396 c 2
 1259 729 l 2
 1259 901 1096 1015 906 1015 c 0
 808 1015 703 985 610 917 c 1
 610 1378 l 1
 903 1378 l 1
 903 1658 l 1
 -27 1658 l 1
 -27 1378 l 1
 209 1378 l 1
 209 0 l 1
 610 0 l 1
 610 722 l 1
 679 772 735 790 777 790 c 0
 858 790 893 724 893 683 c 2
 893 398 l 2
 893 257 825 222 709 222 c 1
 709 0 l 1
EndSplineSet
EndChar

StartChar: afii10053
Encoding: 362 1028 168
Width: 1164
VWidth: 0
Flags: HW
HStem: -26 281<538.874 686.544> 1403 281<538.459 686.462>
VStem: 100 413<272.568 529 1128 1386.45> 709 399<270.156 463 1205 1385.36>
LayerCount: 2
UndoRedoHistory
Layer: 1
Undoes
EndUndoes
Redoes
EndRedoes
EndUndoRedoHistory
Fore
SplineSet
613 -26 m 0
 998 -26 1108 187 1108 463 c 2
 1108 549 l 1
 709 549 l 1
 709 421 l 2
 709 350 707 255 613 255 c 0
 521 255 513 348 513 421 c 2
 513 725 l 1
 735 725 l 1
 735 933 l 1
 513 933 l 1
 513 1237 l 2
 513 1309 519 1403 613 1403 c 0
 707 1403 709 1309 709 1238 c 2
 709 1094 l 1
 1108 1094 l 1
 1108 1205 l 2
 1108 1481 997 1684 613 1684 c 0
 227 1684 100 1475 100 1128 c 2
 100 529 l 2
 100 184 227 -26 613 -26 c 0
EndSplineSet
EndChar

StartChar: afii10055
Encoding: 364 1030 170
Width: 585
VWidth: 0
Flags: HW
VStem: 100 405
LayerCount: 2
UndoRedoHistory
Layer: 1
Undoes
EndUndoes
Redoes
EndRedoes
EndUndoRedoHistory
Fore
SplineSet
100 0 m 1
 505 0 l 1
 505 1658 l 1
 100 1658 l 1
 100 0 l 1
EndSplineSet
EndChar

StartChar: afii10057
Encoding: 366 1032 172
Width: 679
VWidth: 0
Flags: HW
HStem: -43 281<7 170.428>
LayerCount: 2
UndoRedoHistory
Layer: 1
Undoes
EndUndoes
Redoes
EndRedoes
EndUndoRedoHistory
Fore
SplineSet
7 -43 m 1
 205 -43 l 2
 510 -43 593 96 599 363 c 1
 600 1658 l 1
 194 1658 l 1
 194 381 l 2
 194 259 142 235 7 238 c 1
 7 -43 l 1
EndSplineSet
EndChar

StartChar: afii10058
Encoding: 367 1033 173
Width: 1850
VWidth: 0
Flags: HW
HStem: 0 282<19 188.814>
VStem: 1439 374<306.145 627.524>
LayerCount: 2
UndoRedoHistory
Layer: 1
Undoes
EndUndoes
Redoes
EndRedoes
EndUndoRedoHistory
Fore
SplineSet
1258 263 m 1
 1258 676 l 1
 1288 676 l 2
 1411 676 1435 580 1439 487 c 0
 1445 348 1410 263 1292 263 c 2
 1258 263 l 1
19 0 m 1
 174 0 l 1
 493 -1 622 99 652 544 c 2
 705 1347 l 1
 853 1347 l 1
 853 0 l 1
 1289 0 l 2
 1562 0 1813 57 1813 478 c 0
 1813 795 1636 955 1335 955 c 2
 1258 955 l 1
 1258 1658 l 1
 336 1658 l 1
 255 553 l 2
 236 303 191 281 19 282 c 1
 19 0 l 1
EndSplineSet
EndChar

StartChar: afii10059
Encoding: 368 1034 174
Width: 1741
VWidth: 0
Flags: HW
VStem: 1302 374<306.145 627.524>
LayerCount: 2
UndoRedoHistory
Layer: 1
Undoes
EndUndoes
Redoes
EndRedoes
EndUndoRedoHistory
Fore
SplineSet
1129 263 m 1
 1129 676 l 1
 1150 676 l 2
 1274 676 1298 580 1302 487 c 0
 1308 348 1273 263 1154 263 c 2
 1129 263 l 1
1152 0 m 1
 1424 0 1676 57 1676 478 c 0
 1676 795 1499 955 1198 955 c 2
 1129 955 l 1
 1129 1660 l 1
 723 1660 l 1
 723 984 l 1
 535 984 l 1
 535 1660 l 1
 130 1660 l 1
 130 2 l 1
 535 2 l 1
 535 674 l 1
 723 674 l 1
 723 2 l 1
 1152 0 l 1
EndSplineSet
EndChar

StartChar: afii10060
Encoding: 369 1035 175
Width: 1265
VWidth: 0
Flags: HW
HStem: 780 210<665.906 788.041>
LayerCount: 2
UndoRedoHistory
Layer: 1
Undoes
EndUndoes
Redoes
EndRedoes
EndUndoRedoHistory
Fore
SplineSet
236 0 m 1
 641 0 l 1
 641 753 l 1
 675 771 708 779 732 780 c 0
 777 782 789 759 789 719 c 2
 789 0 l 1
 1156 0 l 1
 1156 754 l 2
 1156 895 1065 990 900 990 c 0
 770 990 641 936 641 936 c 1
 641 1358 l 1
 866 1358 l 1
 866 1658 l 1
 16 1658 l 1
 16 1358 l 1
 236 1358 l 1
 236 0 l 1
EndSplineSet
EndChar

StartChar: afii10066
Encoding: 373 1073 179
Width: 1015
VWidth: 0
Flags: HW
HStem: -20 228<455.842 574.944> 972 206<457.479 735>
VStem: 89 352<221.56 484 808 964.968> 89 328<1130 1354.95> 591 342<220.678 485 729 966.882>
LayerCount: 2
UndoRedoHistory
Layer: 1
Undoes
EndUndoes
Redoes
EndRedoes
EndUndoRedoHistory
Fore
SplineSet
519 208 m 0
 444 208 441 251 441 484 c 2
 441 808 l 1
 443 933 464 972 517 972 c 0
 582 972 591 929 591 801 c 2
 591 485 l 2
 591 247 589 208 519 208 c 0
505 -20 m 0
 762 -24 933 57 933 421 c 2
 933 729 l 2
 933 1053 853 1178 617 1178 c 0
 551 1178 470 1157 417 1130 c 1
 418 1190 l 1
 422 1500 540 1346 843 1490 c 1
 841 1766 l 1
 456 1601 89 1724 89 1122 c 2
 89 468 l 2
 89 165 141 -15 505 -20 c 0
EndSplineSet
EndChar

StartChar: afii10067
Encoding: 374 1074 180
Width: 1087
VWidth: 0
Flags: HW
HStem: 0 190<516 636.925> 533 187<516 624.706> 1007 177<521 616.665>
VStem: 641 357<732.966 987.975> 670 357<211.893 511.154>
LayerCount: 2
UndoRedoHistory
Layer: 1
Undoes
EndUndoes
Redoes
EndRedoes
EndUndoRedoHistory
Fore
SplineSet
469 720 m 1
 469 1007 l 1
 521 1007 l 2
 633 1007 641 938 641 857 c 0
 641 777 623 720 544 720 c 2
 469 720 l 1
469 190 m 1
 469 533 l 1
 516 533 l 2
 609 533 670 533 670 353 c 0
 670 191 605 190 516 190 c 2
 469 190 l 1
102 0 m 1
 522 0 l 2
 899 0 1027 102 1027 343 c 0
 1027 501 985 594 806 642 c 1
 912 668 998 718 998 885 c 0
 998 1067 939 1184 547 1184 c 2
 102 1184 l 1
 102 0 l 1
EndSplineSet
EndChar

StartChar: afii10068
Encoding: 375 1075 181
Width: 757
VWidth: 0
Flags: HW
VStem: 102 623
LayerCount: 2
UndoRedoHistory
Layer: 1
Undoes
EndUndoes
Redoes
EndRedoes
EndUndoRedoHistory
Fore
SplineSet
102 0 m 1
 469 0 l 1
 469 941 l 1
 725 941 l 1
 725 1184 l 1
 102 1184 l 1
 102 0 l 1
EndSplineSet
EndChar

StartChar: afii10069
Encoding: 376 1076 182
Width: 1309
VWidth: 0
Flags: HW
HStem: -20 20G<368.777 991.407>
VStem: 84 266<-327 -92.6064> 1013 262<-327 -123.179>
LayerCount: 2
UndoRedoHistory
Layer: 1
Undoes
EndUndoes
Redoes
EndRedoes
EndUndoRedoHistory
Fore
SplineSet
488 220 m 1
 572 296 631 424 649 644 c 1
 679 972 l 1
 764 972 l 1
 764 220 l 1
 488 220 l 1
84 -327 m 1
 350 -327 l 1
 370 0 l 1
 990 0 l 1
 1013 -327 l 1
 1275 -327 l 1
 1275 220 l 1
 1096 220 l 1
 1096 1184 l 1
 410 1184 l 1
 367 731 l 1
 343 461 266 292 84 219 c 1
 84 -327 l 1
EndSplineSet
EndChar

StartChar: afii10072
Encoding: 379 1078 185
Width: 1400
VWidth: 0
Flags: HW
LayerCount: 2
UndoRedoHistory
Layer: 1
Undoes
EndUndoes
Redoes
EndRedoes
EndUndoRedoHistory
Fore
SplineSet
16 0 m 1
 314 0 l 1
 513 569 l 1
 538 569 l 1
 538 0 l 1
 845 0 l 1
 845 569 l 1
 869 569 l 1
 1086 0 l 1
 1384 0 l 1
 1150 593 l 1
 1372 1184 l 1
 1057 1184 l 1
 869 625 l 1
 845 625 l 1
 845 1184 l 1
 538 1184 l 1
 538 625 l 1
 513 625 l 1
 343 1184 l 1
 28 1184 l 1
 233 593 l 1
 16 0 l 1
EndSplineSet
EndChar

StartChar: afii10073
Encoding: 380 1079 186
Width: 967
VWidth: 0
Flags: HW
HStem: -22 249<395.901 574.274> 525 178<382 550.148> 956 250<382.943 556.732>
VStem: 78 289<257.691 401 805 941.953> 572 333<728.403 941.428> 601 312<250.982 482.407>
LayerCount: 2
UndoRedoHistory
Layer: 1
Undoes
EndUndoes
Redoes
EndRedoes
EndUndoRedoHistory
Fore
SplineSet
475 -22 m 0
 787 -22 913 133 913 325 c 0
 913 501 844 571 739 615 c 1
 833 648 905 725 905 869 c 0
 905 1062 784 1206 490 1206 c 0
 142 1206 77 1002 77 805 c 1
 363 805 l 1
 363 914 388 956 472 956 c 0
 550 956 572 908 572 837 c 0
 572 738 541 703 382 703 c 1
 382 525 l 1
 542 525 601 476 601 370 c 0
 601 288 573 227 486 227 c 0
 402 227 367 285 367 401 c 1
 78 401 l 1
 78 196 117 -22 475 -22 c 0
EndSplineSet
EndChar

StartChar: afii10074
Encoding: 381 1080 187
Width: 1072
VWidth: 0
Flags: HW
LayerCount: 2
UndoRedoHistory
Layer: 1
Undoes
EndUndoes
Redoes
EndRedoes
EndUndoRedoHistory
Fore
SplineSet
102 0 m 1
 389 0 l 1
 676 575 l 1
 676 0 l 1
 970 0 l 1
 970 1184 l 1
 686 1184 l 1
 390 597 l 1
 390 1184 l 1
 102 1184 l 1
 102 0 l 1
EndSplineSet
EndChar

StartChar: afii10076
Encoding: 383 1082 189
Width: 1109
VWidth: 0
Flags: HW
LayerCount: 2
UndoRedoHistory
Layer: 1
Undoes
EndUndoes
Redoes
EndRedoes
EndUndoRedoHistory
Fore
SplineSet
102 0 m 1
 469 0 l 1
 469 517 l 1
 515 517 l 1
 698 0 l 1
 1088 0 l 1
 849 629 l 1
 1082 1184 l 1
 682 1184 l 1
 515 727 l 1
 469 727 l 1
 469 1184 l 1
 102 1184 l 1
 102 0 l 1
EndSplineSet
EndChar

StartChar: afii10077
Encoding: 384 1083 190
Width: 1210
VWidth: 0
Flags: HW
HStem: 0 243<24 202.134>
LayerCount: 2
UndoRedoHistory
Layer: 1
Undoes
EndUndoes
Redoes
EndRedoes
EndUndoRedoHistory
Fore
SplineSet
24 0 m 1
 98 -9 157 -14 212 -14 c 0
 448 -14 551 71 587 494 c 2
 626 941 l 1
 741 941 l 1
 741 0 l 1
 1107 0 l 1
 1107 1184 l 1
 317 1184 l 1
 260 539 l 2
 240 306 221 214 24 243 c 1
 24 0 l 1
EndSplineSet
EndChar

StartChar: afii10078
Encoding: 385 1084 191
Width: 1222
VWidth: 0
Flags: HW
LayerCount: 2
UndoRedoHistory
Layer: 1
Undoes
EndUndoes
Redoes
EndRedoes
EndUndoRedoHistory
Fore
SplineSet
102 0 m 1
 385 0 l 1
 385 602 l 1
 558 204 l 1
 665 204 l 1
 837 599 l 1
 837 0 l 1
 1120 0 l 1
 1119 1184 l 1
 847 1184 l 1
 611 664 l 1
 374 1184 l 1
 103 1184 l 1
 102 0 l 1
EndSplineSet
EndChar

StartChar: afii10079
Encoding: 386 1085 192
Width: 1115
VWidth: 0
Flags: HW
LayerCount: 2
UndoRedoHistory
Layer: 1
Undoes
EndUndoes
Redoes
EndRedoes
EndUndoRedoHistory
Fore
SplineSet
102 0 m 1
 469 0 l 1
 469 488 l 1
 646 488 l 1
 646 0 l 1
 1013 0 l 1
 1013 1184 l 1
 646 1184 l 1
 646 737 l 1
 469 737 l 1
 469 1184 l 1
 102 1184 l 1
 102 0 l 1
EndSplineSet
EndChar

StartChar: afii10081
Encoding: 388 1087 194
Width: 1088
VWidth: 0
Flags: HW
LayerCount: 2
UndoRedoHistory
Layer: 1
Undoes
EndUndoes
Redoes
EndRedoes
EndUndoRedoHistory
Fore
SplineSet
102 0 m 1
 469 0 l 1
 469 939 l 1
 619 939 l 1
 619 0 l 1
 986 0 l 1
 986 1184 l 1
 102 1184 l 1
 102 0 l 1
EndSplineSet
EndChar

StartChar: afii10084
Encoding: 391 1090 197
Width: 864
VWidth: 0
Flags: HW
LayerCount: 2
UndoRedoHistory
Layer: 1
Undoes
EndUndoes
Redoes
EndRedoes
EndUndoRedoHistory
Fore
SplineSet
248 0 m 1
 615 0 l 1
 615 941 l 1
 827 941 l 1
 827 1184 l 1
 36 1184 l 1
 36 941 l 1
 248 941 l 1
 248 0 l 1
EndSplineSet
EndChar

StartChar: afii10085
Encoding: 392 1091 198
Width: 1006
VWidth: 0
Flags: HW
HStem: -402 253<133 323.721>
LayerCount: 2
UndoRedoHistory
Layer: 1
Undoes
EndUndoes
Redoes
EndRedoes
EndUndoRedoHistory
Fore
SplineSet
133 -402 m 1
 570 -402 589 -334 670 -29 c 2
 991 1184 l 1
 673 1184 l 1
 590 807 l 1
 508 440 l 1
 421 807 l 1
 331 1184 l 1
 23 1184 l 1
 326 55 l 1
 367 -117 366 -149 99 -149 c 1
 133 -402 l 1
EndSplineSet
EndChar

StartChar: afii10086
Encoding: 393 1092 199
Width: 1480
VWidth: 0
Flags: HW
HStem: 2 211<472.65 551 922 1005.52> 986 197<474.818 551 922 1007.19>
VStem: 84 344<250.408 413 783 945.001> 1052 344<259.956 413 783 934.929>
LayerCount: 2
UndoRedoHistory
Layer: 1
Undoes
EndUndoes
Redoes
EndRedoes
EndUndoRedoHistory
Fore
SplineSet
922 213 m 2
 895 213 l 1
 895 986 l 1
 922 986 l 2
 989 986 1052 916 1052 808 c 2
 1052 382 l 2
 1052 285 984 213 922 213 c 2
551 213 m 2
 480 213 428 285 428 382 c 2
 428 808 l 2
 428 916 484 986 551 986 c 2
 581 986 l 1
 581 213 l 1
 551 213 l 2
581 -342 m 1
 895 -342 l 1
 895 2 l 1
 940 2 l 2
 1106 2 1396 103 1396 413 c 2
 1396 783 l 2
 1396 1065 1148 1183 937 1183 c 2
 895 1183 l 1
 895 1657 l 1
 581 1657 l 1
 581 1183 l 1
 544 1183 l 2
 337 1183 84 1065 84 783 c 2
 84 413 l 2
 84 103 369 2 542 2 c 2
 581 2 l 1
 581 -342 l 1
EndSplineSet
EndChar

StartChar: afii10088
Encoding: 395 1094 201
Width: 1211
VWidth: 0
Flags: HW
VStem: 900 262<-327 -123.179>
LayerCount: 2
UndoRedoHistory
Layer: 1
Undoes
EndUndoes
Redoes
EndRedoes
EndUndoRedoHistory
Fore
SplineSet
900 -327 m 1
 1162 -327 l 1
 1162 220 l 1
 983 220 l 1
 983 1184 l 1
 616 1184 l 1
 616 220 l 1
 468 220 l 1
 468 1184 l 1
 101 1184 l 1
 101 0 l 1
 877 0 l 1
 900 -327 l 1
EndSplineSet
EndChar

StartChar: afii10089
Encoding: 396 1095 202
Width: 1053
VWidth: 0
Flags: HW
HStem: 476 198<474.124 584>
LayerCount: 2
UndoRedoHistory
Layer: 1
Undoes
EndUndoes
Redoes
EndRedoes
EndUndoRedoHistory
Fore
SplineSet
584 0 m 1
 950 0 l 1
 950 1184 l 1
 584 1184 l 1
 584 674 l 1
 576 674 569 674 562 674 c 0
 466 678 447 713 447 798 c 2
 447 1184 l 1
 81 1184 l 1
 81 772 l 2
 81 604 147 476 490 476 c 0
 520 476 551 477 584 480 c 1
 584 0 l 1
EndSplineSet
EndChar

StartChar: afii10090
Encoding: 397 1096 203
Width: 1509
VWidth: 0
Flags: HW
LayerCount: 2
UndoRedoHistory
Layer: 1
Undoes
EndUndoes
Redoes
EndRedoes
EndUndoRedoHistory
Fore
SplineSet
102 0 m 1
 1407 0 l 1
 1407 1184 l 1
 1066 1184 l 1
 1066 245 l 1
 925 245 l 1
 925 1184 l 1
 584 1184 l 1
 584 245 l 1
 443 245 l 1
 443 1184 l 1
 102 1184 l 1
 102 0 l 1
EndSplineSet
EndChar

StartChar: afii10091
Encoding: 398 1097 204
Width: 1656
VWidth: 0
Flags: HW
VStem: 1326 262<-327 -123.179>
LayerCount: 2
UndoRedoHistory
Layer: 1
Undoes
EndUndoes
Redoes
EndRedoes
EndUndoRedoHistory
Fore
SplineSet
1326 -327 m 1
 1588 -327 l 1
 1588 220 l 1
 1408 220 l 1
 1408 1184 l 1
 1064 1184 l 1
 1064 220 l 1
 926 220 l 1
 926 1184 l 1
 582 1184 l 1
 582 220 l 1
 446 220 l 1
 446 1184 l 1
 102 1184 l 1
 102 0 l 1
 1303 0 l 1
 1326 -327 l 1
EndSplineSet
EndChar

StartChar: afii10092
Encoding: 399 1098 205
Width: 1187
VWidth: 0
Flags: HW
HStem: 0 208<611 755.583> 495 217<608 751.444>
VStem: 793 333<239.916 458.582>
LayerCount: 2
UndoRedoHistory
Layer: 1
Undoes
EndUndoes
Redoes
EndRedoes
EndUndoRedoHistory
Fore
SplineSet
603 208 m 1
 603 495 l 1
 612 495 l 1
 734 493 793 464 793 343 c 0
 793 246 742 211 611 208 c 1
 603 208 l 1
237 0 m 1
 616 0 l 2
 976 0 1126 101 1126 346 c 0
 1126 628 936 712 608 712 c 2
 603 712 l 1
 603 1184 l 1
 18 1184 l 1
 18 941 l 1
 237 941 l 1
 237 0 l 1
EndSplineSet
EndChar

StartChar: afii10093
Encoding: 400 1099 206
Width: 1585
VWidth: 0
Flags: HW
HStem: 0 208<476 620.583> 495 217<474 617.379>
VStem: 658 333<239.734 463.873>
LayerCount: 2
UndoRedoHistory
Layer: 1
Undoes
EndUndoes
Redoes
EndRedoes
EndUndoRedoHistory
Fore
SplineSet
1116 0 m 1
 1483 0 l 1
 1483 1184 l 1
 1116 1184 l 1
 1116 0 l 1
469 208 m 1
 469 495 l 1
 472 495 475 495 477 495 c 0
 600 493 658 464 658 343 c 0
 658 245 607 211 476 208 c 0
 474 208 471 208 469 208 c 1
102 0 m 1
 481 0 l 2
 841 0 991 101 991 346 c 0
 991 628 802 712 474 712 c 0
 473 712 469 712 469 712 c 1
 469 1184 l 1
 102 1184 l 1
 102 0 l 1
EndSplineSet
EndChar

StartChar: afii10094
Encoding: 401 1100 207
Width: 1052
VWidth: 0
Flags: HW
HStem: 0 208<476 620.583> 495 217<474 617.379>
VStem: 658 333<239.734 463.873>
LayerCount: 2
UndoRedoHistory
Layer: 1
Undoes
EndUndoes
Redoes
EndRedoes
EndUndoRedoHistory
Fore
SplineSet
469 208 m 1
 469 495 l 1
 472 495 475 495 477 495 c 0
 600 493 658 464 658 343 c 0
 658 245 607 211 476 208 c 0
 474 208 471 208 469 208 c 1
102 0 m 1
 481 0 l 2
 841 0 991 101 991 346 c 0
 991 628 802 712 474 712 c 0
 473 712 469 712 469 712 c 1
 469 1184 l 1
 102 1184 l 1
 102 0 l 1
EndSplineSet
EndChar

StartChar: afii10095
Encoding: 402 1101 208
Width: 1014
VWidth: 0
Flags: HW
HStem: -22 258<450.248 556.984> 946 260<450.178 556.883>
VStem: 567 369<247.104 351 831 935.028>
LayerCount: 2
UndoRedoHistory
Layer: 1
Undoes
EndUndoes
Redoes
EndRedoes
EndUndoRedoHistory
Fore
SplineSet
508 -22 m 0
 758 -22 936 113 936 351 c 2
 936 831 l 2
 936 1069 758 1206 508 1206 c 0
 260 1206 86 1089 86 852 c 2
 86 762 l 1
 444 762 l 1
 444 854 l 2
 444 932 473 946 508 946 c 0
 540 946 567 923 567 845 c 2
 567 655 l 1
 300 655 l 1
 300 509 l 1
 567 509 l 1
 567 338 l 2
 567 259 541 236 508 236 c 0
 474 236 444 248 444 328 c 2
 444 399 l 1
 86 399 l 1
 86 330 l 2
 86 93 260 -22 508 -22 c 0
EndSplineSet
EndChar

StartChar: afii10096
Encoding: 403 1102 209
Width: 1512
VWidth: 0
Flags: HW
HStem: -22 260<960.641 1075.94> 946 260<960.641 1075.94>
VStem: 605 346<242.365 352 832 941.635> 1088 346<242.031 352 832 941.635>
LayerCount: 2
UndoRedoHistory
Layer: 1
Undoes
EndUndoes
Redoes
EndRedoes
EndUndoRedoHistory
Fore
SplineSet
1018 238 m 0
 973 238 951 270 951 345 c 2
 951 839 l 2
 951 914 973 946 1018 946 c 0
 1066 946 1088 917 1088 839 c 2
 1088 345 l 2
 1088 267 1066 238 1018 238 c 0
1017 -22 m 0
 1256 -22 1434 96 1434 352 c 2
 1434 832 l 2
 1434 1087 1256 1206 1017 1206 c 0
 779 1206 605 1087 605 832 c 2
 605 725 l 1
 468 725 l 1
 468 1184 l 1
 102 1184 l 1
 102 0 l 1
 468 0 l 1
 468 464 l 1
 605 464 l 1
 605 352 l 2
 605 97 779 -22 1017 -22 c 0
EndSplineSet
EndChar

StartChar: afii10097
Encoding: 404 1103 210
Width: 1107
VWidth: 0
Flags: HW
HStem: 411 216<541 629> 976 208<474.401 629>
VStem: 72 333<689.616 918.882>
LayerCount: 2
UndoRedoHistory
Layer: 1
Undoes
EndUndoes
Redoes
EndRedoes
EndUndoRedoHistory
Fore
SplineSet
629 627 m 2
 497 627 405 686 405 812 c 0
 405 913 488 976 629 976 c 2
 638 976 l 1
 638 627 l 1
 629 627 l 2
38 0 m 1
 427 0 l 1
 541 411 l 1
 564 410 637 410 638 410 c 1
 638 0 l 1
 1005 0 l 1
 1005 1184 l 1
 503 1184 l 2
 192 1184 72 1015 72 809 c 0
 72 666 120 543 210 487 c 1
 38 0 l 1
EndSplineSet
EndChar

StartChar: afii10098
Encoding: 405 1169 211
Width: 758
VWidth: 0
Flags: HW
VStem: 102 636
LayerCount: 2
UndoRedoHistory
Layer: 1
Undoes
EndUndoes
Redoes
EndRedoes
EndUndoRedoHistory
Fore
SplineSet
102 0 m 1
 469 0 l 1
 469 941 l 1
 738 941 l 1
 738 1451 l 1
 552 1451 l 1
 552 1184 l 1
 102 1184 l 1
 102 0 l 1
EndSplineSet
EndChar

StartChar: afii10099
Encoding: 406 1106 212
Width: 1078
VWidth: 0
Flags: HW
HStem: -337 171<432 561.28> 734 246<502.916 840>
VStem: 636 367<-80.8209 210 569 722.234>
LayerCount: 2
UndoRedoHistory
Layer: 1
Undoes
EndUndoes
Redoes
EndRedoes
EndUndoRedoHistory
Fore
SplineSet
391 -337 m 1
 433 -337 l 2
 853 -337 1003 -245 1003 210 c 2
 1003 569 l 2
 1003 780 956 980 724 980 c 0
 655 980 572 962 477 926 c 1
 477 1199 l 1
 727 1199 l 1
 727 1374 l 1
 477 1374 l 1
 477 1658 l 1
 111 1658 l 1
 111 1374 l 1
 -15 1374 l 1
 -15 1199 l 1
 111 1199 l 1
 111 0 l 1
 477 0 l 1
 477 710 l 1
 510 726 539 734 563 734 c 0
 619 734 636 685 636 602 c 2
 636 208 l 2
 636 -6 628 -166 432 -166 c 2
 391 -166 l 1
 391 -337 l 1
EndSplineSet
EndChar

StartChar: afii10101
Encoding: 408 1108 214
Width: 982
VWidth: 0
Flags: HW
HStem: -22 260<457.132 563.93> 948 258<457.117 563.922>
VStem: 78 369<248.972 353 833 936.896>
LayerCount: 2
UndoRedoHistory
Layer: 1
Undoes
EndUndoes
Redoes
EndRedoes
EndUndoRedoHistory
Fore
SplineSet
506 -22 m 0
 755 -22 928 95 928 332 c 2
 928 451 l 1
 570 451 l 1
 570 330 l 2
 570 252 541 238 507 238 c 0
 474 238 447 261 447 339 c 2
 447 529 l 1
 715 529 l 1
 715 676 l 1
 447 676 l 1
 447 846 l 2
 447 925 474 948 506 948 c 0
 541 948 570 935 570 856 c 2
 570 757 l 1
 928 757 l 1
 928 854 l 2
 928 1091 755 1206 506 1206 c 0
 256 1206 78 1071 78 833 c 2
 78 353 l 2
 78 115 256 -22 506 -22 c 0
EndSplineSet
EndChar

StartChar: afii10103
Encoding: 410 1110 216
Width: 532
VWidth: 0
Flags: HW
LayerCount: 2
UndoRedoHistory
Layer: 1
Undoes
EndUndoes
Redoes
EndRedoes
EndUndoRedoHistory
Fore
SplineSet
86 1389 m 1
 455 1389 l 1
 455 1624 l 1
 86 1624 l 1
 86 1389 l 1
88 0 m 1
 455 0 l 1
 455 1184 l 1
 88 1184 l 1
 88 0 l 1
EndSplineSet
EndChar

StartChar: afii10105
Encoding: 412 1112 218
Width: 546
VWidth: 0
Flags: HW
HStem: -389 284<-16.0774 283>
LayerCount: 2
UndoRedoHistory
Layer: 1
Undoes
EndUndoes
Redoes
EndRedoes
EndUndoRedoHistory
Fore
SplineSet
121 1390 m 1
 489 1390 l 1
 489 1625 l 1
 121 1625 l 1
 121 1390 l 1
-18 -359 m 1
 44 -376 108 -389 179 -389 c 0
 387 -389 489 -250 489 -63 c 2
 489 1184 l 1
 123 1184 l 1
 123 -17 l 2
 123 -85 86 -105 41 -105 c 0
 22 -105 2 -100 -18 -96 c 1
 -18 -359 l 1
EndSplineSet
EndChar

StartChar: afii10106
Encoding: 413 1113 219
Width: 1749
VWidth: 0
Flags: HW
HStem: 0 243<89 264.25> 0 208<1180 1325.85> 495 217<1178 1321.98>
VStem: 1362 333<239.541 462.998>
LayerCount: 2
UndoRedoHistory
Layer: 1
Undoes
EndUndoes
Redoes
EndRedoes
EndUndoRedoHistory
Fore
SplineSet
1171 208 m 1
 1171 495 l 1
 1173 495 1176 495 1178 495 c 0
 1302 494 1362 465 1362 343 c 0
 1362 245 1311 210 1180 208 c 0
 1177 208 1174 208 1171 208 c 1
89 0 m 1
 130 -6 169 -10 204 -12 c 0
 541 -36 623 79 660 589 c 1
 690 941 l 1
 805 941 l 1
 805 0 l 1
 1187 0 l 2
 1545 0 1695 101 1695 346 c 0
 1695 627 1506 712 1179 712 c 2
 1171 712 l 1
 1171 1184 l 1
 381 1184 l 1
 337 673 l 1
 304 250 277 225 89 243 c 1
 89 0 l 1
EndSplineSet
EndChar

StartChar: afii10107
Encoding: 414 1114 220
Width: 1542
VWidth: 0
Flags: HW
HStem: 2 208<985 1122.7> 497 217<993 1114.9>
VStem: 1156 333<242.539 463.223>
LayerCount: 2
UndoRedoHistory
Layer: 1
Undoes
EndUndoes
Redoes
EndRedoes
EndUndoRedoHistory
Fore
SplineSet
985 210 m 1
 985 497 l 1
 988 497 990 497 993 497 c 0
 1103 492 1156 460 1156 345 c 0
 1156 252 1110 216 994 211 c 0
 991 211 988 210 985 210 c 1
102 0 m 1
 469 0 l 1
 469 405 l 1
 618 405 l 1
 618 2 l 1
 985 2 l 1
 1340 3 1489 104 1489 348 c 0
 1489 619 1313 708 1006 714 c 0
 999 714 992 714 985 714 c 1
 985 1186 l 1
 618 1186 l 1
 618 714 l 1
 469 714 l 1
 469 1184 l 1
 102 1184 l 1
 102 0 l 1
EndSplineSet
EndChar

StartChar: afii10108
Encoding: 415 1115 221
Width: 1097
VWidth: 0
Flags: HW
HStem: 734 246<502.994 840>
LayerCount: 2
UndoRedoHistory
Layer: 1
Undoes
EndUndoes
Redoes
EndRedoes
EndUndoRedoHistory
Fore
SplineSet
111 0 m 1
 477 0 l 1
 477 710 l 1
 510 726 540 734 563 734 c 0
 619 734 636 685 636 602 c 2
 636 0 l 1
 1003 0 l 1
 1003 569 l 2
 1003 780 956 980 724 980 c 0
 655 980 572 962 477 926 c 1
 477 1199 l 1
 727 1199 l 1
 727 1374 l 1
 477 1374 l 1
 477 1658 l 1
 111 1658 l 1
 111 1374 l 1
 -15 1374 l 1
 -15 1199 l 1
 111 1199 l 1
 111 0 l 1
EndSplineSet
EndChar

StartChar: afii10145
Encoding: 418 1039 224
Width: 1258
VWidth: 0
Flags: HW
LayerCount: 2
UndoRedoHistory
Layer: 1
Undoes
EndUndoes
Redoes
EndRedoes
EndUndoRedoHistory
Fore
SplineSet
488 -375 m 1
 778 -375 l 1
 792 0 l 1
 1137 0 l 1
 1137 1658 l 1
 732 1658 l 1
 732 310 l 1
 526 310 l 1
 526 1658 l 1
 120 1658 l 1
 120 0 l 1
 475 0 l 1
 488 -375 l 1
EndSplineSet
EndChar

StartChar: afii10193
Encoding: 419 1119 225
Width: 1103
VWidth: 0
Flags: HW
VStem: 432 261<-328 -123.556>
LayerCount: 2
UndoRedoHistory
Layer: 1
Undoes
EndUndoes
Redoes
EndRedoes
EndUndoRedoHistory
Fore
SplineSet
432 -328 m 1
 693 -328 l 1
 714 0 l 1
 1000 0 l 1
 1000 1184 l 1
 634 1184 l 1
 634 218 l 1
 469 218 l 1
 469 1184 l 1
 102 1184 l 1
 102 0 l 1
 409 0 l 1
 432 -328 l 1
EndSplineSet
EndChar

StartChar: afii61289
Encoding: 420 8467 226
Width: 1327
VWidth: 0
Flags: HW
LayerCount: 2
UndoRedoHistory
Layer: 1
Undoes
EndUndoes
Redoes
EndRedoes
EndUndoRedoHistory
Fore
SplineSet
803 1135 m 1
 877 1595 l 2
 914 1829 1294 1747 803 1135 c 1
471 483 m 1
 452 358 l 2
 385 -91 818 -131 1070 148 c 1
 970 287 l 1
 807 105 639 119 677 359 c 2
 747 790 l 1
 900 961 l 1
 1852 2019 728 2196 638 1595 c 2
 519 803 l 1
 191 423 l 1
 299 292 l 1
 471 483 l 1
EndSplineSet
EndChar

StartChar: ampersand
Encoding: 38 38 230
Width: 1145
VWidth: 0
Flags: HW
HStem: -29 237<392.938 581.501> 1435 251<439.493 580.56>
VStem: 70 276<251.773 581.139> 139 286<1133.84 1424.32> 596 270<1171.12 1421.8> 828 227<508.439 831>
LayerCount: 2
UndoRedoHistory
Layer: 1
Undoes
EndUndoes
Redoes
EndRedoes
EndUndoRedoHistory
Fore
SplineSet
495 1030 m 1
 487 1081 425 1247 425 1336 c 0
 425 1401 465 1435 509 1435 c 0
 553 1435 596 1402 596 1341 c 0
 596 1253 519 1092 495 1030 c 1
463 208 m 0
 415 208 346 274 346 397 c 0
 346 467 368 553 426 653 c 1
 449 597 594 266 594 266 c 1
 554 211 506 208 463 208 c 0
456 -29 m 0
 570 -29 679 16 751 106 c 1
 817 48 904 -35 1001 -35 c 0
 1025 -35 1046 -29 1068 -24 c 1
 1068 222 l 1
 1018 228 965 254 941 284 c 1
 1015 435 1055 566 1055 831 c 1
 828 831 l 1
 827 725 806 537 772 482 c 1
 594 837 l 1
 706 964 866 1085 866 1320 c 0
 866 1548 704 1686 491 1686 c 0
 272 1686 139 1515 139 1315 c 0
 139 1173 228 1054 302 897 c 1
 178 772 70 560 70 366 c 0
 70 134 233 -29 456 -29 c 0
EndSplineSet
EndChar

StartChar: approxequal
Encoding: 424 8776 232
Width: 1006
VWidth: 0
Flags: HW
HStem: 377 250<554.911 755.133> 499 248<249.739 458.464> 838 250<554.911 755.133> 960 248<249.739 458.464>
LayerCount: 2
UndoRedoHistory
Layer: 1
Undoes
EndUndoes
Redoes
EndRedoes
EndUndoRedoHistory
Fore
SplineSet
689 838 m 0
 789 838 895 955 937 1067 c 1
 811 1190 l 1
 767 1136 710 1088 674 1088 c 0
 605 1088 445 1208 325 1208 c 0
 231 1208 135 1100 85 1004 c 1
 198 855 l 1
 243 927 307 960 335 960 c 0
 409 960 569 838 689 838 c 0
689 377 m 0
 789 377 895 494 937 606 c 1
 811 729 l 1
 767 675 710 627 674 627 c 0
 605 627 445 747 325 747 c 0
 231 747 135 639 85 543 c 1
 198 394 l 1
 243 466 307 499 335 499 c 0
 409 499 569 377 689 377 c 0
EndSplineSet
EndChar

StartChar: asciicircum
Encoding: 94 94 234
Width: 993
VWidth: 0
Flags: HW
LayerCount: 2
UndoRedoHistory
Layer: 1
Undoes
EndUndoes
Redoes
EndRedoes
EndUndoRedoHistory
Fore
SplineSet
59 966 m 1
 360 966 l 1
 495 1338 l 1
 631 966 l 1
 935 966 l 1
 634 1658 l 1
 358 1658 l 1
 59 966 l 1
EndSplineSet
EndChar

StartChar: asciitilde
Encoding: 126 126 235
Width: 1006
VWidth: 0
Flags: HW
HStem: 663 250<554.911 755.133> 785 248<249.739 458.464>
LayerCount: 2
UndoRedoHistory
Layer: 1
Undoes
EndUndoes
Redoes
EndRedoes
EndUndoRedoHistory
Fore
SplineSet
689 663 m 0
 789 663 895 779 937 891 c 1
 811 1015 l 1
 767 960 710 913 674 913 c 0
 605 913 445 1033 325 1033 c 0
 231 1033 135 925 85 829 c 1
 198 680 l 1
 243 752 307 785 335 785 c 0
 409 785 569 663 689 663 c 0
EndSplineSet
EndChar

StartChar: asterisk
Encoding: 42 42 236
Width: 880
VWidth: 0
Flags: HW
LayerCount: 2
UndoRedoHistory
Layer: 1
Undoes
EndUndoes
Redoes
EndRedoes
EndUndoRedoHistory
Fore
SplineSet
363 911 m 1
 457 1117 l 1
 553 911 l 1
 771 1039 l 1
 625 1239 l 1
 840 1321 l 1
 759 1540 l 1
 569 1432 l 1
 594 1658 l 1
 321 1658 l 1
 348 1434 l 1
 158 1539 l 1
 77 1323 l 1
 290 1241 l 1
 148 1038 l 1
 363 911 l 1
EndSplineSet
EndChar

StartChar: at
Encoding: 64 64 237
Width: 1973
VWidth: 0
Flags: HW
HStem: -254 212<703.32 1323.88> 993 267<962.244 1099.25> 1452 207<825.251 1381.67>
VStem: 539 310<503.832 860.805>
LayerCount: 2
UndoRedoHistory
Layer: 1
Undoes
EndUndoes
Redoes
EndRedoes
EndUndoRedoHistory
Fore
SplineSet
984 462 m 1
 882 462 848 555 849 662 c 0
 851 801 914 993 1077 993 c 0
 1094 993 1141 985 1138 958 c 2
 1078 475 l 1
 1059 456 987 463 984 462 c 1
968 -254 m 0
 1128 -254 1302 -223 1456 -189 c 1
 1419 29 l 1
 1302 -12 1104 -42 1003 -42 c 0
 445 -42 296 276 370 761 c 0
 424 1121 620 1452 1103 1452 c 0
 1564 1452 1716 1192 1665 764 c 0
 1638 535 1501 373 1406 411 c 0
 1365 428 1387 565 1392 605 c 2
 1473 1250 l 1
 1176 1250 l 1
 1156 1092 l 1
 1143 1136 1116 1260 998 1260 c 0
 663 1260 550 882 539 663 c 0
 525 405 668 206 905 226 c 0
 985 233 1065 278 1101 346 c 1
 1144 244 1274 205 1385 205 c 0
 1744 205 1887 537 1913 762 c 0
 1976 1289 1729 1659 1131 1659 c 0
 542 1659 188 1271 117 759 c 1
 29 145 311 -254 968 -254 c 0
EndSplineSet
EndChar

StartChar: b
Encoding: 98 98 239
Width: 1071
VWidth: 0
Flags: HW
VStem: 618 367<217.47 310 885 990.519>
LayerCount: 2
UndoRedoHistory
Layer: 1
Undoes
EndUndoes
Redoes
EndRedoes
EndUndoRedoHistory
Fore
SplineSet
543 206 m 0
 521 206 494 216 469 231 c 1
 469 962 l 1
 496 981 524 994 543 997 c 0
 590 1003 618 963 618 918 c 2
 618 286 l 2
 618 241 591 205 543 206 c 0
737 -22 m 0
 886 -22 985 98 985 310 c 2
 985 885 l 2
 985 1091 896 1199 738 1206 c 0
 658 1210 560 1176 469 1099 c 1
 469 1658 l 1
 102 1658 l 1
 102 0 l 1
 469 0 l 1
 469 90 l 1
 555 19 650 -22 737 -22 c 0
EndSplineSet
EndChar

StartChar: backslash
Encoding: 92 92 240
Width: 897
VWidth: 0
Flags: HW
LayerCount: 2
UndoRedoHistory
Layer: 1
Undoes
EndUndoes
Redoes
EndRedoes
EndUndoRedoHistory
Fore
SplineSet
624 0 m 1
 799 0 l 1
 274 1658 l 1
 97 1658 l 1
 624 0 l 1
EndSplineSet
EndChar

StartChar: bar
Encoding: 124 124 241
Width: 551
VWidth: 0
Flags: HW
VStem: 128 294
LayerCount: 2
UndoRedoHistory
Layer: 1
Undoes
EndUndoes
Redoes
EndRedoes
EndUndoRedoHistory
Fore
SplineSet
128 -387 m 1
 422 -387 l 1
 422 1658 l 1
 129 1658 l 1
 128 -387 l 1
EndSplineSet
EndChar

StartChar: braceleft
Encoding: 123 123 242
Width: 810
VWidth: 0
Flags: HW
HStem: -396 240<606.32 742> 1461 240<606.32 742>
VStem: 239 331<-129.658 74 177 497.524 806.626 1127 1230 1433.78>
LayerCount: 2
UndoRedoHistory
Layer: 1
Undoes
EndUndoes
Redoes
EndRedoes
EndUndoRedoHistory
Fore
SplineSet
742 -396 m 1
 742 -156 l 1
 596 -156 570 -127 570 74 c 2
 570 219 l 2
 570 459 540 615 380 652 c 1
 540 689 570 845 570 1086 c 2
 570 1230 l 2
 570 1432 596 1461 742 1461 c 1
 742 1701 l 1
 285 1701 239 1566 239 1254 c 2
 239 1127 l 2
 239 815 238 785 102 785 c 1
 102 519 l 1
 238 519 239 489 239 177 c 2
 239 50 l 2
 239 -262 285 -396 742 -396 c 1
EndSplineSet
EndChar

StartChar: braceright
Encoding: 125 125 243
Width: 812
VWidth: 0
Flags: HW
HStem: -396 240<71 206.647> 1461 240<71 206.647>
VStem: 243 330<-129.658 74 177 497.524 806.626 1127 1230 1433.78>
LayerCount: 2
UndoRedoHistory
Layer: 1
Undoes
EndUndoes
Redoes
EndRedoes
EndUndoRedoHistory
Fore
SplineSet
71 -396 m 1
 528 -396 573 -262 573 50 c 2
 573 177 l 2
 573 489 575 519 710 519 c 1
 710 785 l 1
 575 785 573 815 573 1127 c 2
 573 1254 l 2
 573 1566 528 1701 71 1701 c 1
 71 1461 l 1
 217 1461 243 1432 243 1230 c 2
 243 1086 l 2
 243 845 273 689 433 652 c 1
 273 615 243 459 243 219 c 2
 243 74 l 2
 243 -127 217 -156 71 -156 c 1
 71 -396 l 1
EndSplineSet
EndChar

StartChar: bracketleft
Encoding: 91 91 244
Width: 675
VWidth: 0
Flags: HW
LayerCount: 2
UndoRedoHistory
Layer: 1
Undoes
EndUndoes
Redoes
EndRedoes
EndUndoRedoHistory
Fore
SplineSet
99 -378 m 1
 630 -378 l 1
 630 -245 l 1
 370 -245 l 1
 372 1525 l 1
 632 1525 l 1
 632 1658 l 1
 101 1658 l 1
 99 -378 l 1
EndSplineSet
EndChar

StartChar: bracketright
Encoding: 93 93 245
Width: 672
VWidth: 0
Flags: HW
LayerCount: 2
UndoRedoHistory
Layer: 1
Undoes
EndUndoes
Redoes
EndRedoes
EndUndoRedoHistory
Fore
SplineSet
42 -378 m 1
 573 -378 l 1
 571 1658 l 1
 40 1658 l 1
 40 1525 l 1
 300 1525 l 1
 302 -245 l 1
 42 -245 l 1
 42 -378 l 1
EndSplineSet
EndChar

StartChar: breve
Encoding: 425 728 246
Width: 652
VWidth: 0
Flags: HW
HStem: 1420 138<208.308 406.066>
VStem: 47 150<1571 1658> 418 149<1571.39 1658>
LayerCount: 2
UndoRedoHistory
Layer: 1
Undoes
EndUndoes
Redoes
EndRedoes
EndUndoRedoHistory
Fore
SplineSet
307 1420 m 0
 456 1420 567 1500 567 1658 c 1
 418 1658 l 1
 418 1591 388 1558 307 1558 c 0
 226 1558 197 1590 197 1658 c 1
 47 1658 l 1
 47 1499 158 1420 307 1420 c 0
EndSplineSet
EndChar

StartChar: brokenbar
Encoding: 166 166 247
Width: 447
VWidth: 0
Flags: HW
VStem: 99 249
LayerCount: 2
UndoRedoHistory
Layer: 1
Undoes
EndUndoes
Redoes
EndRedoes
EndUndoRedoHistory
Fore
SplineSet
99 824 m 1
 348 824 l 1
 348 1658 l 1
 99 1658 l 1
 99 824 l 1
99 -387 m 1
 348 -387 l 1
 348 447 l 1
 99 447 l 1
 99 -387 l 1
EndSplineSet
EndChar

StartChar: bullet
Encoding: 427 8226 248
Width: 1048
VWidth: 0
Flags: HW
HStem: 333 841<331.403 701.923>
VStem: 116 812<557.461 947.196>
LayerCount: 2
UndoRedoHistory
Layer: 1
Undoes
EndUndoes
Redoes
EndRedoes
EndUndoRedoHistory
Fore
SplineSet
520 333 m 0
 717 333 928 471 928 750 c 0
 928 1032 718 1174 520 1174 c 0
 325 1174 116 1037 116 750 c 0
 116 470 324 333 520 333 c 0
EndSplineSet
EndChar

StartChar: c
Encoding: 99 99 249
Width: 994
VWidth: 0
Flags: HW
HStem: -22 250<457.117 563.822> 958 248<457.117 563.922>
VStem: 78 369<230.015 353 833 955.801> 570 358<239.126 332 854 955.947>
AnchorPoint: "cedilla" 380 0 basechar 0
LayerCount: 2
UndoRedoHistory
Layer: 1
Undoes
EndUndoes
Redoes
EndRedoes
EndUndoRedoHistory
Fore
SplineSet
506 -22 m 0
 754 -22 928 95 928 332 c 2
 928 494 l 1
 570 494 l 1
 570 320 l 2
 570 242 541 228 506 228 c 0
 474 228 447 251 447 330 c 2
 447 856 l 2
 447 934 474 958 506 958 c 0
 541 958 570 945 570 866 c 2
 570 712 l 1
 928 712 l 1
 928 854 l 2
 928 1091 755 1206 506 1206 c 0
 256 1206 78 1071 78 833 c 2
 78 353 l 2
 78 115 256 -22 506 -22 c 0
EndSplineSet
EndChar

StartChar: caron
Encoding: 429 711 251
Width: 862
VWidth: 0
Flags: HW
HStem: 1270 388
LayerCount: 2
UndoRedoHistory
Layer: 1
Undoes
EndUndoes
Redoes
EndRedoes
EndUndoRedoHistory
Fore
SplineSet
251 1270 m 1
 601 1270 l 1
 784 1658 l 1
 528 1658 l 1
 427 1440 l 1
 330 1658 l 1
 74 1658 l 1
 251 1270 l 1
EndSplineSet
EndChar

StartChar: cedilla
Encoding: 184 184 256
Width: 578
VWidth: 0
Flags: HW
HStem: -567 153<124 364.328>
VStem: 373 230<-417.794 -298.573>
AnchorPoint: "cedilla" 120 0 mark 0
LayerCount: 2
UndoRedoHistory
Layer: 1
Undoes
EndUndoes
Redoes
EndRedoes
EndUndoRedoHistory
Fore
SplineSet
124 -567 m 1
 326 -628 603 -585 603 -356 c 1
 602 -228 473 -142 306 -141 c 1
 306 0 l 1
 180 0 l 1
 180 -257 l 1
 256 -258 373 -289 373 -375 c 0
 373 -448 189 -432 124 -414 c 1
 124 -567 l 1
EndSplineSet
EndChar

StartChar: cent
Encoding: 162 162 257
Width: 977
VWidth: 0
Flags: HW
VStem: 73 368<246.05 353 833 939.793>
LayerCount: 2
UndoRedoHistory
Layer: 1
Undoes
EndUndoes
Redoes
EndRedoes
EndUndoRedoHistory
Fore
SplineSet
454 -302 m 1
 545 -302 l 1
 545 -20 l 1
 770 -7 923 109 923 332 c 2
 923 494 l 1
 565 494 l 1
 565 330 l 2
 565 252 535 238 501 238 c 0
 468 238 441 261 441 339 c 2
 441 846 l 2
 441 925 468 948 501 948 c 0
 535 948 565 935 565 856 c 2
 565 712 l 1
 923 712 l 1
 923 854 l 2
 923 1077 770 1192 545 1204 c 1
 545 1482 l 1
 454 1482 l 1
 454 1204 l 1
 229 1188 73 1056 73 833 c 2
 73 353 l 2
 73 130 229 -4 454 -20 c 1
 454 -302 l 1
EndSplineSet
EndChar

StartChar: circumflex
Encoding: 433 710 258
Width: 869
VWidth: 0
Flags: HW
HStem: 1254 404
LayerCount: 2
UndoRedoHistory
Layer: 1
Undoes
EndUndoes
Redoes
EndRedoes
EndUndoRedoHistory
Fore
SplineSet
100 1254 m 1
 367 1254 l 1
 445 1499 l 1
 525 1254 l 1
 792 1254 l 1
 586 1658 l 1
 298 1658 l 1
 100 1254 l 1
EndSplineSet
EndChar

StartChar: colon
Encoding: 58 58 259
Width: 617
VWidth: 0
Flags: HW
VStem: 141 338
LayerCount: 2
UndoRedoHistory
Layer: 1
Undoes
EndUndoes
Redoes
EndRedoes
EndUndoRedoHistory
Fore
SplineSet
141 841 m 1
 479 841 l 1
 479 1175 l 1
 141 1175 l 1
 141 841 l 1
141 91 m 1
 479 91 l 1
 479 425 l 1
 141 425 l 1
 141 91 l 1
EndSplineSet
EndChar

StartChar: comma
Encoding: 44 44 260
Width: 519
VWidth: 0
Flags: HW
HStem: -290 110<145 227.366>
VStem: 283 149<-122.991 0>
LayerCount: 2
UndoRedoHistory
Layer: 1
Undoes
EndUndoes
Redoes
EndRedoes
EndUndoRedoHistory
Fore
SplineSet
145 -290 m 1
 336 -287 431 -166 432 53 c 1
 432 337 l 1
 91 337 l 1
 91 0 l 1
 283 0 l 1
 283 -128 201 -164 129 -180 c 1
 145 -290 l 1
EndSplineSet
EndChar

StartChar: copyright
Encoding: 169 169 261
Width: 1822
VWidth: 0
Flags: HW
HStem: -28 80<662.516 1162.74> 252 246<855.385 971.568> 1169 243<855.293 971.568> 1598 87<651.5 1173.38>
VStem: 96 95<540.491 1115.54> 1635 90<540.079 1115.54>
LayerCount: 2
UndoRedoHistory
Layer: 1
Undoes
EndUndoes
Redoes
EndRedoes
EndUndoRedoHistory
Fore
SplineSet
912 -28 m 0
 1492 -28 1725 415 1725 829 c 0
 1725 1242 1490 1685 912 1685 c 0
 332 1685 96 1242 96 829 c 0
 96 417 332 -28 912 -28 c 0
914 52 m 0
 410 52 191 436 191 827 c 0
 191 1219 410 1598 914 1598 c 0
 1415 1598 1635 1219 1635 827 c 0
 1635 436 1415 52 914 52 c 0
909 252 m 0
 1176 252 1363 363 1363 588 c 2
 1363 739 l 1
 978 739 l 1
 978 585 l 2
 978 511 946 498 909 498 c 0
 874 498 844 519 844 595 c 2
 844 1071 l 2
 844 1146 873 1169 909 1169 c 0
 946 1169 978 1156 978 1081 c 2
 978 945 l 1
 1363 945 l 1
 1363 1079 l 2
 1363 1304 1176 1412 909 1412 c 0
 640 1412 448 1284 448 1058 c 2
 448 608 l 2
 448 382 640 252 909 252 c 0
EndSplineSet
EndChar

StartChar: currency
Encoding: 164 164 262
Width: 1138
VWidth: 0
Flags: HW
HStem: 428 93<407.785 730.89> 1189 21G<256 314 824 882> 1211 93<407.785 730.89>
VStem: 136 99<693.746 1038.64> 904 98<693.746 1038.64>
LayerCount: 2
UndoRedoHistory
Layer: 1
Undoes
EndUndoes
Redoes
EndRedoes
EndUndoRedoHistory
Fore
SplineSet
569 521 m 0
 380 521 235 677 235 866 c 0
 235 1056 380 1211 569 1211 c 0
 759 1211 904 1056 904 866 c 0
 904 677 759 521 569 521 c 0
114 381 m 1
 276 543 l 1
 352 471 455 427 569 428 c 1
 683 427 786 471 862 543 c 1
 1024 381 l 1
 1054 411 l 1
 891 573 l 1
 960 650 1002 754 1002 866 c 0
 1002 979 960 1082 892 1159 c 1
 1054 1321 l 1
 1024 1351 l 1
 862 1189 l 1
 786 1261 683 1305 569 1304 c 1
 455 1305 352 1261 276 1189 c 1
 114 1351 l 1
 84 1321 l 1
 247 1159 l 1
 178 1082 136 979 136 866 c 0
 136 754 178 650 247 573 c 1
 84 411 l 1
 114 381 l 1
EndSplineSet
EndChar

StartChar: d
Encoding: 100 100 263
Width: 1068
VWidth: 0
Flags: HW
HStem: -22 225<269 534> 987 219<273.5 539>
VStem: 86 369<208.415 309 874 980.02>
LayerCount: 2
UndoRedoHistory
Layer: 1
Undoes
EndUndoes
Redoes
EndRedoes
EndUndoRedoHistory
Fore
SplineSet
525 203 m 0
 480 203 455 242 455 287 c 2
 455 892 l 2
 455 948 479 987 529 987 c 0
 549 987 576 980 599 968 c 1
 599 229 l 1
 572 213 543 203 525 203 c 0
353 -22 m 0
 435 -22 521 20 599 96 c 1
 599 0 l 1
 966 0 l 1
 966 1658 l 1
 599 1658 l 1
 599 1111 l 1
 529 1170 445 1206 356 1206 c 0
 191 1206 86 1077 86 874 c 2
 86 309 l 2
 86 98 185 -22 353 -22 c 0
EndSplineSet
EndChar

StartChar: dagger
Encoding: 434 8224 264
Width: 859
VWidth: 0
Flags: HW
LayerCount: 2
UndoRedoHistory
Layer: 1
Undoes
EndUndoes
Redoes
EndRedoes
EndUndoRedoHistory
Fore
SplineSet
291 0 m 1
 574 0 l 1
 574 982 l 1
 802 982 l 1
 802 1189 l 1
 574 1189 l 1
 574 1658 l 1
 291 1658 l 1
 291 1189 l 1
 57 1189 l 1
 57 982 l 1
 291 982 l 1
 291 0 l 1
EndSplineSet
EndChar

StartChar: daggerdbl
Encoding: 435 8225 265
Width: 859
VWidth: 0
Flags: HW
LayerCount: 2
UndoRedoHistory
Layer: 1
Undoes
EndUndoes
Redoes
EndRedoes
EndUndoRedoHistory
Fore
SplineSet
292 0 m 1
 574 0 l 1
 574 482 l 1
 802 482 l 1
 802 674 l 1
 574 674 l 1
 574 979 l 1
 802 979 l 1
 802 1185 l 1
 574 1185 l 1
 574 1658 l 1
 292 1658 l 1
 292 1185 l 1
 57 1185 l 1
 57 979 l 1
 292 979 l 1
 292 674 l 1
 57 674 l 1
 57 482 l 1
 292 482 l 1
 292 0 l 1
EndSplineSet
EndChar

StartChar: dcroat
Encoding: 437 273 267
Width: 1051
VWidth: 0
Flags: HW
HStem: -22 225<261.5 526> 987 219<265.5 531>
VStem: 78 369<208.415 309 874 980.02>
LayerCount: 2
UndoRedoHistory
Layer: 1
Undoes
EndUndoes
Redoes
EndRedoes
EndUndoRedoHistory
Fore
SplineSet
517 203 m 0
 472 203 447 242 447 287 c 2
 447 892 l 2
 447 948 471 987 521 987 c 0
 541 987 563 980 586 968 c 1
 586 229 l 1
 559 213 535 203 517 203 c 0
346 -22 m 0
 428 -22 509 20 586 96 c 1
 586 0 l 1
 953 0 l 1
 953 1395 l 1
 1046 1395 l 1
 1046 1533 l 1
 953 1533 l 1
 953 1658 l 1
 586 1658 l 1
 586 1533 l 1
 300 1533 l 1
 300 1395 l 1
 586 1395 l 1
 586 1111 l 1
 516 1170 437 1206 348 1206 c 0
 183 1206 78 1077 78 874 c 2
 78 309 l 2
 78 98 177 -22 346 -22 c 0
EndSplineSet
EndChar

StartChar: degree
Encoding: 176 176 268
Width: 1158
VWidth: 0
Flags: HW
HStem: 836 191<449.175 707.472> 1490 193<444.097 712.425>
VStem: 147 222<1105.81 1414.49> 787 224<1105.41 1414.08>
LayerCount: 2
UndoRedoHistory
Layer: 1
Undoes
EndUndoes
Redoes
EndRedoes
EndUndoRedoHistory
Fore
SplineSet
578 836 m 0
 838 836 1011 1006 1011 1260 c 0
 1011 1516 835 1683 578 1683 c 0
 321 1683 147 1516 147 1260 c 0
 147 1007 320 836 578 836 c 0
578 1027 m 0
 445 1027 369 1125 369 1260 c 0
 369 1397 445 1490 578 1490 c 0
 713 1490 787 1395 787 1260 c 0
 787 1124 712 1027 578 1027 c 0
EndSplineSet
EndChar

StartChar: dieresis
Encoding: 168 168 269
Width: 884
VWidth: 0
Flags: HW
HStem: 1334 324
LayerCount: 2
UndoRedoHistory
Layer: 1
Undoes
EndUndoes
Redoes
EndRedoes
EndUndoRedoHistory
Fore
SplineSet
537 1334 m 1
 817 1334 l 1
 817 1658 l 1
 537 1658 l 1
 537 1334 l 1
67 1334 m 1
 346 1334 l 1
 346 1658 l 1
 67 1658 l 1
 67 1334 l 1
EndSplineSet
EndChar

StartChar: divide
Encoding: 247 247 270
Width: 1000
VWidth: 0
Flags: HW
LayerCount: 2
UndoRedoHistory
Layer: 1
Undoes
EndUndoes
Redoes
EndRedoes
EndUndoRedoHistory
Fore
SplineSet
407 1089 m 1
 621 1089 l 1
 621 1350 l 1
 407 1350 l 1
 407 1089 l 1
82 771 m 1
 918 771 l 1
 918 955 l 1
 82 955 l 1
 82 771 l 1
407 364 m 1
 621 364 l 1
 621 625 l 1
 407 625 l 1
 407 364 l 1
EndSplineSet
EndChar

StartChar: dollar
Encoding: 36 36 271
Width: 990
VWidth: 0
Flags: HW
VStem: 34 397<1125.59 1376.82> 34 345<326.14 512> 563 402<286.705 539.819>
LayerCount: 2
UndoRedoHistory
Layer: 1
Undoes
EndUndoes
Redoes
EndRedoes
EndUndoRedoHistory
Fore
SplineSet
466 -244 m 1
 579 -244 l 1
 579 -23 l 1
 819 3 965 182 965 397 c 0
 965 632 848 774 702 905 c 1
 606 990 l 2
 525 1062 431 1134 431 1275 c 0
 431 1315 451 1390 507 1391 c 1
 579 1391 580 1308 580 1165 c 1
 933 1200 l 1
 932 1358 914 1660 572 1682 c 1
 572 1891 l 1
 457 1891 l 1
 457 1680 l 1
 199 1656 34 1501 34 1235 c 0
 34 1008 147 894 276 783 c 2
 380 694 l 2
 496 595 563 515 563 378 c 0
 563 343 559 280 495 280 c 0
 430 280 379 331 379 557 c 1
 34 512 l 1
 43 141 182 -8 466 -24 c 1
 466 -244 l 1
EndSplineSet
EndChar

StartChar: dotlessi
Encoding: 439 305 273
Width: 606
VWidth: 0
Flags: HW
VStem: 120 367
LayerCount: 2
UndoRedoHistory
Layer: 1
Undoes
EndUndoes
Redoes
EndRedoes
EndUndoRedoHistory
Fore
SplineSet
120 0 m 1
 487 0 l 1
 487 1184 l 1
 120 1184 l 1
 120 0 l 1
EndSplineSet
EndChar

StartChar: e
Encoding: 101 101 274
Width: 991
VWidth: 0
Flags: HW
HStem: -22 260<454.693 574.258> 946 260<449.202 574.605>
VStem: 78 363<248.972 353 831 935.028> 582 336<249.414 333 846 940.131>
AnchorPoint: "ogonek" 471 0 basechar 0
LayerCount: 2
UndoRedoHistory
Layer: 1
Undoes
EndUndoes
Redoes
EndRedoes
EndUndoRedoHistory
Fore
SplineSet
441 733 m 1
 441 844 l 2
 441 923 473 946 506 946 c 0
 541 946 582 933 582 854 c 2
 582 733 l 1
 441 733 l 1
506 -22 m 0
 754 -22 918 95 918 333 c 2
 918 472 l 1
 582 472 l 1
 582 330 l 2
 582 252 541 238 506 238 c 0
 472 238 441 264 441 341 c 2
 441 567 l 1
 918 567 l 1
 918 846 l 2
 918 1086 757 1206 506 1206 c 0
 257 1206 78 1069 78 831 c 2
 78 353 l 2
 78 115 257 -22 506 -22 c 0
EndSplineSet
EndChar

StartChar: eight
Encoding: 56 56 282
Width: 1122
VWidth: 0
Flags: HW
HStem: -29 274<494.825 625.76> 712 289<502.369 613.176> 1403 280<501.273 616.444>
VStem: 93 373<265.366 694.659> 121 353<1020.92 1387.79> 642 353<1020.25 1387.6> 654 374<264.504 695.074>
CounterMasks: 1 e0
LayerCount: 2
UndoRedoHistory
Layer: 1
Undoes
EndUndoes
Redoes
EndRedoes
EndUndoRedoHistory
Fore
SplineSet
560 1001 m 0
 505 1001 474 1067 474 1241 c 0
 474 1344 505 1403 560 1403 c 0
 611 1403 642 1344 642 1240 c 0
 642 1067 609 1001 560 1001 c 0
560 245 m 0
 465 245 466 396 466 469 c 0
 466 587 464 712 560 712 c 0
 657 712 655 587 654 469 c 0
 654 398 656 245 560 245 c 0
560 -29 m 0
 911 -29 1037 192 1028 502 c 0
 1024 651 970 812 839 873 c 1
 918 928 990 1046 995 1230 c 0
 1003 1512 850 1683 560 1683 c 0
 272 1683 113 1515 121 1230 c 0
 126 1046 202 930 280 873 c 1
 147 812 96 650 93 502 c 1
 89 194 213 -29 560 -29 c 0
EndSplineSet
EndChar

StartChar: ellipsis
Encoding: 443 8230 283
Width: 1426
VWidth: 0
Flags: HW
LayerCount: 2
UndoRedoHistory
Layer: 1
Undoes
EndUndoes
Redoes
EndRedoes
EndUndoRedoHistory
Fore
SplineSet
1026 1 m 1
 1370 1 l 1
 1370 337 l 1
 1026 337 l 1
 1026 1 l 1
537 0 m 1
 880 0 l 1
 880 336 l 1
 537 336 l 1
 537 0 l 1
57 0 m 1
 400 0 l 1
 400 336 l 1
 57 336 l 1
 57 0 l 1
EndSplineSet
EndChar

StartChar: emdash
Encoding: 445 8212 285
Width: 2048
VWidth: 0
Flags: HW
HStem: 707 246
LayerCount: 2
UndoRedoHistory
Layer: 1
Undoes
EndUndoes
Redoes
EndRedoes
EndUndoRedoHistory
Fore
SplineSet
2 707 m 1
 2046 707 l 1
 2046 953 l 1
 2 953 l 1
 2 707 l 1
EndSplineSet
EndChar

StartChar: endash
Encoding: 446 8211 286
Width: 1024
VWidth: 0
Flags: HW
HStem: 701 246
LayerCount: 2
UndoRedoHistory
Layer: 1
Undoes
EndUndoes
Redoes
EndRedoes
EndUndoRedoHistory
Fore
SplineSet
2 701 m 1
 1022 701 l 1
 1022 947 l 1
 2 947 l 1
 2 701 l 1
EndSplineSet
EndChar

StartChar: eng
Encoding: 447 331 287
Width: 1029
VWidth: 0
Flags: HW
HStem: -405 222<379 565.366>
VStem: 602 367<-145.385 -10 876 950.403>
LayerCount: 2
UndoRedoHistory
Layer: 1
Undoes
EndUndoes
Redoes
EndRedoes
EndUndoRedoHistory
Fore
SplineSet
379 -405 m 1
 517 -405 l 2
 873 -405 969 -302 969 -12 c 2
 969 919 l 2
 969 1090 882 1206 737 1206 c 0
 635 1206 543 1176 452 1084 c 1
 452 1184 l 1
 85 1184 l 1
 85 0 l 1
 452 0 l 1
 452 917 l 1
 488 940 521 949 544 951 c 0
 588 953 602 926 602 876 c 2
 602 -10 l 2
 602 -151 564 -183 379 -183 c 1
 379 -405 l 1
EndSplineSet
EndChar

StartChar: equal
Encoding: 61 61 289
Width: 924
VWidth: 0
Flags: HW
VStem: 133 658
LayerCount: 2
UndoRedoHistory
Layer: 1
Undoes
EndUndoes
Redoes
EndRedoes
EndUndoRedoHistory
Fore
SplineSet
133 883 m 1
 791 883 l 1
 791 1096 l 1
 133 1096 l 1
 133 883 l 1
133 487 m 1
 791 487 l 1
 791 700 l 1
 133 700 l 1
 133 487 l 1
EndSplineSet
EndChar

StartChar: estimated
Encoding: 449 8494 290
Width: 980
VWidth: 0
Flags: HW
HStem: -22 83<404.693 629.133> 1126 80<400.746 628.122>
VStem: 76 302<129.629 304 871 1046.84> 654 262<121.055 292 886 1065>
LayerCount: 2
UndoRedoHistory
Layer: 1
Undoes
EndUndoes
Redoes
EndRedoes
EndUndoRedoHistory
Fore
SplineSet
378 663 m 1
 378 1000 l 2
 378 1079 399 1126 511 1126 c 0
 624 1126 654 1080 654 1001 c 2
 654 663 l 1
 378 663 l 1
506 -22 m 0
 754 -22 916 55 916 292 c 2
 916 472 l 1
 657 472 l 1
 657 209 l 2
 657 129 643 61 517 61 c 0
 392 61 378 133 378 212 c 2
 378 567 l 1
 916 567 l 1
 916 886 l 2
 916 1126 755 1206 505 1206 c 0
 255 1206 76 1109 76 871 c 2
 76 304 l 2
 76 65 256 -22 506 -22 c 0
EndSplineSet
EndChar

StartChar: eth
Encoding: 240 240 291
Width: 1093
VWidth: 0
Flags: HW
HStem: -33 236<492.5 613.523> 980 226<395.5 624.638> 1516 226<330 518.777>
VStem: 110 359<220.734 955.471> 626 367<216.939 429 947 979.661 1180 1329.93>
LayerCount: 2
UndoRedoHistory
Layer: 1
Undoes
EndUndoes
Redoes
EndRedoes
EndUndoRedoHistory
Fore
SplineSet
469 594 m 0
 469 904 483 980 572 980 c 0
 590 980 607 976 626 971 c 1
 626 328 l 2
 626 248 607 203 549 203 c 0
 467 203 469 293 469 594 c 0
993 429 m 2
 993 947 l 2
 993 1308 902 1481 851 1552 c 1
 998 1647 l 1
 950 1724 l 1
 791 1620 l 1
 709 1697 552 1742 330 1742 c 1
 313 1516 l 1
 429 1516 511 1493 533 1462 c 1
 377 1365 l 1
 426 1290 l 1
 583 1388 l 1
 605 1363 626 1286 626 1180 c 1
 587 1196 538 1206 483 1206 c 0
 308 1206 110 1073 110 831 c 2
 110 424 l 2
 110 85 324 -33 550 -33 c 0
 774 -33 993 41 993 429 c 2
EndSplineSet
EndChar

StartChar: exclam
Encoding: 33 33 292
Width: 556
VWidth: 0
Flags: HW
VStem: 203 127<442 571.452>
LayerCount: 2
UndoRedoHistory
Layer: 1
Undoes
EndUndoes
Redoes
EndRedoes
EndUndoRedoHistory
Fore
SplineSet
203 442 m 1
 330 442 l 1
 464 1652 l 1
 100 1652 l 1
 203 442 l 1
92 0 m 1
 434 0 l 1
 434 336 l 1
 92 336 l 1
 92 0 l 1
EndSplineSet
EndChar

StartChar: exclamdown
Encoding: 161 161 293
Width: 504
VWidth: 0
Flags: HW
VStem: 202 127<775.548 905>
LayerCount: 2
UndoRedoHistory
Layer: 1
Undoes
EndUndoes
Redoes
EndRedoes
EndUndoRedoHistory
Fore
SplineSet
98 1011 m 1
 440 1011 l 1
 440 1347 l 1
 98 1347 l 1
 98 1011 l 1
68 -305 m 1
 432 -305 l 1
 329 905 l 1
 202 905 l 1
 68 -305 l 1
EndSplineSet
EndChar

StartChar: f
Encoding: 102 102 294
Width: 676
VWidth: 0
Flags: HW
HStem: 1351 273<329 646>
VStem: 33 613
LayerCount: 2
UndoRedoHistory
Layer: 1
Undoes
EndUndoes
Redoes
EndRedoes
EndUndoRedoHistory
Fore
SplineSet
138 0 m 1
 504 0 l 1
 504 941 l 1
 646 941 l 1
 646 1184 l 1
 504 1184 l 1
 504 1278 l 2
 504 1335 538 1351 578 1351 c 0
 602 1351 628 1345 646 1342 c 1
 646 1614 l 1
 584 1621 531 1624 482 1624 c 0
 176 1624 138 1485 138 1280 c 2
 138 1184 l 1
 33 1184 l 1
 33 941 l 1
 138 941 l 1
 138 0 l 1
EndSplineSet
EndChar

StartChar: five
Encoding: 53 53 295
Width: 1122
VWidth: 0
Flags: HW
VStem: 126 363<266.722 492> 684 351<261.388 803.156>
LayerCount: 2
UndoRedoHistory
Layer: 1
Undoes
EndUndoes
Redoes
EndRedoes
EndUndoRedoHistory
Fore
SplineSet
569 -34 m 0
 976 -34 1035 219 1035 578 c 0
 1035 955 884 1152 635 1118 c 0
 550 1107 465 1076 444 1045 c 1
 465 1354 l 1
 960 1354 l 1
 960 1658 l 1
 167 1658 l 1
 129 684 l 1
 457 684 l 1
 471 796 508 840 572 840 c 0
 666 840 684 718 684 573 c 0
 684 360 683 248 597 242 c 0
 511 236 489 288 489 492 c 1
 126 492 l 1
 126 181 187 -34 569 -34 c 0
EndSplineSet
EndChar

StartChar: florin
Encoding: 450 402 296
Width: 992
VWidth: 0
Flags: HW
HStem: -405 273<82.6774 376.171> 1351 273<597.829 889.442>
LayerCount: 2
UndoRedoHistory
Layer: 1
Undoes
EndUndoes
Redoes
EndRedoes
EndUndoRedoHistory
Fore
SplineSet
219 -405 m 0
 526 -405 579 -266 600 -62 c 2
 704 929 l 1
 855 929 l 1
 855 1184 l 1
 731 1184 l 1
 741 1278 l 1
 746 1335 782 1351 822 1351 c 0
 846 1351 870 1345 888 1342 c 1
 917 1614 l 1
 856 1621 803 1624 755 1624 c 0
 448 1624 395 1485 374 1280 c 2
 364 1184 l 1
 227 1184 l 1
 227 929 l 1
 337 929 l 1
 233 -59 l 2
 228 -116 192 -132 152 -132 c 0
 128 -132 103 -126 85 -123 c 1
 57 -395 l 1
 118 -402 171 -405 219 -405 c 0
EndSplineSet
EndChar

StartChar: foundryicon
Encoding: 451 -1 297
Width: 1553
VWidth: 0
Flags: HW
LayerCount: 2
UndoRedoHistory
Layer: 1
Undoes
EndUndoes
Redoes
EndRedoes
EndUndoRedoHistory
Fore
SplineSet
357 249 m 1
 771 545 l 1
 1193 249 l 1
 1040 738 l 1
 1456 1052 l 1
 940 1052 l 1
 771 1541 l 1
 611 1052 l 1
 95 1043 l 1
 508 738 l 1
 357 249 l 1
EndSplineSet
EndChar

StartChar: four
Encoding: 52 52 298
Width: 1123
VWidth: 0
Flags: HW
LayerCount: 2
UndoRedoHistory
Layer: 1
Undoes
EndUndoes
Redoes
EndRedoes
EndUndoRedoHistory
Fore
SplineSet
329 624 m 1
 580 1309 l 1
 580 624 l 1
 329 624 l 1
580 0 m 1
 910 0 l 1
 910 366 l 1
 1060 366 l 1
 1060 624 l 1
 910 624 l 1
 910 1658 l 1
 499 1658 l 1
 65 621 l 1
 65 366 l 1
 580 366 l 1
 580 0 l 1
EndSplineSet
EndChar

StartChar: fraction
Encoding: 452 8260 299
Width: 710
VWidth: 0
Flags: HW
LayerCount: 2
UndoRedoHistory
Layer: 1
Undoes
EndUndoes
Redoes
EndRedoes
EndUndoRedoHistory
Fore
SplineSet
38 0 m 1
 292 0 l 1
 671 1658 l 1
 418 1658 l 1
 38 0 l 1
EndSplineSet
EndChar

StartChar: g
Encoding: 103 103 300
Width: 1065
VWidth: 0
Flags: HW
HStem: -352 215<414.628 720.593> 368 211<473.573 594.663> 994 212<472.058 598.659>
VStem: 54 347<-226.351 -4.52501> 86 371<586.545 986.615> 612 352<590.293 972.939>
LayerCount: 2
UndoRedoHistory
Layer: 1
Undoes
EndUndoes
Redoes
EndRedoes
EndUndoRedoHistory
Fore
SplineSet
533 579 m 0
 464 579 457 650 457 787 c 0
 457 918 454 994 532 994 c 0
 609 994 612 937 612 787 c 0
 612 640 603 579 533 579 c 0
570 -137 m 0
 451 -137 401 -108 401 -51 c 0
 401 -16 422 25 442 57 c 1
 615 32 l 1
 706 20 741 -2 730 -74 c 0
 723 -120 674 -137 570 -137 c 0
571 -352 m 0
 922 -352 1020 -210 1020 -40 c 0
 1020 118 950 206 697 243 c 0
 582 259 481 272 415 283 c 0
 346 295 307 308 302 326 c 0
 296 349 314 378 340 410 c 1
 397 385 477 368 555 368 c 0
 830 368 964 523 964 770 c 0
 964 897 928 968 897 1006 c 1
 962 1044 1061 1092 1095 1104 c 1
 1011 1270 l 1
 964 1247 l 1
 907 1215 850 1163 803 1110 c 1
 745 1173 637 1206 525 1206 c 0
 258 1206 86 1074 86 765 c 0
 86 625 139 543 213 490 c 1
 123 420 40 347 63 245 c 0
 75 193 114 155 224 112 c 1
 150 55 54 -23 54 -113 c 0
 54 -336 395 -352 571 -352 c 0
EndSplineSet
EndChar

StartChar: gcommaaccent
Encoding: 455 291 303
Width: 901
VWidth: 0
Flags: HW
HStem: -353 213<402.883 708.99> 368 210<460.108 585.095> 995 211<460.999 588.789> 1997 109<586.492 669>
VStem: 42 347<-227.113 -4.97552> 73 372<587.102 986.74> 382 149<1817 1939.64> 603 353<585.849 972.179>
LayerCount: 2
UndoRedoHistory
Layer: 1
Undoes
EndUndoes
Redoes
EndRedoes
EndUndoRedoHistory
Fore
SplineSet
523 578 m 0
 451 578 445 652 445 787 c 0
 445 915 442 995 521 995 c 0
 600 995 603 936 603 787 c 0
 603 642 594 578 523 578 c 0
557 -140 m 0
 441 -140 389 -110 389 -53 c 0
 389 -17 410 24 431 57 c 1
 602 32 l 2
 695 18 732 -3 720 -76 c 0
 713 -123 662 -140 557 -140 c 0
382 1480 m 1
 722 1480 l 1
 722 1817 l 1
 531 1817 l 1
 531 1945 612 1980 684 1997 c 1
 669 2106 l 1
 478 2104 383 1983 382 1763 c 1
 382 1480 l 1
557 -353 m 0
 910 -353 1010 -210 1010 -42 c 0
 1010 115 940 202 684 240 c 0
 567 257 470 270 401 282 c 0
 332 294 292 307 287 324 c 0
 281 348 300 378 327 411 c 1
 386 385 465 368 545 368 c 0
 820 368 956 524 956 771 c 0
 956 898 919 968 888 1007 c 1
 955 1046 1051 1094 1085 1107 c 1
 1001 1271 l 1
 955 1248 l 1
 898 1217 841 1165 794 1110 c 1
 735 1173 627 1206 514 1206 c 0
 245 1206 73 1072 73 766 c 0
 73 628 126 544 200 492 c 1
 111 422 26 347 50 244 c 0
 62 193 103 156 213 112 c 1
 138 55 42 -23 42 -112 c 0
 42 -335 382 -353 557 -353 c 0
EndSplineSet
EndChar

StartChar: germandbls
Encoding: 223 223 305
Width: 1126
VWidth: 0
Flags: HW
HStem: -34 274<538 671.419> 1439 247<486.281 647.3>
VStem: 693 303<1049.31 1392.5>
LayerCount: 2
UndoRedoHistory
Layer: 1
Undoes
EndUndoes
Redoes
EndRedoes
EndUndoRedoHistory
Fore
SplineSet
538 -34 m 1
 876 -34 1095 94 1095 460 c 0
 1095 653 963 818 742 882 c 1
 928 953 996 1083 996 1232 c 0
 996 1515 859 1686 533 1686 c 0
 195 1686 87 1440 86 1217 c 1
 86 0 l 1
 453 0 l 1
 453 1217 l 1
 449 1347 478 1439 563 1439 c 0
 629 1439 693 1376 693 1225 c 0
 693 1054 638 984 557 984 c 1
 560 706 l 1
 641 706 721 624 730 512 c 0
 747 302 658 240 538 240 c 1
 538 -34 l 1
EndSplineSet
EndChar

StartChar: grave
Encoding: 96 96 306
Width: 648
VWidth: 0
Flags: HW
HStem: 1243 415
LayerCount: 2
UndoRedoHistory
Layer: 1
Undoes
EndUndoes
Redoes
EndRedoes
EndUndoRedoHistory
Fore
SplineSet
340 1243 m 1
 578 1243 l 1
 451 1658 l 1
 73 1658 l 1
 340 1243 l 1
EndSplineSet
EndChar

StartChar: gravecomb
Encoding: 457 768 307
Width: 624
VWidth: 0
Flags: HW
HStem: 1243 415
LayerCount: 2
UndoRedoHistory
Layer: 1
Undoes
EndUndoes
Redoes
EndRedoes
EndUndoRedoHistory
Fore
SplineSet
331 1243 m 1
 569 1243 l 1
 442 1658 l 1
 64 1658 l 1
 331 1243 l 1
EndSplineSet
EndChar

StartChar: greater
Encoding: 62 62 308
Width: 830
VWidth: 0
Flags: HW
LayerCount: 2
UndoRedoHistory
Layer: 1
Undoes
EndUndoes
Redoes
EndRedoes
EndUndoRedoHistory
Fore
SplineSet
109 244 m 1
 758 696 l 1
 758 964 l 1
 109 1418 l 1
 109 1107 l 1
 497 832 l 1
 109 553 l 1
 109 244 l 1
EndSplineSet
EndChar

StartChar: greaterequal
Encoding: 458 8805 309
Width: 880
VWidth: 0
Flags: HW
LayerCount: 2
UndoRedoHistory
Layer: 1
Undoes
EndUndoes
Redoes
EndRedoes
EndUndoRedoHistory
Fore
SplineSet
89 18 m 1
 796 18 l 1
 796 257 l 1
 89 257 l 1
 89 18 l 1
109 348 m 1
 758 800 l 1
 758 1068 l 1
 109 1522 l 1
 109 1211 l 1
 497 936 l 1
 109 657 l 1
 109 348 l 1
EndSplineSet
EndChar

StartChar: guillemotleft
Encoding: 171 171 310
Width: 1017
VWidth: 0
Flags: HW
LayerCount: 2
UndoRedoHistory
Layer: 1
Undoes
EndUndoes
Redoes
EndRedoes
EndUndoRedoHistory
Fore
SplineSet
958 73 m 1
 958 407 l 1
 737 614 l 1
 958 823 l 1
 958 1157 l 1
 534 673 l 1
 534 557 l 1
 958 73 l 1
501 73 m 1
 501 407 l 1
 282 614 l 1
 501 823 l 1
 501 1157 l 1
 79 673 l 1
 79 557 l 1
 501 73 l 1
EndSplineSet
EndChar

StartChar: guillemotright
Encoding: 187 187 311
Width: 1019
VWidth: 0
Flags: HW
LayerCount: 2
UndoRedoHistory
Layer: 1
Undoes
EndUndoes
Redoes
EndRedoes
EndUndoRedoHistory
Fore
SplineSet
540 73 m 1
 963 557 l 1
 963 673 l 1
 540 1157 l 1
 540 823 l 1
 760 616 l 1
 540 407 l 1
 540 73 l 1
83 73 m 1
 508 557 l 1
 508 673 l 1
 83 1157 l 1
 83 823 l 1
 305 616 l 1
 83 407 l 1
 83 73 l 1
EndSplineSet
EndChar

StartChar: guilsinglleft
Encoding: 459 8249 312
Width: 598
VWidth: 0
Flags: HW
LayerCount: 2
UndoRedoHistory
Layer: 1
Undoes
EndUndoes
Redoes
EndRedoes
EndUndoRedoHistory
Fore
SplineSet
501 35 m 1
 501 368 l 1
 287 579 l 1
 501 785 l 1
 501 1118 l 1
 73 673 l 1
 73 480 l 1
 501 35 l 1
EndSplineSet
EndChar

StartChar: guilsinglright
Encoding: 460 8250 313
Width: 556
VWidth: 0
Flags: HW
LayerCount: 2
UndoRedoHistory
Layer: 1
Undoes
EndUndoes
Redoes
EndRedoes
EndUndoRedoHistory
Fore
SplineSet
73 40 m 1
 500 523 l 1
 500 639 l 1
 73 1123 l 1
 73 790 l 1
 296 582 l 1
 73 373 l 1
 73 40 l 1
EndSplineSet
EndChar

StartChar: h
Encoding: 104 104 314
Width: 1081
VWidth: 0
Flags: HW
LayerCount: 2
UndoRedoHistory
Layer: 1
Undoes
EndUndoes
Redoes
EndRedoes
EndUndoRedoHistory
Fore
SplineSet
103 0 m 1
 469 0 l 1
 469 917 l 1
 506 940 538 949 561 951 c 0
 606 953 620 926 620 876 c 2
 620 0 l 1
 986 0 l 1
 986 919 l 2
 986 1090 900 1206 755 1206 c 0
 653 1206 560 1176 469 1084 c 1
 469 1658 l 1
 103 1658 l 1
 103 0 l 1
EndSplineSet
EndChar

StartChar: hbar
Encoding: 461 295 315
Width: 1083
VWidth: 0
Flags: HW
LayerCount: 2
UndoRedoHistory
Layer: 1
Undoes
EndUndoes
Redoes
EndRedoes
EndUndoRedoHistory
Fore
SplineSet
104 0 m 1
 471 0 l 1
 471 917 l 1
 508 940 540 949 563 951 c 0
 608 953 622 926 622 876 c 2
 622 0 l 1
 988 0 l 1
 988 919 l 2
 988 1090 902 1206 757 1206 c 0
 655 1206 562 1176 471 1084 c 1
 471 1363 l 1
 708 1363 l 1
 708 1525 l 1
 471 1525 l 1
 471 1658 l 1
 104 1658 l 1
 104 1525 l 1
 19 1525 l 1
 19 1363 l 1
 104 1363 l 1
 104 0 l 1
EndSplineSet
EndChar

StartChar: hungarumlaut
Encoding: 463 733 317
Width: 999
VWidth: 0
Flags: HW
HStem: 1189 469
LayerCount: 2
UndoRedoHistory
Layer: 1
Undoes
EndUndoes
Redoes
EndRedoes
EndUndoRedoHistory
Fore
SplineSet
456 1189 m 1
 648 1189 l 1
 900 1658 l 1
 591 1658 l 1
 456 1189 l 1
63 1189 m 1
 251 1189 l 1
 494 1658 l 1
 196 1658 l 1
 63 1189 l 1
EndSplineSet
EndChar

StartChar: hyphen
Encoding: 45 45 318
Width: 830
VWidth: 0
Flags: HW
HStem: 635 227
VStem: 139 553
LayerCount: 2
UndoRedoHistory
Layer: 1
Undoes
EndUndoes
Redoes
EndRedoes
EndUndoRedoHistory
Fore
SplineSet
139 635 m 1
 692 635 l 1
 692 862 l 1
 139 862 l 1
 139 635 l 1
EndSplineSet
EndChar

StartChar: i
Encoding: 105 105 319
Width: 566
VWidth: 0
Flags: HW
AnchorPoint: "ogonek" 196 0 basechar 0
LayerCount: 2
UndoRedoHistory
Layer: 1
Undoes
EndUndoes
Redoes
EndRedoes
EndUndoRedoHistory
Fore
SplineSet
99 1390 m 1
 468 1390 l 1
 468 1625 l 1
 99 1625 l 1
 99 1390 l 1
101 0 m 1
 468 0 l 1
 468 1184 l 1
 101 1184 l 1
 101 0 l 1
EndSplineSet
EndChar

StartChar: infinity
Encoding: 467 8734 327
Width: 1344
VWidth: 0
Flags: HW
HStem: 184 280<301.355 480.502> 729 280<301.355 483.915>
VStem: 58 227<475.319 718.174> 1046 240<483.4 709.883>
LayerCount: 2
UndoRedoHistory
Layer: 1
Undoes
EndUndoes
Redoes
EndRedoes
EndUndoRedoHistory
Fore
SplineSet
980 471 m 0
 907 466 824 525 743 597 c 1
 824 669 907 728 980 722 c 0
 995 721 1046 702 1046 597 c 0
 1046 491 995 472 980 471 c 0
367 464 m 0
 330 463 285 489 285 597 c 0
 285 704 330 731 367 729 c 1
 435 728 522 666 603 597 c 1
 522 527 426 465 367 464 c 0
366 184 m 0
 488 184 594 281 672 368 c 1
 754 290 872 206 968 207 c 1
 1164 207 1286 399 1286 597 c 0
 1286 794 1164 986 968 986 c 1
 872 988 754 903 672 825 c 1
 594 912 488 1009 366 1009 c 0
 157 1009 58 792 58 597 c 0
 58 401 157 184 366 184 c 0
EndSplineSet
EndChar

StartChar: integral
Encoding: 468 8747 328
Width: 708
VWidth: 0
Flags: HW
HStem: -390 273<33 349.5> 1407 273<365.5 682>
VStem: 33 649
LayerCount: 2
UndoRedoHistory
Layer: 1
Undoes
EndUndoes
Redoes
EndRedoes
EndUndoRedoHistory
Fore
SplineSet
196 -390 m 0
 503 -390 541 -251 541 -46 c 2
 541 1334 l 2
 541 1391 575 1407 615 1407 c 0
 639 1407 664 1401 682 1398 c 1
 682 1670 l 1
 620 1677 568 1680 519 1680 c 0
 212 1680 174 1541 174 1337 c 2
 174 -44 l 2
 174 -101 140 -117 100 -117 c 0
 76 -117 51 -111 33 -108 c 1
 33 -380 l 1
 95 -387 148 -390 196 -390 c 0
EndSplineSet
EndChar

StartChar: j
Encoding: 106 106 331
Width: 593
VWidth: 0
Flags: HW
HStem: -389 284<-10.0774 289>
LayerCount: 2
UndoRedoHistory
Layer: 1
Undoes
EndUndoes
Redoes
EndRedoes
EndUndoRedoHistory
Fore
SplineSet
126 1390 m 1
 495 1390 l 1
 495 1625 l 1
 126 1625 l 1
 126 1390 l 1
-12 -359 m 1
 50 -376 114 -389 185 -389 c 0
 393 -389 495 -250 495 -63 c 2
 495 1184 l 1
 128 1184 l 1
 128 -17 l 2
 128 -85 92 -105 47 -105 c 0
 28 -105 8 -100 -12 -96 c 1
 -12 -359 l 1
EndSplineSet
EndChar

StartChar: k
Encoding: 107 107 333
Width: 1175
VWidth: 0
Flags: HW
LayerCount: 2
UndoRedoHistory
Layer: 1
Undoes
EndUndoes
Redoes
EndRedoes
EndUndoRedoHistory
Fore
SplineSet
102 0 m 1
 465 0 l 1
 465 449 l 1
 551 550 l 1
 755 0 l 1
 1164 0 l 1
 840 693 l 1
 1165 1184 l 1
 747 1184 l 1
 465 757 l 1
 465 1658 l 1
 102 1658 l 1
 102 0 l 1
EndSplineSet
EndChar

StartChar: kgreenlandic
Encoding: 473 312 335
Width: 1087
VWidth: 0
Flags: HW
LayerCount: 2
UndoRedoHistory
Layer: 1
Undoes
EndUndoes
Redoes
EndRedoes
EndUndoRedoHistory
Fore
SplineSet
96 0 m 1
 463 0 l 1
 463 487 l 1
 500 537 l 1
 684 0 l 1
 1073 0 l 1
 833 634 l 1
 1067 1184 l 1
 667 1184 l 1
 463 699 l 1
 463 1184 l 1
 96 1184 l 1
 96 0 l 1
EndSplineSet
EndChar

StartChar: l
Encoding: 108 108 336
Width: 588
VWidth: 0
Flags: HW
VStem: 114 366
LayerCount: 2
UndoRedoHistory
Layer: 1
Undoes
EndUndoes
Redoes
EndRedoes
EndUndoRedoHistory
Fore
SplineSet
114 0 m 1
 480 0 l 1
 480 1658 l 1
 114 1658 l 1
 114 0 l 1
EndSplineSet
EndChar

StartChar: less
Encoding: 60 60 341
Width: 830
VWidth: 0
Flags: HW
LayerCount: 2
UndoRedoHistory
Layer: 1
Undoes
EndUndoes
Redoes
EndRedoes
EndUndoRedoHistory
Fore
SplineSet
713 244 m 1
 713 553 l 1
 326 832 l 1
 713 1107 l 1
 713 1418 l 1
 66 964 l 1
 66 696 l 1
 713 244 l 1
EndSplineSet
EndChar

StartChar: lessequal
Encoding: 478 8804 342
Width: 832
VWidth: 0
Flags: HW
LayerCount: 2
UndoRedoHistory
Layer: 1
Undoes
EndUndoes
Redoes
EndRedoes
EndUndoRedoHistory
Fore
SplineSet
60 0 m 1
 767 0 l 1
 767 239 l 1
 60 239 l 1
 60 0 l 1
743 353 m 1
 743 662 l 1
 356 941 l 1
 743 1216 l 1
 743 1527 l 1
 96 1074 l 1
 96 805 l 1
 743 353 l 1
EndSplineSet
EndChar

StartChar: logicalnot
Encoding: 172 172 343
Width: 1087
VWidth: 0
Flags: HW
HStem: 389 592
LayerCount: 2
UndoRedoHistory
Layer: 1
Undoes
EndUndoes
Redoes
EndRedoes
EndUndoRedoHistory
Fore
SplineSet
798 389 m 1
 978 389 l 1
 978 981 l 1
 99 981 l 1
 99 740 l 1
 798 740 l 1
 798 389 l 1
EndSplineSet
EndChar

StartChar: lozenge
Encoding: 479 9674 344
Width: 1010
VWidth: 0
Flags: HW
LayerCount: 2
UndoRedoHistory
Layer: 1
Undoes
EndUndoes
Redoes
EndRedoes
EndUndoRedoHistory
Fore
SplineSet
499 237 m 1
 296 594 l 1
 497 935 l 1
 712 594 l 1
 499 237 l 1
434 0 m 1
 559 0 l 1
 938 594 l 1
 559 1184 l 1
 434 1184 l 1
 72 594 l 1
 434 0 l 1
EndSplineSet
EndChar

StartChar: lslash
Encoding: 480 322 345
Width: 723
VWidth: 0
Flags: HW
HStem: 1192 21G<544 591.429>
VStem: 43 667
LayerCount: 2
UndoRedoHistory
Layer: 1
Undoes
EndUndoes
Redoes
EndRedoes
EndUndoRedoHistory
Fore
SplineSet
178 0 m 1
 544 0 l 1
 544 1001 l 1
 710 1070 l 1
 710 1262 l 1
 544 1192 l 1
 544 1658 l 1
 178 1658 l 1
 178 1038 l 1
 43 981 l 1
 43 789 l 1
 178 846 l 1
 178 0 l 1
EndSplineSet
EndChar

StartChar: m
Encoding: 109 109 346
Width: 1586
VWidth: 0
Flags: HW
HStem: 952 254<559.786 614.805 1068.47 1124.21>
LayerCount: 2
UndoRedoHistory
Layer: 1
Undoes
EndUndoes
Redoes
EndRedoes
EndUndoRedoHistory
Fore
SplineSet
102 0 m 1
 466 0 l 1
 466 923 l 1
 500 942 534 951 556 952 c 0
 599 954 618 928 618 877 c 2
 618 0 l 1
 979 0 l 1
 979 917 l 2
 979 920 979 922 979 925 c 1
 1010 943 1046 951 1067 952 c 0
 1111 954 1127 928 1127 877 c 2
 1127 0 l 1
 1491 0 l 1
 1491 917 l 2
 1491 1092 1402 1206 1258 1206 c 0
 1152 1206 1049 1174 953 1069 c 1
 916 1155 844 1206 748 1206 c 0
 650 1206 555 1178 466 1093 c 1
 466 1184 l 1
 102 1184 l 1
 102 0 l 1
EndSplineSet
EndChar

StartChar: macron
Encoding: 175 175 347
Width: 291
VWidth: 0
Flags: HW
HStem: 1496 162
VStem: -128 556
LayerCount: 2
UndoRedoHistory
Layer: 1
Undoes
EndUndoes
Redoes
EndRedoes
EndUndoRedoHistory
Fore
SplineSet
-128 1496 m 1
 428 1496 l 1
 428 1658 l 1
 -128 1658 l 1
 -128 1496 l 1
EndSplineSet
EndChar

StartChar: minus
Encoding: 481 8722 348
Width: 1017
VWidth: 0
Flags: HW
HStem: 671 239
LayerCount: 2
UndoRedoHistory
Layer: 1
Undoes
EndUndoes
Redoes
EndRedoes
EndUndoRedoHistory
Fore
SplineSet
156 671 m 1
 862 671 l 1
 862 910 l 1
 156 910 l 1
 156 671 l 1
EndSplineSet
EndChar

StartChar: mu
Encoding: 181 181 349
Width: 1037
VWidth: 0
Flags: HW
LayerCount: 2
UndoRedoHistory
Layer: 1
Undoes
EndUndoes
Redoes
EndRedoes
EndUndoRedoHistory
Fore
SplineSet
80 -390 m 1
 446 -390 l 1
 446 0 l 1
 454 3 462 6 470 10 c 0
 509 27 547 53 584 89 c 1
 584 0 l 1
 951 0 l 1
 951 1184 l 1
 584 1184 l 1
 584 260 l 1
 552 242 525 234 504 233 c 0
 459 231 446 258 446 308 c 2
 446 1184 l 1
 79 1184 l 1
 80 -390 l 1
EndSplineSet
EndChar

StartChar: multiply
Encoding: 215 215 350
Width: 1057
VWidth: 0
Flags: HW
LayerCount: 2
UndoRedoHistory
Layer: 1
Undoes
EndUndoes
Redoes
EndRedoes
EndUndoRedoHistory
Fore
SplineSet
278 448 m 1
 530 701 l 1
 783 448 l 1
 945 611 l 1
 692 864 l 1
 945 1118 l 1
 781 1279 l 1
 530 1027 l 1
 277 1279 l 1
 114 1115 l 1
 366 864 l 1
 114 611 l 1
 278 448 l 1
EndSplineSet
EndChar

StartChar: n
Encoding: 110 110 351
Width: 1080
VWidth: 0
Flags: HW
LayerCount: 2
UndoRedoHistory
Layer: 1
Undoes
EndUndoes
Redoes
EndRedoes
EndUndoRedoHistory
Fore
SplineSet
102 0 m 1
 469 0 l 1
 469 917 l 1
 506 940 538 949 561 951 c 0
 605 953 619 926 619 876 c 2
 619 0 l 1
 986 0 l 1
 986 919 l 2
 986 1090 899 1206 754 1206 c 0
 652 1206 560 1156 469 1065 c 1
 469 1184 l 1
 102 1184 l 1
 102 0 l 1
EndSplineSet
EndChar

StartChar: nine
Encoding: 57 57 356
Width: 1123
VWidth: 0
Flags: HW
HStem: -27 281<490.155 622.144> 609 288<493.374 599.073> 1411 273<492.72 617.697>
VStem: 89 387<906.484 1403.12> 638 388<266.41 577 905.295 951 1162 1390.88>
CounterMasks: 1 e0
LayerCount: 2
UndoRedoHistory
Layer: 1
Undoes
EndUndoes
Redoes
EndRedoes
EndUndoRedoHistory
Fore
SplineSet
559 897 m 0
 476 897 476 988 476 1137 c 0
 476 1329 478 1411 554 1411 c 0
 632 1411 638 1324 638 1227 c 2
 638 951 l 1
 627 930 600 897 559 897 c 0
552 -27 m 0
 935 -27 1026 202 1026 527 c 2
 1026 1162 l 2
 1026 1483 891 1684 554 1684 c 0
 211 1684 89 1470 89 1110 c 0
 89 843 186 600 449 609 c 0
 531 612 606 639 638 694 c 1
 638 577 l 2
 638 315 642 254 556 254 c 0
 479 254 478 309 478 436 c 1
 126 436 l 1
 126 406 l 1
 127 125 218 -27 552 -27 c 0
EndSplineSet
EndChar

StartChar: notequal
Encoding: 486 8800 357
Width: 948
VWidth: 0
Flags: HW
LayerCount: 2
UndoRedoHistory
Layer: 1
Undoes
EndUndoes
Redoes
EndRedoes
EndUndoRedoHistory
Fore
SplineSet
124 0 m 1
 299 0 l 1
 453 487 l 1
 815 487 l 1
 815 700 l 1
 521 700 l 1
 579 883 l 1
 815 883 l 1
 815 1096 l 1
 647 1096 l 1
 825 1658 l 1
 649 1658 l 1
 471 1096 l 1
 157 1096 l 1
 157 883 l 1
 403 883 l 1
 345 700 l 1
 157 700 l 1
 157 487 l 1
 278 487 l 1
 124 0 l 1
EndSplineSet
EndChar

StartChar: numbersign
Encoding: 35 35 359
Width: 1122
VWidth: 0
Flags: HW
LayerCount: 2
UndoRedoHistory
Layer: 1
Undoes
EndUndoes
Redoes
EndRedoes
EndUndoRedoHistory
Fore
SplineSet
467 758 m 1
 497 1008 l 1
 651 1008 l 1
 622 758 l 1
 467 758 l 1
167 -1 m 1
 378 -1 l 1
 438 539 l 1
 591 539 l 1
 533 -1 l 1
 743 -1 l 1
 804 539 l 1
 1000 539 l 1
 1007 758 l 1
 835 758 l 1
 862 1008 l 1
 1010 1008 l 1
 1017 1232 l 1
 903 1232 l 1
 949 1658 l 1
 735 1658 l 1
 691 1232 l 1
 539 1232 l 1
 584 1658 l 1
 369 1658 l 1
 325 1232 l 1
 121 1232 l 1
 115 1008 l 1
 283 1008 l 1
 257 758 l 1
 112 758 l 1
 105 539 l 1
 226 539 l 1
 167 -1 l 1
EndSplineSet
EndChar

StartChar: o
Encoding: 111 111 360
Width: 1025
VWidth: 0
Flags: HW
HStem: -22 240<450.323 572.16> 966 240<450.323 572.16>
VStem: 78 361<222.794 352 832 961.206> 586 361<232.128 352 832 960.824>
AnchorPoint: "ogonek" 421 0 basechar 0
LayerCount: 2
UndoRedoHistory
Layer: 1
Undoes
EndUndoes
Redoes
EndRedoes
EndUndoRedoHistory
Fore
SplineSet
510 -22 m 0
 759 -22 947 96 947 352 c 2
 947 832 l 2
 947 1087 759 1206 510 1206 c 0
 261 1206 78 1087 78 832 c 2
 78 352 l 2
 78 97 261 -22 510 -22 c 0
511 218 m 0
 464 218 439 250 439 326 c 2
 439 858 l 2
 439 934 464 966 511 966 c 0
 561 966 586 936 586 858 c 2
 586 326 l 2
 586 248 561 218 511 218 c 0
EndSplineSet
EndChar

StartChar: oe
Encoding: 488 339 365
Width: 1457
VWidth: 0
Flags: HW
HStem: -28 214<336 550.196 962.037 1049.89> 1031 211<341.916 553.564 957.405 1050.15>
VStem: 74 360<189.705 337 903 1022.29> 565 386<191.673 326 924 1027.09> 1061 335<189.98 303 854 1026.45>
LayerCount: 2
UndoRedoHistory
Layer: 1
Undoes
EndUndoes
Redoes
EndRedoes
EndUndoRedoHistory
Fore
SplineSet
951 758 m 1
 951 952 l 2
 951 1012 985 1031 1004 1031 c 0
 1026 1031 1061 1005 1061 952 c 2
 1061 758 l 1
 951 758 l 1
493 186 m 0
 458 186 434 239 434 327 c 2
 434 924 l 2
 434 1011 468 1031 499 1031 c 0
 532 1031 565 1007 565 924 c 2
 565 326 l 2
 565 201 526 186 493 186 c 0
423 -28 m 0
 591 -28 688 34 737 120 c 1
 778 26 893 -29 1042 -29 c 0
 1271 -30 1397 103 1397 303 c 2
 1397 481 l 1
 1056 481 l 1
 1056 302 l 2
 1056 228 1045 185 1005 186 c 0
 969 186 951 236 951 311 c 2
 951 561 l 1
 1396 561 l 1
 1396 854 l 2
 1396 1078 1294 1242 1033 1242 c 0
 937 1242 788 1194 747 1088 c 1
 709 1194 553 1242 451 1242 c 0
 241 1242 74 1140 74 903 c 2
 74 337 l 2
 74 81 249 -28 423 -28 c 0
EndSplineSet
EndChar

StartChar: ogonek
Encoding: 489 731 366
Width: 555
VWidth: 0
Flags: HW
HStem: -527 177<321.969 445>
VStem: 41 254<-319.379 -116.522>
AnchorPoint: "ogonek" 271 0 mark 0
LayerCount: 2
UndoRedoHistory
Layer: 1
Undoes
EndUndoes
Redoes
EndRedoes
EndUndoRedoHistory
Fore
SplineSet
445 -527 m 1
 474 -350 l 1
 422 -350 295 -353 295 -233 c 0
 295 -144 328 -66 342 20 c 1
 180 20 l 1
 94 -66 41 -193 41 -295 c 0
 41 -526 303 -532 445 -527 c 1
EndSplineSet
EndChar

StartChar: one
Encoding: 49 49 370
Width: 1122
VWidth: 0
Flags: HW
VStem: 206 589<1475 1499.51>
LayerCount: 2
UndoRedoHistory
Layer: 1
Undoes
EndUndoes
Redoes
EndRedoes
EndUndoRedoHistory
Fore
SplineSet
415 0 m 1
 795 0 l 1
 795 1658 l 1
 496 1658 l 1
 449 1617 255 1505 206 1475 c 1
 206 1194 l 1
 415 1306 l 1
 415 0 l 1
EndSplineSet
EndChar

StartChar: onehalf
Encoding: 189 189 371
Width: 1320
VWidth: 0
Flags: HW
HStem: 728 160<939.276 1060.45>
VStem: 751 177<563 649.437> 1065 182<528.323 724.232>
LayerCount: 2
UndoRedoHistory
Layer: 1
Undoes
EndUndoes
Redoes
EndRedoes
EndUndoRedoHistory
Fore
SplineSet
92 0 m 1
 249 0 l 1
 1093 1658 l 1
 935 1658 l 1
 92 0 l 1
153 827 m 1
 357 827 l 1
 357 1658 l 1
 231 1658 l 1
 191 1608 134 1551 30 1494 c 1
 30 1328 l 1
 153 1403 l 1
 153 827 l 1
770 0 m 1
 1226 0 l 1
 1226 158 l 1
 983 158 l 1
 984 160 1117 348 1118 350 c 0
 1195 466 1247 549 1247 660 c 0
 1247 806 1148 888 991 888 c 0
 829 888 745 786 745 650 c 0
 745 638 745 625 751 563 c 1
 928 563 l 1
 912 648 941 728 997 728 c 0
 1042 728 1065 696 1065 656 c 0
 1065 587 1013 514 966 443 c 1
 770 158 l 1
 770 0 l 1
EndSplineSet
EndChar

StartChar: onequarter
Encoding: 188 188 372
Width: 1320
VWidth: 0
Flags: HW
LayerCount: 2
UndoRedoHistory
Layer: 1
Undoes
EndUndoes
Redoes
EndRedoes
EndUndoRedoHistory
Fore
SplineSet
803 390 m 1
 951 644 l 1
 951 390 l 1
 803 390 l 1
155 0 m 1
 312 0 l 1
 1156 1658 l 1
 998 1658 l 1
 155 0 l 1
223 827 m 1
 427 827 l 1
 427 1658 l 1
 301 1658 l 1
 261 1608 204 1551 100 1494 c 1
 100 1328 l 1
 223 1403 l 1
 223 827 l 1
951 0 m 1
 1117 0 l 1
 1117 226 l 1
 1221 226 l 1
 1221 390 l 1
 1117 390 l 1
 1117 849 l 1
 967 849 l 1
 685 379 l 1
 685 226 l 1
 951 226 l 1
 951 0 l 1
EndSplineSet
EndChar

StartChar: uni00B9
Encoding: 185 185 373
Width: 878
VWidth: 0
Flags: HW
VStem: 150 477<1685 1702.01>
LayerCount: 2
UndoRedoHistory
Layer: 1
Undoes
EndUndoes
Redoes
EndRedoes
EndUndoRedoHistory
Fore
SplineSet
351 624 m 1
 627 624 l 1
 627 1818 l 1
 410 1818 l 1
 365 1760 192 1703 150 1685 c 1
 150 1479 l 1
 351 1533 l 1
 351 624 l 1
EndSplineSet
EndChar

StartChar: ordfeminine
Encoding: 170 170 374
Width: 1012
VWidth: 0
Flags: HW
HStem: 637 204<284.5 509.204> 1450 232<470.1 564.968>
VStem: 103 309<852.094 1040.47>
LayerCount: 2
UndoRedoHistory
Layer: 1
Undoes
EndUndoes
Redoes
EndRedoes
EndUndoRedoHistory
Fore
SplineSet
496 841 m 0
 451 841 412 878 412 941 c 0
 412 1001 466 1107 570 1152 c 1
 570 880 l 1
 549 853 521 841 496 841 c 0
376 637 m 1
 488 637 558 710 587 795 c 1
 611 656 l 1
 899 656 l 1
 899 1380 l 2
 899 1550 780 1682 551 1682 c 0
 296 1682 135 1579 134 1319 c 1
 453 1308 l 1
 466 1419 475 1450 518 1450 c 0
 557 1450 570 1419 570 1386 c 2
 570 1276 l 1
 413 1218 103 1158 103 886 c 0
 103 768 193 641 376 637 c 1
EndSplineSet
EndChar

StartChar: ordmasculine
Encoding: 186 186 375
Width: 1012
VWidth: 0
Flags: HW
HStem: 637 212<446.098 564.333> 1471 212<446.098 564.333>
VStem: 142 296<852.91 942 1378 1467.42> 575 295<860.796 942 1378 1459.2>
LayerCount: 2
UndoRedoHistory
Layer: 1
Undoes
EndUndoes
Redoes
EndRedoes
EndUndoRedoHistory
Fore
SplineSet
505 849 m 0
 466 849 438 876 438 938 c 2
 438 1382 l 2
 438 1445 466 1471 505 1471 c 0
 546 1471 575 1447 575 1382 c 2
 575 938 l 2
 575 874 546 849 505 849 c 0
504 637 m 0
 708 637 870 734 870 942 c 2
 870 1378 l 2
 870 1586 708 1683 504 1683 c 0
 300 1683 142 1586 142 1378 c 2
 142 942 l 2
 142 735 300 637 504 637 c 0
EndSplineSet
EndChar

StartChar: oslash
Encoding: 248 248 376
Width: 1010
VWidth: 0
Flags: HW
HStem: -22 240<450.323 572.16> 966 240<450.323 572.16>
VStem: 78 361<222.794 352 832 961.206> 586 361<232.128 352 832 960.824>
LayerCount: 2
UndoRedoHistory
Layer: 1
Undoes
EndUndoes
Redoes
EndRedoes
EndUndoRedoHistory
Fore
SplineSet
218 -178 m 1
 853 1346 l 1
 774 1381 l 1
 140 -144 l 1
 218 -178 l 1
EndSplineSet
Refer: 360 111 N 1 0 0 1 0 0 2
EndChar

StartChar: p
Encoding: 112 112 378
Width: 1069
VWidth: 0
Flags: HW
VStem: 616 367<217.47 310 885 990.519>
LayerCount: 2
UndoRedoHistory
Layer: 1
Undoes
EndUndoes
Redoes
EndRedoes
EndUndoRedoHistory
Fore
SplineSet
538 206 m 0
 518 206 493 216 469 230 c 1
 469 963 l 1
 495 981 519 994 538 997 c 0
 585 1003 616 963 616 918 c 2
 616 286 l 2
 616 241 586 205 538 206 c 0
102 -390 m 1
 469 -390 l 1
 469 90 l 1
 554 19 649 -22 735 -22 c 0
 884 -22 983 98 983 310 c 2
 983 885 l 2
 983 1091 894 1199 736 1206 c 0
 657 1209 560 1176 469 1100 c 1
 469 1184 l 1
 102 1184 l 1
 102 -390 l 1
EndSplineSet
EndChar

StartChar: paragraph
Encoding: 182 182 379
Width: 1086
VWidth: 0
Flags: HW
VStem: 73 510<1133.35 1442.07>
LayerCount: 2
UndoRedoHistory
Layer: 1
Undoes
EndUndoes
Redoes
EndRedoes
EndUndoRedoHistory
Fore
SplineSet
379 -196 m 1
 583 -196 l 1
 583 1443 l 1
 754 1443 l 1
 754 -196 l 1
 943 -196 l 1
 943 1658 l 1
 479 1658 l 2
 273 1658 73 1587 73 1322 c 0
 73 1114 197 995 379 989 c 1
 379 -196 l 1
EndSplineSet
EndChar

StartChar: parenleft
Encoding: 40 40 380
Width: 716
VWidth: 0
Flags: HW
VStem: 121 336<89.9266 1240.78>
LayerCount: 2
UndoRedoHistory
Layer: 1
Undoes
EndUndoes
Redoes
EndRedoes
EndUndoRedoHistory
Fore
SplineSet
641 -356 m 1
 641 -97 l 1
 508 -97 457 104 457 651 c 0
 457 1190 497 1419 641 1419 c 1
 641 1678 l 1
 172 1681 121 1234 121 651 c 0
 121 117 172 -360 641 -356 c 1
EndSplineSet
EndChar

StartChar: parenright
Encoding: 41 41 381
Width: 713
VWidth: 0
Flags: HW
VStem: 259 336<89.9266 1241>
LayerCount: 2
UndoRedoHistory
Layer: 1
Undoes
EndUndoes
Redoes
EndRedoes
EndUndoRedoHistory
Fore
SplineSet
75 -356 m 1
 544 -360 595 117 595 651 c 0
 595 1235 544 1681 75 1678 c 1
 75 1419 l 1
 219 1419 259 1190 259 651 c 0
 259 104 208 -97 75 -97 c 1
 75 -356 l 1
EndSplineSet
EndChar

StartChar: partialdiff
Encoding: 492 8706 382
Width: 1110
VWidth: 0
Flags: HW
HStem: -26 227<434.477 597.094> 897 218<328.5 600.514> 1423 255<386 512.076>
VStem: 73 355<215.587 427.084> 693 350<853.69 1274.48>
CounterMasks: 1 e0
LayerCount: 2
UndoRedoHistory
Layer: 1
Undoes
EndUndoes
Redoes
EndRedoes
EndUndoRedoHistory
Fore
SplineSet
507 201 m 0
 457 201 428 235 428 276 c 2
 428 276 428 283 428 284 c 2
 480 803 l 2
 486 860 520 897 580 897 c 0
 606 897 636 889 667 874 c 1
 609 285 l 2
 602 206 534 201 507 201 c 0
501 -26 m 0
 728 -26 953 -22 997 482 c 1
 997 482 1043 1023 1043 1055 c 0
 1043 1595 637 1678 386 1678 c 1
 302 1423 l 1
 611 1397 693 1277 693 1099 c 0
 693 1072 691 1043 687 1014 c 1
 621 1076 504 1115 410 1115 c 0
 247 1115 130 991 116 790 c 1
 74 306 l 2
 73 296 73 285 73 275 c 0
 73 50 302 -26 501 -26 c 0
EndSplineSet
EndChar

StartChar: percent
Encoding: 37 37 383
Width: 2127
VWidth: 0
Flags: HW
HStem: 0 227<1536.62 1703.13> 698 227<420.923 587.434> 731 229<1526.9 1712.2> 1429 229<411.259 596.545>
VStem: 98 296<952.391 1172 1200 1405.94> 615 299<951.969 1173 1199 1407.25> 1214 295<253.969 474 502 707.53> 1730 300<253.969 474 500 709.252>
LayerCount: 2
UndoRedoHistory
Layer: 1
Undoes
EndUndoes
Redoes
EndRedoes
EndUndoRedoHistory
Fore
SplineSet
706 0 m 1
 890 0 l 1
 1416 1658 l 1
 1231 1658 l 1
 706 0 l 1
1620 0 m 0
 1919 0 2030 146 2030 456 c 2
 2030 517 l 2
 2030 834 1921 960 1620 960 c 0
 1316 960 1214 832 1214 515 c 2
 1214 456 l 2
 1214 146 1320 0 1620 0 c 0
1620 227 m 0
 1514 227 1509 307 1509 474 c 2
 1509 502 l 2
 1509 670 1511 731 1620 731 c 0
 1731 731 1730 669 1730 500 c 2
 1730 474 l 2
 1730 307 1726 227 1620 227 c 0
504 698 m 0
 804 698 914 844 914 1154 c 2
 914 1215 l 2
 914 1532 806 1658 504 1658 c 0
 201 1658 98 1531 98 1213 c 2
 98 1155 l 2
 98 844 205 698 504 698 c 0
504 925 m 0
 398 925 394 1005 394 1172 c 2
 394 1200 l 2
 394 1368 395 1429 504 1429 c 0
 615 1429 615 1367 615 1199 c 2
 615 1173 l 2
 615 1005 610 925 504 925 c 0
EndSplineSet
EndChar

StartChar: period
Encoding: 46 46 384
Width: 533
VWidth: 0
Flags: HW
HStem: 0 336
VStem: 93 344
LayerCount: 2
UndoRedoHistory
Layer: 1
Undoes
EndUndoes
Redoes
EndRedoes
EndUndoRedoHistory
Fore
SplineSet
93 0 m 1
 437 0 l 1
 437 336 l 1
 93 336 l 1
 93 0 l 1
EndSplineSet
EndChar

StartChar: periodcentered
Encoding: 183 183 385
Width: 491
VWidth: 0
Flags: HW
HStem: 603 334
VStem: 75 342
LayerCount: 2
UndoRedoHistory
Layer: 1
Undoes
EndUndoes
Redoes
EndRedoes
EndUndoRedoHistory
Fore
SplineSet
75 603 m 1
 417 603 l 1
 417 937 l 1
 75 937 l 1
 75 603 l 1
EndSplineSet
EndChar

StartChar: perthousand
Encoding: 494 8240 386
Width: 3054
VWidth: 0
Flags: HW
HStem: 0 227<1536.62 1703.13 2454.92 2621.43> 698 227<420.923 587.434> 731 229<1526.9 1712.2 2445.26 2630.54> 1429 229<411.259 596.545>
VStem: 98 296<952.391 1172 1200 1405.94> 615 299<951.969 1173 1199 1407.25> 1214 295<253.969 474 502 707.53> 1730 300<253.969 474 500 709.252> 2132 296<253.969 474 502 707.53> 2649 299<253.969 474 500 709.252>
CounterMasks: 1 03c0
LayerCount: 2
UndoRedoHistory
Layer: 1
Undoes
EndUndoes
Redoes
EndRedoes
EndUndoRedoHistory
Fore
SplineSet
706 0 m 1
 890 0 l 1
 1416 1658 l 1
 1231 1658 l 1
 706 0 l 1
2538 0 m 0
 2838 0 2948 146 2948 456 c 2
 2948 517 l 2
 2948 834 2840 960 2538 960 c 0
 2235 960 2132 832 2132 515 c 2
 2132 456 l 2
 2132 146 2239 0 2538 0 c 0
2538 227 m 0
 2432 227 2428 307 2428 474 c 2
 2428 502 l 2
 2428 670 2429 731 2538 731 c 0
 2649 731 2649 669 2649 500 c 2
 2649 474 l 2
 2649 307 2644 227 2538 227 c 0
1620 0 m 0
 1919 0 2030 146 2030 456 c 2
 2030 517 l 2
 2030 834 1921 960 1620 960 c 0
 1316 960 1214 832 1214 515 c 2
 1214 456 l 2
 1214 146 1320 0 1620 0 c 0
1620 227 m 0
 1514 227 1509 307 1509 474 c 2
 1509 502 l 2
 1509 670 1511 731 1620 731 c 0
 1731 731 1730 669 1730 500 c 2
 1730 474 l 2
 1730 307 1726 227 1620 227 c 0
504 698 m 0
 804 698 914 844 914 1154 c 2
 914 1215 l 2
 914 1532 806 1658 504 1658 c 0
 201 1658 98 1531 98 1213 c 2
 98 1155 l 2
 98 844 205 698 504 698 c 0
504 925 m 0
 398 925 394 1005 394 1172 c 2
 394 1200 l 2
 394 1368 395 1429 504 1429 c 0
 615 1429 615 1367 615 1199 c 2
 615 1173 l 2
 615 1005 610 925 504 925 c 0
EndSplineSet
EndChar

StartChar: pi
Encoding: 495 960 387
Width: 1244
VWidth: 0
Flags: HW
LayerCount: 2
UndoRedoHistory
Layer: 1
Undoes
EndUndoes
Redoes
EndRedoes
EndUndoRedoHistory
Fore
SplineSet
532 950 m 1
 686 950 l 1
 686 288 l 2
 686 81 767 -20 1160 -20 c 1
 1174 232 l 1
 1053 232 1053 265 1053 440 c 2
 1053 950 l 1
 1185 950 l 1
 1185 1184 l 1
 41 1184 l 1
 41 950 l 1
 165 950 l 1
 165 0 l 1
 532 0 l 1
 532 950 l 1
EndSplineSet
EndChar

StartChar: plus
Encoding: 43 43 388
Width: 939
VWidth: 0
Flags: HW
LayerCount: 2
UndoRedoHistory
Layer: 1
Undoes
EndUndoes
Redoes
EndRedoes
EndUndoRedoHistory
Fore
SplineSet
351 422 m 1
 587 422 l 1
 587 748 l 1
 885 748 l 1
 885 951 l 1
 587 951 l 1
 587 1266 l 1
 351 1266 l 1
 351 951 l 1
 54 951 l 1
 54 748 l 1
 351 748 l 1
 351 422 l 1
EndSplineSet
EndChar

StartChar: plusminus
Encoding: 177 177 389
Width: 1056
VWidth: 0
Flags: HW
LayerCount: 2
UndoRedoHistory
Layer: 1
Undoes
EndUndoes
Redoes
EndRedoes
EndUndoRedoHistory
Fore
SplineSet
137 0 m 1
 919 0 l 1
 919 212 l 1
 137 212 l 1
 137 0 l 1
418 385 m 1
 639 385 l 1
 639 677 l 1
 919 677 l 1
 919 880 l 1
 639 880 l 1
 639 1172 l 1
 418 1172 l 1
 418 880 l 1
 137 880 l 1
 137 677 l 1
 418 677 l 1
 418 385 l 1
EndSplineSet
EndChar

StartChar: product
Encoding: 496 8719 390
Width: 1283
VWidth: 0
Flags: HW
LayerCount: 2
UndoRedoHistory
Layer: 1
Undoes
EndUndoes
Redoes
EndRedoes
EndUndoRedoHistory
Fore
SplineSet
99 -390 m 1
 453 -390 l 1
 453 1367 l 1
 830 1367 l 1
 830 -390 l 1
 1184 -390 l 1
 1184 1658 l 1
 99 1658 l 1
 99 -390 l 1
EndSplineSet
EndChar

StartChar: q
Encoding: 113 113 391
Width: 1070
VWidth: 0
Flags: HW
HStem: -22 225<267.5 536> 987 219<271.5 541.5>
VStem: 84 369<216.869 309 874 980.02>
LayerCount: 2
UndoRedoHistory
Layer: 1
Undoes
EndUndoes
Redoes
EndRedoes
EndUndoRedoHistory
Fore
SplineSet
526 203 m 0
 481 203 453 242 453 287 c 2
 453 892 l 2
 453 948 480 987 530 987 c 0
 553 987 577 978 604 964 c 1
 604 234 l 1
 573 215 546 203 526 203 c 0
604 -390 m 1
 970 -390 l 1
 970 1184 l 1
 604 1184 l 1
 604 1103 l 1
 531 1167 446 1206 354 1206 c 0
 189 1206 84 1077 84 874 c 2
 84 309 l 2
 84 98 183 -22 352 -22 c 0
 436 -22 523 24 604 104 c 1
 604 -390 l 1
EndSplineSet
EndChar

StartChar: question
Encoding: 63 63 392
Width: 990
VWidth: 0
Flags: HW
HStem: 1372 315<409.281 543.769>
VStem: 54 340<1168.36 1364.11>
LayerCount: 2
UndoRedoHistory
Layer: 1
Undoes
EndUndoes
Redoes
EndRedoes
EndUndoRedoHistory
Fore
SplineSet
236 0 m 1
 591 0 l 1
 591 344 l 1
 236 344 l 1
 236 0 l 1
245 442 m 1
 580 442 l 1
 580 643 l 1
 768 751 922 1031 922 1268 c 0
 922 1531 760 1687 458 1687 c 0
 144 1687 52 1505 54 1297 c 0
 54 1215 67 1179 90 1088 c 1
 419 1166 l 1
 403 1217 394 1224 394 1282 c 0
 393 1340 431 1372 468 1372 c 0
 505 1372 551 1366 558 1284 c 0
 577 1066 422 850 245 709 c 1
 245 442 l 1
EndSplineSet
EndChar

StartChar: questiondown
Encoding: 191 191 393
Width: 1068
VWidth: 0
Flags: HW
HStem: -364 315<465.231 599.719>
VStem: 615 340<-41.8192 154.641>
LayerCount: 2
UndoRedoHistory
Layer: 1
Undoes
EndUndoes
Redoes
EndRedoes
EndUndoRedoHistory
Fore
SplineSet
417 979 m 1
 773 979 l 1
 773 1323 l 1
 417 1323 l 1
 417 979 l 1
551 -364 m 0
 865 -364 957 -182 955 25 c 0
 955 108 942 144 919 235 c 1
 590 157 l 1
 606 106 615 98 615 41 c 0
 616 -17 578 -49 541 -49 c 0
 504 -49 458 -43 451 39 c 0
 432 257 587 473 764 613 c 1
 764 881 l 1
 429 881 l 1
 429 680 l 1
 241 572 87 292 87 54 c 0
 87 -208 249 -364 551 -364 c 0
EndSplineSet
EndChar

StartChar: quotedbl
Encoding: 34 34 394
Width: 710
VWidth: 0
Flags: HW
HStem: 1011 647
VStem: 19 162<1011 1074.1> 423 162<1011 1073.67>
LayerCount: 2
UndoRedoHistory
Layer: 1
Undoes
EndUndoes
Redoes
EndRedoes
EndUndoRedoHistory
Fore
SplineSet
423 1011 m 1
 585 1011 l 1
 733 1658 l 1
 423 1658 l 1
 423 1011 l 1
19 1011 m 1
 181 1011 l 1
 328 1658 l 1
 19 1658 l 1
 19 1011 l 1
EndSplineSet
EndChar

StartChar: quotedblbase
Encoding: 497 8222 395
Width: 974
VWidth: 0
Flags: HW
HStem: -206 112<169 245.15 610 686.15>
VStem: 277 154<-67.377 76> 718 154<-67.377 76>
LayerCount: 2
UndoRedoHistory
Layer: 1
Undoes
EndUndoes
Redoes
EndRedoes
EndUndoRedoHistory
Fore
SplineSet
610 -206 m 1
 811 -206 861 -90 872 153 c 0
 875 219 876 302 876 387 c 1
 566 387 l 1
 566 76 l 1
 718 76 l 1
 718 -15 703 -94 590 -94 c 1
 610 -206 l 1
169 -206 m 1
 370 -206 420 -90 431 153 c 0
 434 219 435 302 435 387 c 1
 125 387 l 1
 125 76 l 1
 277 76 l 1
 277 -15 262 -94 149 -94 c 1
 169 -206 l 1
EndSplineSet
EndChar

StartChar: quotedblleft
Encoding: 498 8220 396
Width: 970
VWidth: 0
Flags: HW
HStem: 1549 112<310.85 387 751.85 828>
VStem: 125 154<1379 1522.38> 566 154<1379 1522.38>
LayerCount: 2
UndoRedoHistory
Layer: 1
Undoes
EndUndoes
Redoes
EndRedoes
EndUndoRedoHistory
Fore
SplineSet
562 1068 m 1
 872 1068 l 1
 872 1379 l 1
 720 1379 l 1
 720 1470 735 1549 848 1549 c 1
 828 1661 l 1
 627 1661 577 1545 566 1302 c 0
 563 1236 562 1153 562 1068 c 1
121 1068 m 1
 431 1068 l 1
 431 1379 l 1
 279 1379 l 1
 279 1470 294 1549 407 1549 c 1
 387 1661 l 1
 186 1661 136 1545 125 1302 c 0
 122 1236 121 1153 121 1068 c 1
EndSplineSet
EndChar

StartChar: quotedblright
Encoding: 499 8221 397
Width: 970
VWidth: 0
Flags: HW
HStem: 1065 112<169 244.788 607 688.967>
VStem: 277 154<1203.62 1347> 716 154<1203.62 1347>
LayerCount: 2
UndoRedoHistory
Layer: 1
Undoes
EndUndoes
Redoes
EndRedoes
EndUndoRedoHistory
Fore
SplineSet
607 1065 m 1
 808 1065 858 1181 870 1424 c 0
 873 1490 873 1573 873 1658 c 1
 564 1658 l 1
 564 1347 l 1
 716 1347 l 1
 716 1256 701 1177 588 1177 c 1
 607 1065 l 1
169 1065 m 1
 369 1065 419 1181 431 1424 c 0
 434 1490 435 1573 435 1658 c 1
 125 1658 l 1
 125 1347 l 1
 277 1347 l 1
 277 1256 262 1177 149 1177 c 1
 169 1065 l 1
EndSplineSet
EndChar

StartChar: quoteleft
Encoding: 500 8216 398
Width: 578
VWidth: 0
Flags: HW
HStem: 1549 112<310.85 387>
VStem: 125 154<1379 1522.38>
LayerCount: 2
UndoRedoHistory
Layer: 1
Undoes
EndUndoes
Redoes
EndRedoes
EndUndoRedoHistory
Fore
SplineSet
121 1068 m 1
 431 1068 l 1
 431 1379 l 1
 279 1379 l 1
 279 1470 294 1549 407 1549 c 1
 387 1661 l 1
 186 1661 136 1545 125 1302 c 0
 122 1236 121 1153 121 1068 c 1
EndSplineSet
EndChar

StartChar: quoteright
Encoding: 501 8217 399
Width: 480
VWidth: 0
Flags: HW
HStem: 1065 112<170 245.788>
VStem: 278 154<1204.06 1347>
LayerCount: 2
UndoRedoHistory
Layer: 1
Undoes
EndUndoes
Redoes
EndRedoes
EndUndoRedoHistory
Fore
SplineSet
170 1065 m 1
 370 1065 420 1182 432 1424 c 0
 435 1490 436 1573 436 1658 c 1
 126 1658 l 1
 126 1347 l 1
 278 1347 l 1
 278 1256 263 1177 150 1177 c 1
 170 1065 l 1
EndSplineSet
EndChar

StartChar: quotesinglbase
Encoding: 502 8218 400
Width: 572
VWidth: 0
Flags: HW
HStem: -208 112<175 251.15>
VStem: 283 154<-69.377 74>
LayerCount: 2
UndoRedoHistory
Layer: 1
Undoes
EndUndoes
Redoes
EndRedoes
EndUndoRedoHistory
Fore
SplineSet
175 -208 m 1
 376 -208 426 -92 437 151 c 0
 440 217 441 300 441 385 c 1
 131 385 l 1
 131 74 l 1
 283 74 l 1
 283 -17 268 -96 155 -96 c 1
 175 -208 l 1
EndSplineSet
EndChar

StartChar: quotesingle
Encoding: 39 39 401
Width: 376
VWidth: 0
Flags: HW
HStem: 1011 647
VStem: 60 174<1011 1088.29>
LayerCount: 2
UndoRedoHistory
Layer: 1
Undoes
EndUndoes
Redoes
EndRedoes
EndUndoRedoHistory
Fore
SplineSet
60 1011 m 1
 234 1011 l 1
 354 1658 l 1
 60 1658 l 1
 60 1011 l 1
EndSplineSet
EndChar

StartChar: r
Encoding: 114 114 402
Width: 790
VWidth: 0
Flags: HW
LayerCount: 2
UndoRedoHistory
Layer: 1
Undoes
EndUndoes
Redoes
EndRedoes
EndUndoRedoHistory
Fore
SplineSet
106 0 m 1
 473 0 l 1
 473 727 l 1
 539 822 617 875 723 882 c 0
 733 883 743 883 753 882 c 1
 753 1188 l 1
 735 1195 718 1198 702 1198 c 0
 614 1198 538 1112 473 978 c 1
 473 1184 l 1
 106 1184 l 1
 106 0 l 1
EndSplineSet
EndChar

StartChar: radical
Encoding: 504 8730 404
Width: 1226
VWidth: 0
Flags: HW
LayerCount: 2
UndoRedoHistory
Layer: 1
Undoes
EndUndoes
Redoes
EndRedoes
EndUndoRedoHistory
Fore
SplineSet
497 0 m 1
 938 0 l 1
 1203 1658 l 1
 836 1658 l 1
 774 1009 l 1
 720 489 l 1
 655 1009 l 1
 629 1184 l 1
 67 1184 l 1
 67 950 l 1
 332 950 l 1
 497 0 l 1
EndSplineSet
EndChar

StartChar: registered
Encoding: 174 174 407
Width: 1824
VWidth: 0
Flags: HW
HStem: -28 109<658.755 1165.24> 1176 167<904 989.311> 1571 113<658.755 1164.91>
VStem: 98 123<546.329 1099.92> 1020 268<927.789 1154.77> 1600 126<545.917 1099.92>
LayerCount: 2
UndoRedoHistory
Layer: 1
Undoes
EndUndoes
Redoes
EndRedoes
EndUndoRedoHistory
Fore
SplineSet
913 -28 m 0
 1493 -28 1726 415 1726 828 c 0
 1726 1241 1491 1684 913 1684 c 0
 333 1684 98 1241 98 828 c 0
 98 417 333 -28 913 -28 c 0
912 81 m 0
 430 81 221 454 221 827 c 0
 221 1202 430 1571 912 1571 c 0
 1390 1571 1600 1202 1600 827 c 0
 1600 454 1390 81 912 81 c 0
850 902 m 1
 850 1176 l 1
 904 1176 l 2
 986 1176 1020 1123 1020 1044 c 0
 1020 967 990 902 889 902 c 2
 850 902 l 1
558 318 m 1
 850 318 l 1
 850 757 l 1
 887 757 l 1
 1016 318 l 1
 1324 318 l 1
 1148 813 l 1
 1264 868 1288 944 1288 1071 c 0
 1288 1292 1139 1343 906 1343 c 2
 558 1343 l 1
 558 318 l 1
EndSplineSet
EndChar

StartChar: ring
Encoding: 507 730 408
Width: 24
VWidth: 0
Flags: HW
HStem: 1236 119<-78.0742 83.7582> 1565 119<-78.0742 83.5579>
VStem: -238 143<1371.11 1548.98> 99 147<1370.46 1549.44>
LayerCount: 2
UndoRedoHistory
Layer: 1
Undoes
EndUndoes
Redoes
EndRedoes
EndUndoRedoHistory
Fore
SplineSet
3 1355 m 0
 -62 1355 -95 1406 -95 1460 c 0
 -95 1513 -62 1565 3 1565 c 0
 68 1565 99 1513 99 1460 c 0
 99 1406 68 1355 3 1355 c 0
3 1236 m 0
 131 1236 246 1310 246 1460 c 0
 246 1610 130 1684 3 1684 c 0
 -124 1684 -238 1611 -238 1460 c 0
 -238 1310 -124 1236 3 1236 c 0
EndSplineSet
EndChar

StartChar: s
Encoding: 115 115 409
Width: 897
VWidth: 0
Flags: HW
VStem: 519 347<230.943 352.967>
AnchorPoint: "cedilla" 370 0 basechar 0
LayerCount: 2
UndoRedoHistory
Layer: 1
Undoes
EndUndoes
Redoes
EndRedoes
EndUndoRedoHistory
Fore
SplineSet
473 -22 m 0
 669 -22 866 96 866 305 c 0
 866 457 745 554 638 646 c 2
 592 685 l 2
 499 765 391 841 396 899 c 1
 397 926 420 956 468 952 c 0
 530 947 590 855 614 790 c 1
 850 904 l 1
 785 1104 643 1206 446 1206 c 0
 248 1206 64 1064 64 868 c 1
 62 741 179 606 284 517 c 2
 336 473 l 2
 414 407 518 335 519 287 c 0
 520 250 494 225 463 221 c 0
 398 213 329 285 279 379 c 1
 36 264 l 1
 140 51 273 -22 473 -22 c 0
EndSplineSet
EndChar

StartChar: section
Encoding: 167 167 415
Width: 996
VWidth: 0
Flags: HW
HStem: -13 249<409.087 592.121> 1485 243<419.885 605.772>
VStem: 607 280<252.796 425.359 777.679 912.462>
LayerCount: 2
UndoRedoHistory
Layer: 1
Undoes
EndUndoes
Redoes
EndRedoes
EndUndoRedoHistory
Fore
SplineSet
536 761 m 1
 403 833 l 2
 376 847 368 876 368 896 c 0
 368 934 399 964 455 977 c 1
 550 922 l 2
 599 893 610 861 610 844 c 0
 610 803 570 781 536 761 c 1
489 -13 m 0
 746 -13 887 137 887 334 c 0
 887 456 826 540 708 635 c 1
 805 700 875 762 875 872 c 0
 876 999 785 1092 674 1159 c 2
 553 1233 l 2
 502 1264 402 1306 402 1398 c 0
 402 1456 445 1483 504 1485 c 0
 600 1488 641 1406 663 1324 c 1
 894 1376 l 1
 846 1578 711 1728 491 1728 c 0
 271 1728 74 1602 89 1380 c 0
 97 1269 195 1161 281 1115 c 1
 197 1091 114 1008 103 892 c 1
 93 771 164 688 258 630 c 2
 423 529 l 2
 554 449 607 404 607 325 c 1
 606 273 566 236 497 236 c 0
 419 236 360 329 338 390 c 1
 100 331 l 1
 149 137 269 -13 489 -13 c 0
EndSplineSet
EndChar

StartChar: semicolon
Encoding: 59 59 416
Width: 624
VWidth: 0
Flags: HW
HStem: -283 110<196 278.903>
VStem: 334 149<-117.93 5>
LayerCount: 2
UndoRedoHistory
Layer: 1
Undoes
EndUndoes
Redoes
EndRedoes
EndUndoRedoHistory
Fore
SplineSet
141 849 m 1
 481 849 l 1
 481 1183 l 1
 141 1183 l 1
 141 849 l 1
196 -283 m 1
 388 -282 483 -161 483 58 c 2
 484 342 l 1
 143 342 l 1
 143 5 l 1
 334 5 l 1
 334 -123 253 -157 180 -173 c 1
 196 -283 l 1
EndSplineSet
EndChar

StartChar: seven
Encoding: 55 55 417
Width: 1113
VWidth: 0
Flags: HW
LayerCount: 2
UndoRedoHistory
Layer: 1
Undoes
EndUndoes
Redoes
EndRedoes
EndUndoRedoHistory
Fore
SplineSet
237 0 m 1
 607 0 l 1
 984 1386 l 1
 984 1658 l 1
 162 1658 l 1
 162 1374 l 1
 617 1374 l 1
 237 0 l 1
EndSplineSet
EndChar

StartChar: six
Encoding: 54 54 418
Width: 1123
VWidth: 0
Flags: HW
HStem: -27 273<513.263 642.372> 760 288<527.15 643.558> 1403 281<505.736 638.174>
VStem: 103 385<262.972 519 706 747.576 1080 1390.59> 662 379<257.481 748.76>
CounterMasks: 1 e0
LayerCount: 2
UndoRedoHistory
Layer: 1
Undoes
EndUndoes
Redoes
EndRedoes
EndUndoRedoHistory
Fore
SplineSet
582 246 m 0
 504 246 488 333 488 430 c 2
 488 706 l 1
 499 727 536 760 578 760 c 0
 660 760 662 669 662 520 c 0
 662 328 658 246 582 246 c 0
576 -27 m 0
 940 -27 1041 211 1041 571 c 0
 1041 838 943 1057 681 1048 c 0
 598 1045 519 1018 488 963 c 1
 488 1080 l 2
 488 1342 490 1403 577 1403 c 0
 653 1403 651 1348 651 1221 c 1
 1002 1221 l 1
 1002 1221 1002 1251 1002 1252 c 0
 1002 1532 908 1684 574 1684 c 0
 190 1684 103 1455 103 1130 c 2
 103 519 l 2
 103 199 239 -27 576 -27 c 0
EndSplineSet
EndChar

StartChar: slash
Encoding: 47 47 419
Width: 897
VWidth: 0
Flags: HW
LayerCount: 2
UndoRedoHistory
Layer: 1
Undoes
EndUndoes
Redoes
EndRedoes
EndUndoRedoHistory
Fore
SplineSet
97 0 m 1
 273 0 l 1
 799 1658 l 1
 623 1658 l 1
 97 0 l 1
EndSplineSet
EndChar

StartChar: sterling
Encoding: 163 163 421
Width: 1058
VWidth: 0
Flags: HW
VStem: 178 351<1105 1361.77> 667 330<1162 1363.57>
LayerCount: 2
UndoRedoHistory
Layer: 1
Undoes
EndUndoes
Redoes
EndRedoes
EndUndoRedoHistory
Fore
SplineSet
55 0 m 1
 984 0 l 1
 984 316 l 1
 529 316 l 1
 529 638 l 1
 772 638 l 1
 772 924 l 1
 529 924 l 1
 529 1105 l 2
 529 1283 529 1375 597 1375 c 0
 666 1375 667 1286 667 1162 c 1
 997 1162 l 1
 997 1206 l 1
 996 1481 933 1684 594 1684 c 0
 218 1684 178 1432 178 1112 c 2
 178 926 l 1
 55 926 l 1
 55 638 l 1
 178 638 l 1
 178 268 l 1
 55 211 l 1
 55 0 l 1
EndSplineSet
EndChar

StartChar: summation
Encoding: 513 8721 422
Width: 892
VWidth: 0
Flags: HW
LayerCount: 2
UndoRedoHistory
Layer: 1
Undoes
EndUndoes
Redoes
EndRedoes
EndUndoRedoHistory
Fore
SplineSet
55 -390 m 1
 858 -390 l 1
 858 -119 l 1
 472 -119 l 1
 696 691 l 1
 480 1386 l 1
 854 1386 l 1
 854 1658 l 1
 55 1658 l 1
 292 683 l 1
 55 -390 l 1
EndSplineSet
EndChar

StartChar: t
Encoding: 116 116 423
Width: 751
VWidth: 0
Flags: HW
HStem: -13 302<512.035 697.228>
AnchorPoint: "cedilla" 340 0 basechar 0
LayerCount: 2
UndoRedoHistory
Layer: 1
Undoes
EndUndoes
Redoes
EndRedoes
EndUndoRedoHistory
Fore
SplineSet
443 -13 m 0
 573 -19 662 -1 699 6 c 1
 699 299 l 1
 697 298 653 286 606 289 c 0
 552 292 501 316 501 377 c 2
 501 945 l 1
 664 945 l 1
 664 1184 l 1
 501 1184 l 1
 501 1549 l 1
 130 1549 l 1
 130 1184 l 1
 19 1184 l 1
 19 945 l 1
 130 945 l 1
 130 461 l 2
 130 228 155 -1 443 -13 c 0
EndSplineSet
EndChar

StartChar: tbar
Encoding: 514 359 424
Width: 745
VWidth: 0
Flags: HW
HStem: -13 302<512.035 697.228>
LayerCount: 2
UndoRedoHistory
Layer: 1
Undoes
EndUndoes
Redoes
EndRedoes
EndUndoRedoHistory
Fore
SplineSet
659 599 m 1
 659 752 l 1
 19 752 l 1
 19 599 l 1
 659 599 l 1
EndSplineSet
Refer: 423 116 N 1 0 0 1 0 0 2
EndChar

StartChar: thorn
Encoding: 254 254 427
Width: 1039
VWidth: 0
Flags: HW
VStem: 599 368<217.47 310 885 990.519>
LayerCount: 2
UndoRedoHistory
Layer: 1
Undoes
EndUndoes
Redoes
EndRedoes
EndUndoRedoHistory
Fore
SplineSet
525 206 m 0
 504 206 480 216 456 230 c 1
 456 963 l 1
 482 982 506 994 524 997 c 0
 572 1003 599 963 599 918 c 2
 599 286 l 2
 599 241 572 205 525 206 c 0
89 -390 m 1
 456 -390 l 1
 456 89 l 1
 541 19 633 -22 719 -22 c 0
 867 -22 967 98 967 310 c 2
 967 885 l 2
 967 1091 878 1199 720 1206 c 0
 641 1209 546 1176 456 1100 c 1
 456 1658 l 1
 89 1658 l 1
 89 -390 l 1
EndSplineSet
EndChar

StartChar: three
Encoding: 51 51 428
Width: 1121
VWidth: 0
Flags: HW
HStem: -34 319<508.271 653.615> 720 240<502 626.71> 1386 301<504.8 643.002>
VStem: 105 378<304.263 514 1201 1370.58> 672 372<300.946 677.732 1011.85 1365.23>
CounterMasks: 1 e0
LayerCount: 2
UndoRedoHistory
Layer: 1
Undoes
EndUndoes
Redoes
EndRedoes
EndUndoRedoHistory
Fore
SplineSet
577 -34 m 0
 919 -34 1044 187 1044 493 c 0
 1044 733 956 825 851 866 c 1
 956 893 1044 1038 1044 1231 c 0
 1044 1535 863 1687 571 1687 c 0
 285 1687 105 1521 105 1212 c 2
 105 1099 l 1
 483 1099 l 1
 483 1099 483 1200 483 1201 c 0
 483 1311 498 1386 572 1386 c 0
 647 1386 672 1325 672 1202 c 0
 672 1039 644 960 502 960 c 2
 439 960 l 1
 439 720 l 1
 439 720 508 720 509 720 c 0
 646 719 672 643 672 481 c 0
 672 342 657 285 583 285 c 0
 507 285 483 337 483 508 c 2
 483 508 483 572 483 573 c 1
 105 573 l 1
 105 514 l 2
 105 190 206 -34 577 -34 c 0
EndSplineSet
EndChar

StartChar: threequarters
Encoding: 190 190 429
Width: 1320
VWidth: 0
Flags: HW
HStem: 903 144<246.788 354.123> 1216 122<232 353.604> 1515 144<243.424 357.728>
VStem: 97 142<1052.07 1128 1433 1508.02> 360 158<1048.73 1207.2 1347.86 1512.97>
CounterMasks: 1 e0
LayerCount: 2
UndoRedoHistory
Layer: 1
Undoes
EndUndoes
Redoes
EndRedoes
EndUndoRedoHistory
Fore
SplineSet
812 390 m 1
 959 644 l 1
 959 390 l 1
 812 390 l 1
151 0 m 1
 309 0 l 1
 1153 1658 l 1
 994 1658 l 1
 151 0 l 1
959 0 m 1
 1126 0 l 1
 1126 226 l 1
 1229 226 l 1
 1229 390 l 1
 1126 390 l 1
 1126 849 l 1
 975 849 l 1
 693 379 l 1
 693 226 l 1
 959 226 l 1
 959 0 l 1
316 903 m 0
 451 903 518 985 518 1130 c 0
 518 1219 485 1274 402 1291 c 1
 454 1299 513 1361 513 1447 c 0
 513 1583 457 1659 321 1659 c 0
 184 1659 97 1595 97 1433 c 1
 239 1433 l 1
 239 1482 253 1515 304 1515 c 0
 346 1515 363 1485 363 1427 c 0
 363 1355 325 1338 232 1338 c 1
 232 1216 l 1
 326 1216 360 1206 360 1127 c 0
 360 1080 344 1047 306 1047 c 0
 269 1047 239 1072 239 1128 c 1
 97 1128 l 1
 97 994 176 903 316 903 c 0
EndSplineSet
EndChar

StartChar: uni00B3
Encoding: 179 179 430
Width: 878
VWidth: 0
Flags: HW
HStem: 602 229<402.633 511.59> 1142 171<400 498.62> 1621 217<399.89 509.012>
VStem: 115 271<836.984 997 1489 1610> 522 268<835.123 1123.53 1333.62 1614.48>
CounterMasks: 1 e0
LayerCount: 2
UndoRedoHistory
Layer: 1
Undoes
EndUndoes
Redoes
EndRedoes
EndUndoRedoHistory
Fore
SplineSet
455 602 m 0
 700 602 790 760 790 980 c 0
 790 1153 726 1218 652 1247 c 1
 726 1266 790 1371 790 1509 c 0
 790 1729 660 1838 450 1838 c 0
 245 1838 115 1718 115 1496 c 2
 115 1412 l 1
 386 1412 l 1
 386 1489 l 2
 386 1568 399 1621 451 1621 c 0
 504 1621 522 1577 522 1489 c 0
 522 1372 502 1313 400 1313 c 2
 353 1313 l 1
 353 1142 l 1
 405 1142 l 2
 503 1142 522 1087 522 971 c 0
 522 872 510 831 459 831 c 0
 405 831 386 869 386 992 c 2
 386 1041 l 1
 115 1041 l 1
 115 997 l 2
 115 764 187 602 455 602 c 0
EndSplineSet
EndChar

StartChar: tilde
Encoding: 517 732 431
Width: 868
VWidth: 0
Flags: HW
VStem: 116 170<1360 1438.94> 618 154<1586.55 1658>
LayerCount: 2
UndoRedoHistory
Layer: 1
Undoes
EndUndoes
Redoes
EndRedoes
EndUndoRedoHistory
Fore
SplineSet
647 1350 m 0
 761 1361 773 1522 772 1658 c 1
 618 1658 l 1
 618 1618 605 1576 555 1585 c 0
 505 1593 411 1683 283 1670 c 1
 142 1657 115 1538 116 1360 c 1
 286 1360 l 1
 286 1396 296 1444 345 1444 c 0
 417 1444 548 1340 647 1350 c 0
EndSplineSet
EndChar

StartChar: tildecomb
Encoding: 518 771 432
Width: 868
VWidth: 0
Flags: HW
VStem: 116 170<1360 1438.94> 618 154<1586.55 1658>
LayerCount: 2
UndoRedoHistory
Layer: 1
Undoes
EndUndoes
Redoes
EndRedoes
EndUndoRedoHistory
Fore
SplineSet
647 1350 m 0
 761 1361 773 1522 772 1658 c 1
 618 1658 l 1
 618 1618 605 1576 555 1585 c 0
 505 1593 411 1683 283 1670 c 1
 142 1657 115 1538 116 1360 c 1
 286 1360 l 1
 286 1396 296 1444 345 1444 c 0
 417 1444 548 1340 647 1350 c 0
EndSplineSet
EndChar

StartChar: trademark
Encoding: 519 8482 433
Width: 1860
VWidth: 0
Flags: HW
HStem: 1184 20G<1037 1042.92 1483.17 1489>
LayerCount: 2
UndoRedoHistory
Layer: 1
Undoes
EndUndoes
Redoes
EndRedoes
EndUndoRedoHistory
Fore
SplineSet
323 623 m 1
 563 623 l 1
 563 1451 l 1
 759 1451 l 1
 759 1658 l 1
 121 1658 l 1
 121 1451 l 1
 323 1451 l 1
 323 623 l 1
832 623 m 1
 1037 623 l 1
 1037 1204 l 1
 1209 623 l 1
 1321 623 l 1
 1489 1199 l 1
 1489 623 l 1
 1696 623 l 1
 1696 1658 l 1
 1421 1658 l 1
 1261 1049 l 1
 1099 1658 l 1
 832 1658 l 1
 832 623 l 1
EndSplineSet
EndChar

StartChar: two
Encoding: 50 50 434
Width: 1122
VWidth: 0
Flags: HW
VStem: 688 373<1085.99 1347.85>
LayerCount: 2
UndoRedoHistory
Layer: 1
Undoes
EndUndoes
Redoes
EndRedoes
EndUndoRedoHistory
Fore
SplineSet
122 0 m 1
 1013 0 l 1
 1013 292 l 1
 541 292 l 1
 822 707 l 1
 935 871 1061 1034 1061 1244 c 0
 1061 1521 902 1687 594 1687 c 0
 250 1687 113 1456 113 1164 c 2
 113 1068 l 1
 477 1068 l 1
 477 1156 l 2
 477 1302 512 1348 569 1362 c 0
 632 1378 688 1343 688 1250 c 0
 688 1118 578 974 507 864 c 2
 122 267 l 1
 122 0 l 1
EndSplineSet
EndChar

StartChar: uni00B2
Encoding: 178 178 435
Width: 879
VWidth: 0
Flags: HW
VStem: 126 266<1393 1591.34> 536 265<1387.55 1600.57>
LayerCount: 2
UndoRedoHistory
Layer: 1
Undoes
EndUndoes
Redoes
EndRedoes
EndUndoRedoHistory
Fore
SplineSet
132 624 m 1
 767 624 l 1
 767 839 l 1
 444 839 l 1
 631 1132 l 2
 708 1253 801 1368 801 1519 c 0
 801 1718 674 1838 463 1838 c 0
 223 1838 126 1671 126 1461 c 2
 126 1393 l 1
 392 1393 l 1
 392 1544 403 1591 451 1604 c 1
 496 1615 536 1590 536 1523 c 0
 536 1427 458 1337 407 1259 c 2
 132 838 l 1
 132 624 l 1
EndSplineSet
EndChar

StartChar: u
Encoding: 117 117 436
Width: 1069
VWidth: 0
Flags: HW
AnchorPoint: "ogonek" 640 0 basechar 0
LayerCount: 2
UndoRedoHistory
Layer: 1
Undoes
EndUndoes
Redoes
EndRedoes
EndUndoRedoHistory
Fore
SplineSet
322 -22 m 0
 420 -22 512 24 600 107 c 1
 600 0 l 1
 966 0 l 1
 966 1184 l 1
 600 1184 l 1
 600 246 l 1
 568 229 540 221 519 220 c 0
 475 218 457 245 457 294 c 2
 457 1184 l 1
 91 1184 l 1
 91 265 l 2
 91 94 177 -22 322 -22 c 0
EndSplineSet
EndChar

StartChar: underscore
Encoding: 95 95 444
Width: 767
VWidth: 0
Flags: HW
HStem: -360 240
LayerCount: 2
UndoRedoHistory
Layer: 1
Undoes
EndUndoes
Redoes
EndRedoes
EndUndoRedoHistory
Fore
SplineSet
0 -360 m 1
 767 -360 l 1
 767 -120 l 1
 0 -120 l 1
 0 -360 l 1
EndSplineSet
EndChar

StartChar: uni00AD
Encoding: 173 173 446
Width: 778
VWidth: 0
Flags: HW
HStem: 408 227
VStem: 137 524
LayerCount: 2
UndoRedoHistory
Layer: 1
Undoes
EndUndoes
Redoes
EndRedoes
EndUndoRedoHistory
Fore
SplineSet
137 408 m 1
 661 408 l 1
 661 635 l 1
 137 635 l 1
 137 408 l 1
EndSplineSet
EndChar

StartChar: uni0237
Encoding: 563 567 487
Width: 575
VWidth: 0
Flags: HW
HStem: -390 284<-16.0774 283>
AnchorPoint: "circumflexcomb" 215 1188 basechar 0
LayerCount: 2
UndoRedoHistory
Layer: 1
Undoes
EndUndoes
Redoes
EndRedoes
EndUndoRedoHistory
Fore
SplineSet
-18 -360 m 1
 44 -377 108 -390 179 -390 c 0
 387 -390 489 -252 489 -64 c 2
 489 1184 l 1
 123 1184 l 1
 123 -19 l 2
 123 -86 86 -106 41 -106 c 0
 22 -106 2 -101 -18 -97 c 1
 -18 -360 l 1
EndSplineSet
EndChar

StartChar: uni0302
Encoding: 565 770 489
Width: 869
VWidth: 0
Flags: HW
HStem: 1255 403
AnchorPoint: "circumflexcomb" 328 1225 mark 0
LayerCount: 2
UndoRedoHistory
Layer: 1
Undoes
EndUndoes
Redoes
EndRedoes
EndUndoRedoHistory
Fore
SplineSet
100 1255 m 1
 367 1255 l 1
 445 1499 l 1
 525 1255 l 1
 792 1255 l 1
 586 1658 l 1
 298 1658 l 1
 100 1255 l 1
EndSplineSet
EndChar

StartChar: uni0304
Encoding: 566 772 490
Width: 291
VWidth: 0
Flags: HW
HStem: 1496 162
VStem: -154 613
LayerCount: 2
UndoRedoHistory
Layer: 1
Undoes
EndUndoes
Redoes
EndRedoes
EndUndoRedoHistory
Fore
SplineSet
-154 1496 m 1
 459 1496 l 1
 459 1658 l 1
 -154 1658 l 1
 -154 1496 l 1
EndSplineSet
EndChar

StartChar: uni0306
Encoding: 567 774 491
Width: 652
VWidth: 0
Flags: HW
HStem: 1420 138<182.329 432.045>
VStem: 18 149<1576.99 1658> 448 148<1577.36 1658>
LayerCount: 2
UndoRedoHistory
Layer: 1
Undoes
EndUndoes
Redoes
EndRedoes
EndUndoRedoHistory
Fore
SplineSet
307 1420 m 0
 476 1420 596 1500 596 1658 c 1
 448 1658 l 1
 448 1591 407 1558 307 1558 c 0
 207 1558 167 1590 167 1658 c 1
 18 1658 l 1
 18 1499 138 1420 307 1420 c 0
EndSplineSet
EndChar

StartChar: uni0307
Encoding: 568 775 492
Width: 498
VWidth: 0
Flags: HW
HStem: 1322 336
VStem: 76 344
LayerCount: 2
UndoRedoHistory
Layer: 1
Undoes
EndUndoes
Redoes
EndRedoes
EndUndoRedoHistory
Fore
SplineSet
76 1322 m 1
 420 1322 l 1
 420 1658 l 1
 76 1658 l 1
 76 1322 l 1
EndSplineSet
EndChar

StartChar: uni0308
Encoding: 569 776 493
Width: 884
VWidth: 0
Flags: HW
HStem: 1334 324
LayerCount: 2
UndoRedoHistory
Layer: 1
Undoes
EndUndoes
Redoes
EndRedoes
EndUndoRedoHistory
Fore
SplineSet
537 1334 m 1
 817 1334 l 1
 817 1658 l 1
 537 1658 l 1
 537 1334 l 1
67 1334 m 1
 346 1334 l 1
 346 1658 l 1
 67 1658 l 1
 67 1334 l 1
EndSplineSet
EndChar

StartChar: uni030A
Encoding: 570 778 494
Width: 24
VWidth: 0
Flags: HW
HStem: 1236 119<-78.0742 83.7582> 1565 119<-78.0742 83.5579>
VStem: -238 143<1371.11 1548.98> 99 147<1370.46 1549.44>
LayerCount: 2
UndoRedoHistory
Layer: 1
Undoes
EndUndoes
Redoes
EndRedoes
EndUndoRedoHistory
Fore
SplineSet
3 1355 m 0
 -62 1355 -95 1406 -95 1460 c 0
 -95 1513 -62 1565 3 1565 c 0
 68 1565 99 1513 99 1460 c 0
 99 1406 68 1355 3 1355 c 0
3 1236 m 0
 131 1236 246 1310 246 1460 c 0
 246 1610 130 1684 3 1684 c 0
 -124 1684 -238 1611 -238 1460 c 0
 -238 1310 -124 1236 3 1236 c 0
EndSplineSet
EndChar

StartChar: uni030C
Encoding: 571 780 495
Width: 833
VWidth: 0
Flags: HW
HStem: 1270 388
LayerCount: 2
UndoRedoHistory
Layer: 1
Undoes
EndUndoes
Redoes
EndRedoes
EndUndoRedoHistory
Fore
SplineSet
241 1270 m 1
 590 1270 l 1
 774 1658 l 1
 517 1658 l 1
 416 1440 l 1
 320 1658 l 1
 64 1658 l 1
 241 1270 l 1
EndSplineSet
EndChar

StartChar: uni030F
Encoding: 572 783 496
Width: 994
VWidth: 0
Flags: HW
HStem: 1266 444
LayerCount: 2
UndoRedoHistory
Layer: 1
Undoes
EndUndoes
Redoes
EndRedoes
EndUndoRedoHistory
Fore
SplineSet
671 1266 m 1
 869 1266 l 1
 735 1710 l 1
 475 1710 l 1
 671 1266 l 1
286 1266 m 1
 488 1266 l 1
 353 1710 l 1
 89 1710 l 1
 286 1266 l 1
EndSplineSet
EndChar

StartChar: uni0311
Encoding: 573 785 497
Width: 652
VWidth: 0
Flags: HW
HStem: 1520 138<208.462 405.692>
VStem: 47 149<1420 1506.22> 417 150<1420 1506.61>
LayerCount: 2
UndoRedoHistory
Layer: 1
Undoes
EndUndoes
Redoes
EndRedoes
EndUndoRedoHistory
Fore
SplineSet
47 1420 m 1
 196 1420 l 1
 196 1486 226 1520 307 1520 c 0
 388 1520 417 1487 417 1420 c 1
 567 1420 l 1
 567 1578 456 1658 307 1658 c 0
 158 1658 47 1577 47 1420 c 1
EndSplineSet
EndChar

StartChar: uni0326
Encoding: 574 806 498
Width: 451
VWidth: 0
Flags: HW
HStem: -693 111<101 183.442>
VStem: 237 150<-526.961 -404>
LayerCount: 2
UndoRedoHistory
Layer: 1
Undoes
EndUndoes
Redoes
EndRedoes
EndUndoRedoHistory
Fore
SplineSet
101 -693 m 1
 292 -691 386 -570 387 -351 c 1
 387 -67 l 1
 46 -67 l 1
 46 -404 l 1
 237 -404 l 1
 237 -532 156 -566 84 -582 c 1
 101 -693 l 1
EndSplineSet
EndChar

StartChar: afii10050
Encoding: 579 1168 503
Width: 993
VWidth: 0
Flags: HW
LayerCount: 2
UndoRedoHistory
Layer: 1
Undoes
EndUndoes
Redoes
EndRedoes
EndUndoRedoHistory
Fore
SplineSet
130 0 m 1
 535 0 l 1
 535 1358 l 1
 935 1358 l 1
 935 1941 l 1
 700 1941 l 1
 700 1658 l 1
 130 1658 l 1
 130 0 l 1
EndSplineSet
EndChar

StartChar: uni04AE
Encoding: 580 -1 504
Width: 1014
VWidth: 0
Flags: HW
LayerCount: 2
UndoRedoHistory
Layer: 1
Undoes
EndUndoes
Redoes
EndRedoes
EndUndoRedoHistory
Fore
SplineSet
315 0 m 1
 704 0 l 1
 704 711 l 1
 1002 1658 l 1
 635 1658 l 1
 559 1286 l 1
 526 1083 l 1
 484 1288 l 1
 395 1658 l 1
 12 1658 l 1
 315 711 l 1
 315 0 l 1
EndSplineSet
EndChar

StartChar: uni04AF
Encoding: 581 1199 505
Width: 951
VWidth: 0
Flags: HW
LayerCount: 2
UndoRedoHistory
Layer: 1
Undoes
EndUndoes
Redoes
EndRedoes
EndUndoRedoHistory
Fore
SplineSet
328 -361 m 1
 646 -361 l 1
 646 192 l 1
 929 1184 l 1
 608 1184 l 1
 482 620 l 1
 321 1184 l 1
 0 1184 l 1
 328 190 l 1
 328 -361 l 1
EndSplineSet
EndChar

StartChar: uni04B0
Encoding: 582 1200 506
Width: 1043
VWidth: 0
Flags: HW
LayerCount: 2
UndoRedoHistory
Layer: 1
Undoes
EndUndoes
Redoes
EndRedoes
EndUndoRedoHistory
Fore
SplineSet
43 574 m 1
 1020 574 l 1
 1020 820 l 1
 43 820 l 1
 43 574 l 1
EndSplineSet
Refer: 504 -1 N 1 0 0 1 18 0 2
EndChar

StartChar: uni04B1
Encoding: 583 1201 507
Width: 951
VWidth: 0
Flags: HW
LayerCount: 2
UndoRedoHistory
Layer: 1
Undoes
EndUndoes
Redoes
EndRedoes
EndUndoRedoHistory
Fore
SplineSet
86 -1 m 1
 879 -1 l 1
 879 203 l 1
 86 203 l 1
 86 -1 l 1
EndSplineSet
Refer: 505 1199 N 1 0 0 1 0 0 2
EndChar

StartChar: uni04E8
Encoding: 584 1256 508
Width: 1227
VWidth: 0
Flags: HW
HStem: -26 281<538.564 685.856> 1403 281<538.564 685.856>
VStem: 100 417<278.675 523 1135 1379.76> 710 417<278.675 523 1135 1379.76>
LayerCount: 2
UndoRedoHistory
Layer: 1
Undoes
EndUndoes
Redoes
EndRedoes
EndUndoRedoHistory
Fore
SplineSet
305 743 m 1
 906 743 l 1
 906 989 l 1
 305 989 l 1
 305 743 l 1
EndSplineSet
Refer: 69 79 N 1 0 0 1 0 0 2
EndChar

StartChar: uni04E9
Encoding: 585 1257 509
Width: 1025
VWidth: 0
Flags: HW
HStem: -22 240<450.323 572.16> 966 240<450.323 572.16>
VStem: 78 361<222.794 352 832 961.206> 586 361<232.128 352 832 960.824>
LayerCount: 2
UndoRedoHistory
Layer: 1
Undoes
EndUndoes
Redoes
EndRedoes
EndUndoRedoHistory
Fore
SplineSet
266 511 m 1
 772 511 l 1
 772 677 l 1
 266 677 l 1
 266 511 l 1
EndSplineSet
Refer: 360 111 N 1 0 0 1 0 0 2
EndChar

StartChar: uni2074
Encoding: 600 8308 524
Width: 999
VWidth: 0
Flags: HW
LayerCount: 2
UndoRedoHistory
Layer: 1
Undoes
EndUndoes
Redoes
EndRedoes
EndUndoRedoHistory
Fore
SplineSet
266 867 m 1
 461 1287 l 1
 461 867 l 1
 266 867 l 1
461 409 m 1
 795 409 l 1
 795 700 l 1
 926 700 l 1
 926 867 l 1
 795 867 l 1
 795 1658 l 1
 452 1658 l 1
 82 863 l 1
 82 700 l 1
 461 700 l 1
 461 409 l 1
EndSplineSet
EndChar

StartChar: uni2215
Encoding: 601 8725 525
Width: 896
VWidth: 0
Flags: HW
LayerCount: 2
UndoRedoHistory
Layer: 1
Undoes
EndUndoes
Redoes
EndRedoes
EndUndoRedoHistory
Fore
SplineSet
97 0 m 1
 273 0 l 1
 799 1658 l 1
 623 1658 l 1
 97 0 l 1
EndSplineSet
EndChar

StartChar: uni2219
Encoding: 602 8729 526
Width: 491
VWidth: 0
Flags: HW
HStem: 603 334
VStem: 75 342
LayerCount: 2
UndoRedoHistory
Layer: 1
Undoes
EndUndoes
Redoes
EndRedoes
EndUndoRedoHistory
Fore
SplineSet
75 603 m 1
 417 603 l 1
 417 937 l 1
 75 937 l 1
 75 603 l 1
EndSplineSet
EndChar

StartChar: uniFB01
Encoding: 604 64257 528
Width: 1165
VWidth: 0
Flags: HW
HStem: 1370 257<502.939 606>
LayerCount: 2
UndoRedoHistory
Layer: 1
Undoes
EndUndoes
Redoes
EndRedoes
EndUndoRedoHistory
Fore
SplineSet
725 1390 m 1
 1066 1390 l 1
 1066 1625 l 1
 725 1625 l 1
 725 1390 l 1
131 0 m 1
 498 0 l 1
 498 941 l 1
 704 941 l 1
 704 0 l 1
 1066 0 l 1
 1066 1184 l 1
 498 1184 l 1
 498 1285 l 2
 498 1354 530 1370 568 1370 c 0
 581 1370 594 1368 606 1366 c 1
 606 1614 l 1
 551 1623 501 1627 457 1627 c 0
 201 1627 131 1483 131 1280 c 2
 131 1184 l 1
 27 1184 l 1
 27 941 l 1
 131 941 l 1
 131 0 l 1
EndSplineSet
EndChar

StartChar: uniFB02
Encoding: 605 64258 529
Width: 1151
VWidth: 0
Flags: HW
HStem: 1415 242<514.433 698.556>
LayerCount: 2
UndoRedoHistory
Layer: 1
Undoes
EndUndoes
Redoes
EndRedoes
EndUndoRedoHistory
Fore
SplineSet
488 929 m 1
 597 929 l 1
 597 1184 l 1
 488 1184 l 1
 488 1276 l 2
 488 1352 499 1415 646 1415 c 0
 663 1415 682 1415 702 1413 c 1
 702 0 l 1
 1069 0 l 1
 1069 1614 l 1
 886 1644 739 1657 620 1657 c 0
 156 1657 121 1458 121 1280 c 2
 121 1184 l 1
 17 1184 l 1
 17 929 l 1
 121 929 l 1
 121 0 l 1
 488 0 l 1
 488 929 l 1
EndSplineSet
EndChar

StartChar: uniFB03
Encoding: 606 64259 530
Width: 1686
VWidth: 0
Flags: HW
HStem: 1184 21G<488 680> 1350 274<490.34 601 1048.71 1165>
LayerCount: 2
UndoRedoHistory
Layer: 1
Undoes
EndUndoes
Redoes
EndRedoes
EndUndoRedoHistory
Fore
SplineSet
121 0 m 1
 488 0 l 1
 488 944 l 1
 680 944 l 1
 680 0 l 1
 1046 0 l 1
 1046 944 l 1
 1233 944 l 1
 1233 0 l 1
 1600 0 l 1
 1600 1184 l 1
 1046 1184 l 1
 1046 1278 l 2
 1046 1335 1073 1350 1106 1350 c 0
 1125 1350 1146 1345 1165 1342 c 1
 1165 1614 l 1
 1103 1621 1073 1624 1024 1624 c 0
 718 1624 680 1485 680 1280 c 2
 680 1184 l 1
 488 1184 l 1
 488 1278 l 2
 488 1335 511 1350 544 1350 c 0
 562 1350 582 1345 601 1342 c 1
 601 1614 l 1
 539 1621 515 1624 466 1624 c 0
 159 1624 121 1485 121 1280 c 2
 121 1184 l 1
 17 1184 l 1
 17 944 l 1
 121 944 l 1
 121 0 l 1
1270 1390 m 1
 1600 1390 l 1
 1600 1625 l 1
 1270 1625 l 1
 1270 1390 l 1
EndSplineSet
EndChar

StartChar: v
Encoding: 118 118 535
Width: 884
VWidth: 0
Flags: HW
LayerCount: 2
UndoRedoHistory
Layer: 1
Undoes
EndUndoes
Redoes
EndRedoes
EndUndoRedoHistory
Fore
SplineSet
256 0 m 1
 625 0 l 1
 874 1184 l 1
 525 1184 l 1
 450 486 l 1
 366 1184 l 1
 18 1184 l 1
 256 0 l 1
EndSplineSet
EndChar

StartChar: w
Encoding: 119 119 536
Width: 1229
VWidth: 0
Flags: HW
VStem: 496 262<1066.44 1184>
LayerCount: 2
UndoRedoHistory
Layer: 1
Undoes
EndUndoes
Redoes
EndRedoes
EndUndoRedoHistory
Fore
SplineSet
209 0 m 1
 517 0 l 1
 618 616 l 1
 702 0 l 1
 1017 0 l 1
 1190 1184 l 1
 908 1184 l 1
 816 548 l 1
 758 1184 l 1
 496 1184 l 1
 421 569 l 1
 346 1184 l 1
 39 1184 l 1
 209 0 l 1
EndSplineSet
EndChar

StartChar: x
Encoding: 120 120 541
Width: 939
VWidth: 0
Flags: HW
LayerCount: 2
UndoRedoHistory
Layer: 1
Undoes
EndUndoes
Redoes
EndRedoes
EndUndoRedoHistory
Fore
SplineSet
22 0 m 1
 320 0 l 1
 426 303 l 1
 560 0 l 1
 935 0 l 1
 669 601 l 1
 893 1184 l 1
 625 1184 l 1
 525 925 l 1
 410 1184 l 1
 38 1184 l 1
 270 658 l 1
 22 0 l 1
EndSplineSet
EndChar

StartChar: y
Encoding: 121 121 542
Width: 951
VWidth: 0
Flags: HW
HStem: -358 249<150 313.041>
LayerCount: 2
UndoRedoHistory
Layer: 1
Undoes
EndUndoes
Redoes
EndRedoes
EndUndoRedoHistory
Fore
SplineSet
150 -358 m 1
 203 -358 l 1
 400 -361 599 -300 651 -65 c 2
 929 1184 l 1
 588 1184 l 1
 488 558 l 1
 341 1184 l 1
 0 1184 l 1
 3 1171 286 203 290 190 c 0
 301 152 334 28 334 -4 c 0
 335 -99 264 -109 150 -109 c 1
 150 -358 l 1
EndSplineSet
EndChar

StartChar: yen
Encoding: 165 165 546
Width: 984
VWidth: 0
Flags: HW
LayerCount: 2
UndoRedoHistory
Layer: 1
Undoes
EndUndoes
Redoes
EndRedoes
EndUndoRedoHistory
Fore
SplineSet
298 0 m 1
 688 0 l 1
 688 247 l 1
 856 247 l 1
 856 417 l 1
 688 417 l 1
 688 556 l 1
 856 556 l 1
 856 734 l 1
 735 734 l 1
 985 1658 l 1
 619 1658 l 1
 509 1070 l 1
 379 1658 l 1
 -4 1658 l 1
 251 734 l 1
 132 734 l 1
 132 556 l 1
 298 556 l 1
 298 417 l 1
 132 417 l 1
 132 247 l 1
 298 247 l 1
 298 0 l 1
EndSplineSet
EndChar

StartChar: z
Encoding: 122 122 548
Width: 829
VWidth: 0
Flags: HW
LayerCount: 2
UndoRedoHistory
Layer: 1
Undoes
EndUndoes
Redoes
EndRedoes
EndUndoRedoHistory
Fore
SplineSet
73 0 m 1
 776 0 l 1
 776 267 l 1
 451 267 l 1
 767 956 l 1
 767 1184 l 1
 94 1184 l 1
 94 918 l 1
 390 918 l 1
 73 235 l 1
 73 0 l 1
EndSplineSet
EndChar

StartChar: zero
Encoding: 48 48 552
Width: 1123
VWidth: 0
Flags: HW
HStem: -34 341<503.985 621.427> 1343 343<501.085 624.012>
VStem: 98 388<323.181 448 1188 1329.26> 640 386<324.427 448 1188 1328.93>
LayerCount: 2
UndoRedoHistory
Layer: 1
Undoes
EndUndoes
Redoes
EndRedoes
EndUndoRedoHistory
Fore
SplineSet
563 -34 m 0
 861 -34 1026 159 1026 436 c 2
 1026 1201 l 2
 1026 1489 879 1686 563 1686 c 0
 244 1686 98 1490 98 1201 c 2
 98 436 l 2
 98 155 258 -34 563 -34 c 0
563 307 m 0
 485 307 486 412 486 448 c 2
 486 1188 l 2
 486 1229 474 1343 563 1343 c 0
 649 1343 640 1229 640 1188 c 2
 640 448 l 2
 640 411 641 307 563 307 c 0
EndSplineSet
EndChar

StartChar: afii00208
Encoding: 620 8213 553
Width: 4096
VWidth: 0
Flags: HW
HStem: 635 227<139 3958>
LayerCount: 2
UndoRedoHistory
Layer: 1
Undoes
EndUndoes
Redoes
EndRedoes
EndUndoRedoHistory
Fore
SplineSet
139 635 m 1
 139 862 l 1
 3958 862 l 1
 3958 635 l 1
 139 635 l 1
EndSplineSet
EndChar

